<?xml version="1.0" encoding="UTF-8"?>
<!DOCTYPE svg PUBLIC "-//W3C//DTD SVG 1.1//EN" "http://www.w3.org/Graphics/SVG/1.1/DTD/svg11.dtd">
<svg xmlns="http://www.w3.org/2000/svg" version="1.1" width="1500px" height="1500px" style="shape-rendering:geometricPrecision; text-rendering:geometricPrecision; image-rendering:optimizeQuality; fill-rule:evenodd; clip-rule:evenodd" xmlns:xlink="http://www.w3.org/1999/xlink">
<g><path style="opacity:1" fill="#eeb054" d="M 803.5,208.5 C 808.25,210.031 813.25,210.698 818.5,210.5C 964.473,230.81 1083.64,297.81 1176,411.5C 1245.25,499.692 1283.75,600.026 1291.5,712.5C 1291.5,737.167 1291.5,761.833 1291.5,786.5C 1281.54,918.377 1231.37,1032.04 1141,1127.5C 1043.67,1226.23 925.507,1280.9 786.5,1291.5C 761.833,1291.5 737.167,1291.5 712.5,1291.5C 592.081,1282.76 486.081,1239.59 394.5,1162C 387.329,1156 380.662,1149.5 374.5,1142.5C 369.165,1136.14 363.499,1130.81 357.5,1126.5C 240.783,1000.84 191.616,852.178 210,680.5C 233.165,521.86 309.331,396.027 438.5,303C 548.591,227.892 670.258,196.392 803.5,208.5 Z"/></g>
<g><path style="opacity:0.808" fill="#987c67" d="M 803.5,208.5 C 808.71,208.608 813.71,209.275 818.5,210.5C 813.25,210.698 808.25,210.031 803.5,208.5 Z"/></g>
<g><path style="opacity:1" fill="#414f79" d="M 720.5,218.5 C 889.552,213.534 1031.39,272.534 1146,395.5C 1263.78,533.609 1304.11,691.943 1267,870.5C 1230.66,1015.1 1149.49,1126.6 1023.5,1205C 895.482,1279.07 759.482,1298.74 615.5,1264C 457.263,1219.41 341.763,1123.58 269,976.5C 208.567,842.728 202.234,706.395 250,567.5C 309.167,415 415,309.167 567.5,250C 617.145,232.176 668.145,221.676 720.5,218.5 Z"/></g>
<g><path style="opacity:1" fill="#fbfbfc" d="M 785.5,257.5 C 811.48,261.719 837.48,265.719 863.5,269.5C 861.833,280.171 860.166,290.837 858.5,301.5C 854.077,301.374 849.744,300.707 845.5,299.5C 845.799,295.135 845.299,290.802 844,286.5C 840.761,284.648 837.261,283.648 833.5,283.5C 830.287,301.447 827.287,319.447 824.5,337.5C 824.308,341.823 826.308,343.823 830.5,343.5C 830.249,348.507 829.916,353.507 829.5,358.5C 816.735,357.581 804.068,355.915 791.5,353.5C 791.517,348.732 792.184,344.066 793.5,339.5C 796.257,338.971 798.757,337.971 801,336.5C 804.122,317.814 807.288,299.147 810.5,280.5C 809.975,279.808 809.308,279.308 808.5,279C 805.5,278.333 802.5,278.333 799.5,279C 796.756,282.731 795.089,286.898 794.5,291.5C 789.798,291.05 785.132,290.383 780.5,289.5C 781.952,278.789 783.619,268.122 785.5,257.5 Z"/></g>
<g><path style="opacity:1" fill="#fbfbfc" d="M 679.5,260.5 C 689.903,259.531 699.903,261.031 709.5,265C 711.958,271.906 713.291,279.073 713.5,286.5C 708.5,287.337 703.5,287.837 698.5,288C 694.832,281.079 688.999,277.912 681,278.5C 663.892,278.61 655.059,287.11 654.5,304C 654.545,313.678 656.711,322.845 661,331.5C 665.242,337.54 671.075,340.873 678.5,341.5C 685.126,340.927 691.46,339.26 697.5,336.5C 697.833,335.167 698.167,333.833 698.5,332.5C 697.614,327.186 696.947,321.853 696.5,316.5C 690.186,317.608 683.853,318.608 677.5,319.5C 676.725,313.847 676.058,308.18 675.5,302.5C 689.093,299.957 702.76,297.957 716.5,296.5C 718.399,310.561 720.732,324.561 723.5,338.5C 720.669,343.496 716.669,347.329 711.5,350C 696.964,357.068 681.631,359.735 665.5,358C 648.628,353.46 638.128,342.627 634,325.5C 631.354,314.205 631.021,302.872 633,291.5C 637.874,278.293 647.041,269.46 660.5,265C 666.89,263.16 673.224,261.66 679.5,260.5 Z"/></g>
<g><path style="opacity:1" fill="#fcfcfc" d="M 593.5,280.5 C 594.822,280.33 595.989,280.663 597,281.5C 598.559,285.619 600.393,289.619 602.5,293.5C 597.277,295.734 596.11,299.4 599,304.5C 608.5,325.5 618,346.5 627.5,367.5C 621.635,371.578 615.302,374.911 608.5,377.5C 588.584,365.959 568.751,354.293 549,342.5C 553.493,353.838 558.327,365.171 563.5,376.5C 564.559,377.696 565.893,378.363 567.5,378.5C 569.258,377.554 570.925,377.554 572.5,378.5C 574.443,382.053 576.11,385.719 577.5,389.5C 577.392,390.442 577.059,391.275 576.5,392C 569.167,395.333 561.833,398.667 554.5,402C 551.911,403.314 549.244,403.981 546.5,404C 544.644,399.788 542.644,395.621 540.5,391.5C 541.914,390.376 543.414,389.376 545,388.5C 545.667,386.5 545.667,384.5 545,382.5C 537.473,366.25 530.139,349.917 523,333.5C 522.261,332.426 521.261,331.759 520,331.5C 518.202,332.504 516.368,333.004 514.5,333C 512.407,328.894 510.407,324.727 508.5,320.5C 516.822,315.672 525.489,311.339 534.5,307.5C 554.197,319.508 574.197,330.674 594.5,341C 589.812,330.456 584.978,319.956 580,309.5C 579.167,308.667 578.333,307.833 577.5,307C 575.064,307.053 572.731,306.887 570.5,306.5C 568.542,302.791 566.875,298.957 565.5,295C 574.71,289.895 584.043,285.062 593.5,280.5 Z"/></g>
<g><path style="opacity:1" fill="#fbfbfc" d="M 905.5,282.5 C 918.614,288.391 931.948,293.724 945.5,298.5C 943.321,323.345 940.988,348.179 938.5,373C 938.565,375.591 939.065,378.091 940,380.5C 942.2,381.836 944.033,383.502 945.5,385.5C 944.268,390.201 942.268,394.534 939.5,398.5C 927.5,393.5 915.5,388.5 903.5,383.5C 903.167,382.833 902.833,382.167 902.5,381.5C 903.9,377.467 905.4,373.467 907,369.5C 909.624,369.53 912.291,369.197 915,368.5C 916.309,363.934 916.809,359.267 916.5,354.5C 909.859,352 903.193,349.833 896.5,348C 894.333,350.833 892.167,353.667 890,356.5C 889.333,357.833 889.333,359.167 890,360.5C 891.757,361.119 892.924,362.286 893.5,364C 892.139,367.889 890.639,371.722 889,375.5C 888.439,376.022 887.772,376.355 887,376.5C 875.652,372.242 864.486,367.576 853.5,362.5C 855.572,357.95 857.238,353.283 858.5,348.5C 860.747,348.915 862.914,349.582 865,350.5C 866.627,350.375 868.127,349.875 869.5,349C 883.098,333.627 896.098,317.793 908.5,301.5C 905.591,299.644 902.591,297.977 899.5,296.5C 901.515,291.807 903.515,287.141 905.5,282.5 Z"/></g>
<g><path style="opacity:1" fill="#48557e" d="M 920.5,316.5 C 921.152,317.449 921.486,318.615 921.5,320C 920.347,327.217 919.014,334.383 917.5,341.5C 913.381,339.941 909.381,338.107 905.5,336C 910.715,329.624 915.715,323.124 920.5,316.5 Z"/></g>
<g><path style="opacity:1" fill="#fbfcfc" d="M 1001.5,326.5 C 1020.12,339.406 1037.95,353.406 1055,368.5C 1061.88,380.451 1060.55,391.451 1051,401.5C 1044.97,408.608 1037.47,411.274 1028.5,409.5C 1025.38,419.298 1023.55,429.298 1023,439.5C 1025.22,441.385 1027.06,443.551 1028.5,446C 1026.06,450.277 1023.06,454.11 1019.5,457.5C 1012.96,454.13 1007.13,449.797 1002,444.5C 998.967,439.894 997.967,434.894 999,429.5C 1002.6,420.441 1004.6,411.108 1005,401.5C 1001.53,397.669 997.7,394.169 993.5,391C 992.668,390.312 992.002,390.479 991.5,391.5C 988.14,395.693 984.973,400.026 982,404.5C 981.333,406.167 981.333,407.833 982,409.5C 983.236,410.399 984.07,411.566 984.5,413C 982.067,417.104 979.233,420.937 976,424.5C 965.856,417.184 956.023,409.518 946.5,401.5C 949.088,397.324 951.921,393.324 955,389.5C 956.677,390.516 958.343,391.516 960,392.5C 962.281,391.224 964.281,389.557 966,387.5C 974.615,375.217 983.615,363.217 993,351.5C 997.243,347.192 997.41,342.859 993.5,338.5C 996.177,334.471 998.844,330.471 1001.5,326.5 Z"/></g>
<g><path style="opacity:1" fill="#fcfcfd" d="M 456.5,356.5 C 476.346,370.17 496.346,383.67 516.5,397C 521.886,401.816 527.053,401.649 532,396.5C 535.357,400.356 538.524,404.356 541.5,408.5C 531.123,417.545 520.457,426.212 509.5,434.5C 506.509,431.339 503.675,428.005 501,424.5C 501.667,421.833 502.333,419.167 503,416.5C 499.587,413.038 495.754,410.538 491.5,409C 486.299,413.372 481.299,417.872 476.5,422.5C 477.997,426.162 479.497,429.828 481,433.5C 481.725,434.059 482.558,434.392 483.5,434.5C 485.51,433.638 487.51,433.138 489.5,433C 492.358,436.358 495.025,439.858 497.5,443.5C 488.464,452.034 478.964,460.034 469,467.5C 465.714,463.759 462.547,459.925 459.5,456C 464.605,452.147 465.771,447.314 463,441.5C 456.048,423.969 448.715,406.636 441,389.5C 438.356,391.31 435.856,393.31 433.5,395.5C 430.009,391.84 426.676,388.006 423.5,384C 434.69,374.969 445.69,365.802 456.5,356.5 Z"/></g>
<g><path style="opacity:1" fill="#44517b" d="M 1015.5,359.5 C 1023.6,363.09 1030.44,368.424 1036,375.5C 1037.12,381.809 1034.95,386.643 1029.5,390C 1026.83,390.667 1024.17,390.667 1021.5,390C 1014.82,385.991 1008.48,381.491 1002.5,376.5C 1007.08,370.983 1011.42,365.317 1015.5,359.5 Z"/></g>
<g><path style="opacity:1" fill="#47547d" d="M 460.5,385.5 C 466.842,390.336 473.342,395.002 480,399.5C 480.667,400.167 480.667,400.833 480,401.5C 477.78,404.021 475.28,406.188 472.5,408C 471.551,408.617 470.718,408.451 470,407.5C 466.546,400.262 463.379,392.928 460.5,385.5 Z"/></g>
<g><path style="opacity:1" fill="#f4b455" d="M 732.5,399.5 C 857.24,397.294 957.407,445.294 1033,543.5C 1100.89,641.83 1116.89,748.164 1081,862.5C 1042.17,969.333 969.333,1042.17 862.5,1081C 746.193,1117.34 638.526,1100.34 539.5,1030C 441.609,952.128 395.109,850.294 400,724.5C 410.31,617.007 458.144,530.841 543.5,466C 600.086,425.638 663.086,403.471 732.5,399.5 Z"/></g>
<g><path style="opacity:1" fill="#fcfcfc" d="M 1094.5,402.5 C 1097.04,403.468 1099.21,405.135 1101,407.5C 1106.98,415.643 1113.14,423.643 1119.5,431.5C 1116.34,434.491 1113.01,437.325 1109.5,440C 1108.5,440.667 1107.5,440.667 1106.5,440C 1104.19,437.093 1101.53,436.759 1098.5,439C 1087.33,448.167 1076.17,457.333 1065,466.5C 1059.33,478.705 1062.49,488.205 1074.5,495C 1079.26,495.81 1083.92,495.476 1088.5,494C 1099.17,485.667 1109.83,477.333 1120.5,469C 1122.58,467.499 1123.92,465.499 1124.5,463C 1122.97,461.418 1122.47,459.585 1123,457.5C 1126.17,454.588 1129.5,451.921 1133,449.5C 1140.86,457.516 1148.02,466.183 1154.5,475.5C 1151.02,478.739 1147.35,481.739 1143.5,484.5C 1141.07,481.758 1138.07,480.925 1134.5,482C 1122.5,491.667 1110.5,501.333 1098.5,511C 1085.06,519.081 1072.39,518.081 1060.5,508C 1050.77,499.362 1043.93,488.862 1040,476.5C 1037.83,464.332 1041.67,454.499 1051.5,447C 1063.29,438.214 1074.79,429.047 1086,419.5C 1086.72,416.623 1086.22,413.957 1084.5,411.5C 1087.91,408.483 1091.24,405.483 1094.5,402.5 Z"/></g>
<g><path style="opacity:1" fill="#fdfdfd" d="M 951.5,1016.5 C 949.638,1001.05 952.138,986.378 959,972.5C 970.554,954.281 982.888,936.614 996,919.5C 1003.52,907.781 1008.86,895.114 1012,881.5C 1013.86,863.428 1009.69,846.928 999.5,832C 1011.1,825.091 1021.6,816.591 1031,806.5C 1039.18,795.965 1043.85,783.965 1045,770.5C 1045.44,751.998 1045.28,733.498 1044.5,715C 1042.12,691.647 1048.12,670.813 1062.5,652.5C 1044.57,644.085 1029.41,632.085 1017,616.5C 1006,602.167 995,587.833 984,573.5C 972.903,559.724 959.07,549.891 942.5,544C 934.542,542.61 926.542,542.277 918.5,543C 912.046,544.694 905.712,546.527 899.5,548.5C 899.303,514.487 883.303,491.653 851.5,480C 828.14,472.991 805.14,464.991 782.5,456C 769.216,448.619 757.382,439.453 747,428.5C 742.905,433.271 738.738,438.105 734.5,443C 724.797,450.7 714.131,456.7 702.5,461C 683.428,466.802 664.428,472.802 645.5,479C 614.687,490.976 599.02,513.476 598.5,546.5C 564.932,536.637 537.432,545.303 516,572.5C 507.609,583.892 499.609,595.559 492,607.5C 482.245,622.535 469.745,634.702 454.5,644C 448.504,646.003 442.837,648.503 437.5,651.5C 445.63,661.43 450.797,672.763 453,685.5C 454.234,711.143 454.9,736.81 455,762.5C 457.3,796.61 474.467,819.277 506.5,830.5C 492.505,847.665 488.339,866.999 494,888.5C 497.102,896.708 500.769,904.708 505,912.5C 515.842,928.851 527.175,944.851 539,960.5C 547.172,972.845 553.172,986.178 557,1000.5C 557.499,1006.16 557.666,1011.82 557.5,1017.5C 562.441,1015.91 567.441,1014.41 572.5,1013C 581.833,1012.33 591.167,1012.33 600.5,1013C 609.495,1015.33 618.495,1017.66 627.5,1020C 642.244,1025.36 656.911,1030.69 671.5,1036C 704.691,1044.1 732.358,1035.27 754.5,1009.5C 778.14,1038.87 807.807,1047.04 843.5,1034C 861.865,1027.54 880.199,1020.88 898.5,1014C 904.244,1013.42 909.911,1012.42 915.5,1011C 927.803,1009.17 939.47,1011 950.5,1016.5C 910.196,1047.47 864.863,1067.97 814.5,1078C 687.696,1098.85 581.196,1062.01 495,967.5C 424.271,881.242 400.271,783.242 423,673.5C 447.048,578.506 501.214,506.339 585.5,457C 670.044,411.269 758.378,402.269 850.5,430C 952.889,465.055 1024.06,532.889 1064,633.5C 1100.39,740.874 1088.06,842.207 1027,937.5C 1006.12,967.88 980.955,994.213 951.5,1016.5 Z"/></g>
<g><path style="opacity:1" fill="#fcfcfd" d="M 384.5,431.5 C 399.406,430.536 410.573,436.536 418,449.5C 418.499,454.155 418.666,458.821 418.5,463.5C 427.303,464.301 435.97,465.968 444.5,468.5C 445.5,468.333 446.5,468.167 447.5,468C 450.113,465.912 452.613,463.746 455,461.5C 459.104,463.933 462.937,466.767 466.5,470C 462.827,479.024 456.827,486.024 448.5,491C 445.167,491.667 441.833,491.667 438.5,491C 430.388,488.629 422.221,486.463 414,484.5C 408.826,486.333 404.826,489.667 402,494.5C 401.535,495.931 400.701,497.097 399.5,498C 404.5,501.667 409.5,505.333 414.5,509C 415.5,509.667 416.5,509.667 417.5,509C 418.685,507.647 420.019,506.48 421.5,505.5C 425.896,508.025 429.896,511.025 433.5,514.5C 426.243,524.679 418.743,534.679 411,544.5C 407.333,541.833 403.667,539.167 400,536.5C 399.709,534.217 400.209,532.05 401.5,530C 400.561,528.056 399.227,526.389 397.5,525C 383.656,515.244 369.989,505.244 356.5,495C 352.933,493.925 349.933,494.758 347.5,497.5C 343.639,494.472 339.639,491.639 335.5,489C 348.107,471.126 361.44,453.792 375.5,437C 378.596,435.128 381.596,433.295 384.5,431.5 Z"/></g>
<g><path style="opacity:1" fill="#43517a" d="M 383.5,454.5 C 396.24,453.726 401.074,459.393 398,471.5C 394.064,477.053 389.897,482.387 385.5,487.5C 379.342,483.496 373.675,478.996 368.5,474C 372.936,467.065 377.936,460.565 383.5,454.5 Z"/></g>
<g><path style="opacity:1" fill="#fcfcfd" d="M 1168.5,502.5 C 1169.68,502.281 1170.68,502.614 1171.5,503.5C 1175.44,511.721 1179.11,520.054 1182.5,528.5C 1171.48,548.707 1159.81,568.54 1147.5,588C 1158.5,583.674 1169.5,579.007 1180.5,574C 1181.33,573.167 1182.17,572.333 1183,571.5C 1182.95,569.064 1183.11,566.731 1183.5,564.5C 1187.37,562.931 1191.21,561.264 1195,559.5C 1195.77,559.645 1196.44,559.978 1197,560.5C 1201.17,570.167 1205.33,579.833 1209.5,589.5C 1205.55,592.386 1201.22,594.719 1196.5,596.5C 1194.67,592.482 1191.67,590.982 1187.5,592C 1165.38,601.559 1143.38,611.392 1121.5,621.5C 1117.76,614.745 1114.92,607.745 1113,600.5C 1124.71,580.917 1136.54,561.417 1148.5,542C 1136.79,546.58 1125.13,551.58 1113.5,557C 1112.2,557.804 1111.53,558.971 1111.5,560.5C 1112.23,562.155 1112.39,563.821 1112,565.5C 1107.79,567.356 1103.62,569.356 1099.5,571.5C 1094.71,561.424 1090.05,551.257 1085.5,541C 1089.13,537.932 1093.3,535.765 1098,534.5C 1099.82,535.604 1101.32,537.104 1102.5,539C 1103.83,539.667 1105.17,539.667 1106.5,539C 1123.75,531.139 1141.08,523.472 1158.5,516C 1158.64,513.145 1158.64,510.311 1158.5,507.5C 1162.17,506.33 1165.51,504.663 1168.5,502.5 Z"/></g>
<g><path style="opacity:1" fill="#fbfcfc" d="M 393.5,544.5 C 398.594,545.882 403.261,548.049 407.5,551C 402.562,563.704 397.229,576.204 391.5,588.5C 387.5,586.833 383.5,585.167 379.5,583.5C 379.102,580.976 378.768,578.476 378.5,576C 373.89,574.71 369.223,574.376 364.5,575C 361.68,580.623 359.347,586.456 357.5,592.5C 357.529,594.029 358.196,595.196 359.5,596C 361.833,597.667 364.167,599.333 366.5,601C 367.944,601.781 369.277,601.614 370.5,600.5C 371.083,598.998 371.916,597.665 373,596.5C 377.326,598.664 381.826,600.331 386.5,601.5C 382.363,613.244 378.03,624.911 373.5,636.5C 367.89,635.856 362.89,633.856 358.5,630.5C 360.818,627.584 360.984,624.584 359,621.5C 343.592,608.547 328.092,595.714 312.5,583C 311.551,582.383 310.718,582.549 310,583.5C 309.145,586.601 307.645,589.268 305.5,591.5C 300.829,589.831 296.496,587.664 292.5,585C 297.598,572.54 302.598,560.04 307.5,547.5C 309.5,547.167 311.5,546.833 313.5,546.5C 335.898,547.793 358.231,549.793 380.5,552.5C 387.223,553.501 391.556,550.835 393.5,544.5 Z"/></g>
<g><path style="opacity:1" fill="#2e2926" d="M 951.5,1016.5 C 951.167,1016.5 950.833,1016.5 950.5,1016.5C 939.47,1011 927.803,1009.17 915.5,1011C 909.911,1012.42 904.244,1013.42 898.5,1014C 880.199,1020.88 861.865,1027.54 843.5,1034C 807.807,1047.04 778.14,1038.87 754.5,1009.5C 732.358,1035.27 704.691,1044.1 671.5,1036C 656.911,1030.69 642.244,1025.36 627.5,1020C 618.495,1017.66 609.495,1015.33 600.5,1013C 591.167,1012.33 581.833,1012.33 572.5,1013C 567.441,1014.41 562.441,1015.91 557.5,1017.5C 557.666,1011.82 557.499,1006.16 557,1000.5C 553.172,986.178 547.172,972.845 539,960.5C 527.175,944.851 515.842,928.851 505,912.5C 500.769,904.708 497.102,896.708 494,888.5C 488.339,866.999 492.505,847.665 506.5,830.5C 474.467,819.277 457.3,796.61 455,762.5C 454.9,736.81 454.234,711.143 453,685.5C 450.797,672.763 445.63,661.43 437.5,651.5C 442.837,648.503 448.504,646.003 454.5,644C 469.745,634.702 482.245,622.535 492,607.5C 499.609,595.559 507.609,583.892 516,572.5C 537.432,545.303 564.932,536.637 598.5,546.5C 599.02,513.476 614.687,490.976 645.5,479C 664.428,472.802 683.428,466.802 702.5,461C 714.131,456.7 724.797,450.7 734.5,443C 738.738,438.105 742.905,433.271 747,428.5C 757.382,439.453 769.216,448.619 782.5,456C 805.14,464.991 828.14,472.991 851.5,480C 883.303,491.653 899.303,514.487 899.5,548.5C 905.712,546.527 912.046,544.694 918.5,543C 926.542,542.277 934.542,542.61 942.5,544C 959.07,549.891 972.903,559.724 984,573.5C 995,587.833 1006,602.167 1017,616.5C 1029.41,632.085 1044.57,644.085 1062.5,652.5C 1048.12,670.813 1042.12,691.647 1044.5,715C 1045.28,733.498 1045.44,751.998 1045,770.5C 1043.85,783.965 1039.18,795.965 1031,806.5C 1021.6,816.591 1011.1,825.091 999.5,832C 1009.69,846.928 1013.86,863.428 1012,881.5C 1008.86,895.114 1003.52,907.781 996,919.5C 982.888,936.614 970.554,954.281 959,972.5C 952.138,986.378 949.638,1001.05 951.5,1016.5 Z"/></g>
<g><path style="opacity:1" fill="#a5a3a1" d="M 580.5,547.5 C 569.956,546.825 559.623,547.825 549.5,550.5C 552.282,549.067 555.282,547.9 558.5,547C 566.012,546.178 573.345,546.345 580.5,547.5 Z"/></g>
<g><path style="opacity:1" fill="#f5f5f5" d="M 1042.5,688.5 C 1041.7,689.952 1041.2,691.618 1041,693.5C 1040.17,704.341 1040.34,715.008 1041.5,725.5C 1042.22,738.829 1042.39,752.163 1042,765.5C 1040.54,785.915 1032.04,802.748 1016.5,816C 1008.99,820.701 1001.65,825.534 994.5,830.5C 1012.94,858.319 1013.11,886.319 995,914.5C 980.886,933.283 967.553,952.616 955,972.5C 952.657,979.181 950.324,985.847 948,992.5C 947.831,998.859 947.331,1005.19 946.5,1011.5C 926.271,1005.64 906.271,1006.47 886.5,1014C 865.32,1022.73 843.654,1030.06 821.5,1036C 800.157,1039 781.823,1033 766.5,1018C 762.657,1013.33 758.657,1008.83 754.5,1004.5C 744.349,1016.58 732.016,1025.74 717.5,1032C 713.986,1033.56 710.319,1034.4 706.5,1034.5C 697.148,1034.57 687.815,1034.23 678.5,1033.5C 674.494,1032.78 670.494,1031.94 666.5,1031C 647.746,1023.45 628.746,1016.78 609.5,1011C 601.359,1009.88 593.193,1009.05 585,1008.5C 576.625,1008.7 568.459,1010.03 560.5,1012.5C 560.964,999.358 558.13,987.025 552,975.5C 539.654,955.471 526.321,936.137 512,917.5C 504.01,905.538 498.344,892.538 495,878.5C 493.788,859.635 499.621,843.301 512.5,829.5C 476.879,818.211 458.879,793.877 458.5,756.5C 458.667,735.831 458.5,715.164 458,694.5C 457.814,691.964 457.314,689.631 456.5,687.5C 455.304,674.906 450.971,663.572 443.5,653.5C 449.342,650.079 455.342,646.912 461.5,644C 473.097,635.349 483.263,625.183 492,613.5C 501.841,598.483 512.175,583.816 523,569.5C 530.337,560.984 539.171,554.65 549.5,550.5C 559.623,547.825 569.956,546.825 580.5,547.5C 587.552,548.577 594.552,549.91 601.5,551.5C 601.224,515.285 618.224,491.452 652.5,480C 672.73,474.209 692.73,467.876 712.5,461C 726.502,454.682 738.168,445.516 747.5,433.5C 760.211,446.366 774.878,456.533 791.5,464C 812.325,471.243 833.325,478.243 854.5,485C 884.093,497.979 898.093,520.813 896.5,553.5C 920.834,542.265 943.834,544.432 965.5,560C 971.709,565.509 977.543,571.342 983,577.5C 995.284,594.119 1007.95,610.453 1021,626.5C 1031.22,637.436 1042.89,646.436 1056,653.5C 1053.09,659.323 1050.09,665.323 1047,671.5C 1045.19,677.106 1043.69,682.773 1042.5,688.5 Z"/></g>
<g><path style="opacity:1" fill="#7a7675" d="M 569.5,553.5 C 572.817,552.835 576.317,552.501 580,552.5C 585.421,552.326 590.587,552.993 595.5,554.5C 586.858,553.701 578.191,553.368 569.5,553.5 Z"/></g>
<g><path style="opacity:1" fill="#45537c" d="M 326.5,570.5 C 326.735,569.903 327.235,569.57 328,569.5C 335.467,570.756 342.967,571.756 350.5,572.5C 349.307,576.911 347.807,581.244 346,585.5C 339.624,580.285 333.124,575.285 326.5,570.5 Z"/></g>
<g><path style="opacity:1" fill="#fbfbfc" d="M 1133.5,629.5 C 1135.83,629.5 1138.17,629.5 1140.5,629.5C 1140.04,634.321 1142.04,637.487 1146.5,639C 1166.06,642.295 1185.73,644.795 1205.5,646.5C 1205.18,643.102 1205.51,639.768 1206.5,636.5C 1211.07,635.184 1215.73,634.517 1220.5,634.5C 1222.5,647.49 1224.5,660.49 1226.5,673.5C 1226.17,674.833 1225.83,676.167 1225.5,677.5C 1201.45,688.606 1177.95,700.606 1155,713.5C 1154.5,716.482 1154.34,719.482 1154.5,722.5C 1149.71,722.349 1145.04,723.016 1140.5,724.5C 1137.09,710.72 1134.76,696.72 1133.5,682.5C 1138.48,681.947 1143.48,681.613 1148.5,681.5C 1148.4,684.314 1149.57,686.314 1152,687.5C 1155.56,685.97 1159.06,684.303 1162.5,682.5C 1162.83,681 1163.17,679.5 1163.5,678C 1162.56,672.191 1161.89,666.358 1161.5,660.5C 1156.48,660.218 1151.48,660.051 1146.5,660C 1145.58,662.041 1145.24,664.208 1145.5,666.5C 1140.55,667.492 1135.55,668.158 1130.5,668.5C 1128.82,656.111 1126.82,643.778 1124.5,631.5C 1127.69,631.142 1130.69,630.475 1133.5,629.5 Z"/></g>
<g><path style="opacity:1" fill="#fbfbfc" d="M 277.5,632.5 C 282.425,633.685 287.425,634.351 292.5,634.5C 291.628,639.447 292.961,643.613 296.5,647C 303.379,651.521 310.546,655.354 318,658.5C 329.703,656.427 341.203,653.593 352.5,650C 354.655,646.888 355.655,643.388 355.5,639.5C 360.807,640.33 366.141,640.997 371.5,641.5C 369.969,651.807 368.636,662.14 367.5,672.5C 353.564,675.484 339.564,678.15 325.5,680.5C 325.08,686.863 324.413,693.196 323.5,699.5C 331.097,701.05 338.764,701.55 346.5,701C 348.155,699.556 348.822,697.722 348.5,695.5C 353.805,696.194 359.138,696.528 364.5,696.5C 362.67,709.138 361.004,721.805 359.5,734.5C 354.527,733.836 349.527,733.503 344.5,733.5C 344.663,731.143 344.497,728.81 344,726.5C 342.933,725.809 341.766,725.309 340.5,725C 326.12,723.279 311.787,721.279 297.5,719C 292.833,718.333 288.167,718.333 283.5,719C 282.74,720.441 282.074,721.941 281.5,723.5C 280.167,723.833 278.833,724.167 277.5,724.5C 273.855,723.884 270.188,723.55 266.5,723.5C 267.892,710.854 269.226,698.187 270.5,685.5C 275.813,686.098 281.146,686.431 286.5,686.5C 286.232,689.119 286.565,691.619 287.5,694C 293.654,696 299.987,696.833 306.5,696.5C 307.417,690.175 307.917,683.841 308,677.5C 302.634,673.983 296.968,670.983 291,668.5C 290.228,668.645 289.561,668.978 289,669.5C 288.506,671.134 288.34,672.801 288.5,674.5C 283.141,673.997 277.807,673.33 272.5,672.5C 274.171,659.157 275.837,645.823 277.5,632.5 Z"/></g>
<g><path style="opacity:1" fill="#43517a" d="M 1174.5,662.5 C 1182.5,663.501 1190.5,664.667 1198.5,666C 1191.14,669.119 1183.98,672.619 1177,676.5C 1176.12,671.821 1175.28,667.154 1174.5,662.5 Z"/></g>
<g><path style="opacity:1" fill="#5b5755" d="M 1042.5,688.5 C 1041.68,700.815 1041.35,713.148 1041.5,725.5C 1040.34,715.008 1040.17,704.341 1041,693.5C 1041.2,691.618 1041.7,689.952 1042.5,688.5 Z"/></g>
<g><path style="opacity:1" fill="#706d6b" d="M 456.5,687.5 C 457.314,689.631 457.814,691.964 458,694.5C 458.5,715.164 458.667,735.831 458.5,756.5C 457.747,733.658 457.08,710.658 456.5,687.5 Z"/></g>
<g><path style="opacity:1" fill="#9a7961" d="M 1291.5,712.5 C 1294.17,737.167 1294.17,761.833 1291.5,786.5C 1291.5,761.833 1291.5,737.167 1291.5,712.5 Z"/></g>
<g><path style="opacity:1" fill="#f3b353" d="M 308.5,750.5 C 309.495,761.999 310.328,773.666 311,785.5C 314.5,797 322,804.5 333.5,808C 344.821,808.866 356.155,809.533 367.5,810C 356.155,810.467 344.821,811.134 333.5,812C 322,815.5 314.5,823 311,834.5C 310.134,845.821 309.467,857.155 309,868.5C 308.533,857.155 307.866,845.821 307,834.5C 303.5,823 296,815.5 284.5,812C 272.843,811.167 261.176,810.5 249.5,810C 261.176,809.5 272.843,808.833 284.5,808C 296,804.5 303.5,797 307,785.5C 307.938,773.85 308.438,762.183 308.5,750.5 Z"/></g>
<g><path style="opacity:1" fill="#f3b253" d="M 1178.5,756.5 C 1179.33,766.346 1180.16,776.346 1181,786.5C 1184.28,798.11 1191.78,805.277 1203.5,808C 1214.82,808.866 1226.15,809.533 1237.5,810C 1226.15,810.467 1214.82,811.134 1203.5,812C 1191.78,814.723 1184.28,821.89 1181,833.5C 1179.93,842.802 1179.27,852.135 1179,861.5C 1178.07,851.815 1177.07,842.149 1176,832.5C 1172.32,821.488 1164.82,814.654 1153.5,812C 1142.17,811.193 1130.84,810.527 1119.5,810C 1130.84,809.473 1142.17,808.807 1153.5,808C 1164.82,805.346 1172.32,798.512 1176,787.5C 1177.26,777.215 1178.1,766.881 1178.5,756.5 Z"/></g>
<g><path style="opacity:1" fill="#322c21" d="M 928.5,997.5 C 927.737,996.732 926.737,996.232 925.5,996C 921.5,995.833 917.5,995.667 913.5,995.5C 907.902,995.276 902.569,995.943 897.5,997.5C 877.01,1002.91 857.01,1009.75 837.5,1018C 804.085,1029.91 776.418,1022.08 754.5,994.5C 745.444,1004.06 735.11,1011.89 723.5,1018C 706.954,1023.62 690.287,1023.96 673.5,1019C 658.647,1014.05 643.98,1008.72 629.5,1003C 613.87,997.911 597.87,996.244 581.5,998C 577.465,999.067 573.465,1000.23 569.5,1001.5C 568.641,987.727 565.141,974.727 559,962.5C 546.741,942.979 533.741,923.979 520,905.5C 514.844,896.855 510.51,887.855 507,878.5C 501.901,858.15 506.401,840.317 520.5,825C 487.268,813.409 470.768,789.909 471,754.5C 470.933,732.464 470.266,710.464 469,688.5C 467.031,676.57 462.364,665.903 455,656.5C 454.517,655.552 454.351,654.552 454.5,653.5C 464.485,651.508 473.485,647.342 481.5,641C 488.032,634.802 494.199,628.302 500,621.5C 509,608.5 518,595.5 527,582.5C 534.247,573.251 542.747,565.417 552.5,559C 558.007,556.575 563.674,554.741 569.5,553.5C 578.191,553.368 586.858,553.701 595.5,554.5C 599.14,555.273 602.807,555.94 606.5,556.5C 607.238,523.932 622.904,502.099 653.5,491C 674.789,484.793 695.789,477.793 716.5,470C 723.34,466.75 729.673,462.75 735.5,458C 739.627,453.553 743.627,449.053 747.5,444.5C 762.043,459.942 779.376,471.108 799.5,478C 816.879,483.675 834.213,489.341 851.5,495C 878.868,507.22 891.868,528.386 890.5,558.5C 911.17,549.433 931.17,550.6 950.5,562C 957.931,567.427 964.764,573.593 971,580.5C 983.952,597.787 997.285,614.787 1011,631.5C 1016.03,636.922 1021.53,641.755 1027.5,646C 1033.56,649.691 1039.56,653.358 1045.5,657C 1036.61,668.672 1031.11,681.839 1029,696.5C 1028.43,714.858 1028.93,733.191 1030.5,751.5C 1032.02,776.129 1023.69,796.629 1005.5,813C 999.148,817.36 992.815,821.693 986.5,826C 1002.5,852.111 1002.33,878.278 986,904.5C 975.667,918.833 965.333,933.167 955,947.5C 948.685,957.101 944.018,967.435 941,978.5C 940.5,985.826 940.334,993.159 940.5,1000.5C 936.596,999.191 932.596,998.191 928.5,997.5 Z"/></g>
<g><path style="opacity:1" fill="#807b0e" d="M 1029.5,683.5 C 1029.59,686.152 1028.92,688.485 1027.5,690.5C 1027.41,687.848 1028.08,685.515 1029.5,683.5 Z"/></g>
<g><path style="opacity:1" fill="#827c0e" d="M 469.5,680.5 C 470.924,682.515 471.59,684.848 471.5,687.5C 470.076,685.485 469.41,683.152 469.5,680.5 Z"/></g>
<g><path style="opacity:1" fill="#afaa0a" d="M 886.5,540.5 C 887.302,541.952 887.802,543.618 888,545.5C 888.499,550.823 888.666,556.156 888.5,561.5C 890.216,561.371 891.883,561.038 893.5,560.5C 892.01,562.28 890.01,562.946 887.5,562.5C 887.451,555.151 887.118,547.817 886.5,540.5 Z"/></g>
<g><path style="opacity:1" fill="#948f0c" d="M 612.5,535.5 C 612.59,538.152 611.924,540.485 610.5,542.5C 610.41,539.848 611.076,537.515 612.5,535.5 Z"/></g>
<g><path style="opacity:1" fill="#6f6913" d="M 824.5,488.5 C 831.698,489.675 838.365,492.009 844.5,495.5C 837.608,493.537 830.941,491.204 824.5,488.5 Z"/></g>
<g><path style="opacity:1" fill="#fdf300" d="M 824.5,488.5 C 830.941,491.204 837.608,493.537 844.5,495.5C 867.462,502.129 881.462,517.129 886.5,540.5C 887.118,547.817 887.451,555.151 887.5,562.5C 890.01,562.946 892.01,562.28 893.5,560.5C 918.473,550.305 940.806,554.471 960.5,573C 975.713,591.211 990.546,609.711 1005,628.5C 1015.74,640.254 1027.91,650.087 1041.5,658C 1035.76,665.655 1031.76,674.155 1029.5,683.5C 1028.08,685.515 1027.41,687.848 1027.5,690.5C 1027.08,716.81 1026.91,743.144 1027,769.5C 1023.92,788.851 1014.42,804.018 998.5,815C 993.332,818.419 987.998,821.585 982.5,824.5C 1000.13,852.507 999.626,880.173 981,907.5C 969.945,922.222 959.278,937.222 949,952.5C 942.796,961.946 939.296,972.279 938.5,983.5C 937.675,987.647 937.175,991.981 937,996.5C 934.699,995.133 932.199,994.466 929.5,994.5C 929.167,994.5 928.833,994.5 928.5,994.5C 928.389,993.883 928.056,993.383 927.5,993C 920.321,992.179 913.321,992.345 906.5,993.5C 899.794,994.341 893.127,995.507 886.5,997C 867.023,1004.38 847.356,1011.38 827.5,1018C 804.457,1024.48 784.123,1019.81 766.5,1004C 762.657,999.326 758.657,994.826 754.5,990.5C 743.783,1003.37 730.45,1012.54 714.5,1018C 701.76,1020.23 689.093,1019.89 676.5,1017C 657.954,1010.36 639.287,1004.03 620.5,998C 607.294,994.762 593.96,993.929 580.5,995.5C 577.848,995.41 575.515,996.076 573.5,997.5C 572.85,997.804 572.183,998.137 571.5,998.5C 570.653,993.846 569.987,989.179 569.5,984.5C 569.59,981.848 568.924,979.515 567.5,977.5C 565.177,969.849 562.011,962.516 558,955.5C 545,936.833 532,918.167 519,899.5C 516.485,893.807 513.985,888.141 511.5,882.5C 511.072,879.215 510.072,876.215 508.5,873.5C 506.028,859.024 508.862,845.691 517,833.5C 519.692,830.308 522.192,826.975 524.5,823.5C 493.21,814.577 476.377,793.911 474,761.5C 473.667,740.167 473.333,718.833 473,697.5C 471.595,694.381 471.095,691.048 471.5,687.5C 471.59,684.848 470.924,682.515 469.5,680.5C 467.628,671.686 463.962,663.686 458.5,656.5C 473.581,650.862 486.415,641.862 497,629.5C 510.223,610.222 524.056,591.389 538.5,573C 547.249,564.459 557.582,558.792 569.5,556C 582.871,554.484 595.871,555.984 608.5,560.5C 609.167,554.346 609.833,548.346 610.5,542.5C 611.924,540.485 612.59,538.152 612.5,535.5C 616.759,519.733 626.092,507.9 640.5,500C 645.38,497.393 650.38,495.06 655.5,493C 673.539,487.459 691.539,481.792 709.5,476C 717.819,472.175 725.819,467.842 733.5,463C 738.376,458.292 743.043,453.459 747.5,448.5C 769.344,468.924 795.011,482.258 824.5,488.5 Z"/></g>
<g><path style="opacity:1" fill="#291f17" d="M 773.5,541.5 C 778.984,542.804 784.651,543.804 790.5,544.5C 795.891,545.245 801.224,546.245 806.5,547.5C 809.505,549.277 812.838,550.277 816.5,550.5C 887.689,575.538 935.189,623.872 959,695.5C 960.833,702.48 962.333,709.48 963.5,716.5C 963.958,723.38 964.958,730.047 966.5,736.5C 967.144,741.755 967.477,747.088 967.5,752.5C 967.271,763.203 966.604,773.87 965.5,784.5C 963.437,791.238 962.103,798.238 961.5,805.5C 938.565,888.602 885.565,942.102 802.5,966C 778.942,971.492 755.276,973.326 731.5,971.5C 725.431,969.625 719.098,968.625 712.5,968.5C 708.236,968.656 704.236,967.989 700.5,966.5C 698.485,965.076 696.152,964.41 693.5,964.5C 625.227,944.738 577.06,902.071 549,836.5C 544.584,824.754 541.084,812.754 538.5,800.5C 538.59,797.848 537.924,795.515 536.5,793.5C 536.5,792.833 536.5,792.167 536.5,791.5C 536.72,786.9 536.054,782.567 534.5,778.5C 531.982,753.824 533.649,729.491 539.5,705.5C 540.924,703.485 541.59,701.152 541.5,698.5C 565.888,620.612 617.222,570.112 695.5,547C 721.168,540.69 747.168,538.856 773.5,541.5 Z"/></g>
<g><path style="opacity:1" fill="#857d0f" d="M 536.5,793.5 C 537.924,795.515 538.59,797.848 538.5,800.5C 537.076,798.485 536.41,796.152 536.5,793.5 Z"/></g>
<g><path style="opacity:1" fill="#aca50d" d="M 965.5,784.5 C 965.427,791.862 964.093,798.862 961.5,805.5C 962.103,798.238 963.437,791.238 965.5,784.5 Z"/></g>
<g><path style="opacity:1" fill="#9f970d" d="M 534.5,778.5 C 536.054,782.567 536.72,786.9 536.5,791.5C 534.946,787.433 534.28,783.1 534.5,778.5 Z"/></g>
<g><path style="opacity:1" fill="#918a0f" d="M 963.5,716.5 C 965.561,722.879 966.561,729.546 966.5,736.5C 964.958,730.047 963.958,723.38 963.5,716.5 Z"/></g>
<g><path style="opacity:1" fill="#767010" d="M 541.5,698.5 C 541.59,701.152 540.924,703.485 539.5,705.5C 539.41,702.848 540.076,700.515 541.5,698.5 Z"/></g>
<g><path style="opacity:1" fill="#978f0e" d="M 806.5,547.5 C 810.162,547.723 813.495,548.723 816.5,550.5C 812.838,550.277 809.505,549.277 806.5,547.5 Z"/></g>
<g><path style="opacity:1" fill="#d7241c" d="M 732.5,544.5 C 804.197,540.948 864.031,565.614 912,618.5C 961.099,678.322 974.765,745.656 953,820.5C 922.677,902.774 864.177,951.274 777.5,966C 734.849,971.225 694.182,964.558 655.5,946C 590.684,911.155 552.184,857.322 540,784.5C 531.196,705.31 557.363,640.476 618.5,590C 652.17,563.944 690.17,548.778 732.5,544.5 Z"/></g>
<g><path style="opacity:1" fill="#2e2420" d="M 758.5,560.5 C 829.36,568.502 883.86,602.502 922,662.5C 924.557,666.446 926.723,670.613 928.5,675C 925.015,677.652 921.682,680.485 918.5,683.5C 920.412,687.66 922.579,691.66 925,695.5C 927.09,696.152 929.257,696.319 931.5,696C 940.958,703.571 942.958,712.738 937.5,723.5C 925.545,730.319 912.711,734.652 899,736.5C 892.861,734.692 888.194,731.026 885,725.5C 879.877,714.131 875.544,702.464 872,690.5C 870.287,686.905 868.453,683.405 866.5,680C 869.344,675.656 873.011,672.156 877.5,669.5C 846.417,624.038 803.251,600.371 748,598.5C 693.972,601.259 651.805,624.925 621.5,669.5C 625.671,672.838 629.337,676.671 632.5,681C 626.451,691.801 621.951,703.301 619,715.5C 615.521,725.833 608.854,733.167 599,737.5C 585.82,735.67 573.32,731.837 561.5,726C 555.232,715.278 556.565,705.611 565.5,697C 568.095,697.131 570.595,696.964 573,696.5C 575.388,691.557 577.888,686.724 580.5,682C 576.796,679.487 573.13,676.987 569.5,674.5C 594.051,628.448 630.051,594.615 677.5,573C 691.624,567.145 706.29,563.311 721.5,561.5C 733.817,560.715 746.15,560.382 758.5,560.5 Z"/></g>
<g><path style="opacity:1" fill="#821f19" d="M 822.5,692.5 C 820.899,698.711 820.232,705.044 820.5,711.5C 818.826,704.942 819.492,698.609 822.5,692.5 Z"/></g>
<g><path style="opacity:1" fill="#f6f6f5" d="M 566.5,699.5 C 575.646,702.438 584.646,705.771 593.5,709.5C 587.911,717.433 588.245,725.1 594.5,732.5C 592.579,733.641 590.579,733.808 588.5,733C 583.228,731.131 577.894,729.465 572.5,728C 562.109,725.497 557.942,718.997 560,708.5C 561.686,705.117 563.853,702.117 566.5,699.5 Z"/></g>
<g><path style="opacity:1" fill="#f7f7f7" d="M 926.5,698.5 C 928.199,698.34 929.866,698.506 931.5,699C 937.777,705.578 939.111,713.078 935.5,721.5C 928.189,725.417 920.522,728.584 912.5,731C 909.806,732.19 907.139,732.356 904.5,731.5C 909.728,723.738 909.728,716.071 904.5,708.5C 911.964,705.35 919.297,702.017 926.5,698.5 Z"/></g>
<g><path style="opacity:1" fill="#f7f6f6" d="M 870.5,681.5 C 871.552,681.351 872.552,681.517 873.5,682C 878.167,686 882.833,690 887.5,694C 889.588,695.03 891.755,695.863 894,696.5C 900.674,691.994 907.674,687.994 915,684.5C 915.772,684.645 916.439,684.978 917,685.5C 918.948,689.863 920.782,694.196 922.5,698.5C 915.38,701.263 908.213,703.929 901,706.5C 902.332,709.48 903.999,712.48 906,715.5C 907.135,723.227 904.468,729.227 898,733.5C 892.346,730.513 888.013,726.179 885,720.5C 880.314,707.407 875.481,694.407 870.5,681.5 Z"/></g>
<g><path style="opacity:1" fill="#f7f7f7" d="M 624.5,682.5 C 625.873,682.343 627.207,682.51 628.5,683C 627.333,684.833 626.167,686.667 625,688.5C 621.625,701.899 616.625,714.566 610,726.5C 602.24,736.563 596.24,735.563 592,723.5C 591.333,721.167 591.333,718.833 592,716.5C 593.586,713.659 595.42,710.993 597.5,708.5C 590.326,705.109 582.992,702.109 575.5,699.5C 577.138,694.054 579.472,688.887 582.5,684C 583.5,683.333 584.5,683.333 585.5,684C 592.003,688.086 598.67,691.919 605.5,695.5C 613.227,693.091 619.56,688.758 624.5,682.5 Z"/></g>
<g><path style="opacity:1" fill="#2b211e" d="M 822.5,692.5 C 819.492,698.609 818.826,704.942 820.5,711.5C 822.549,723.909 825.049,736.243 828,748.5C 832.063,774.221 822.23,792.055 798.5,802C 791.553,804.483 784.553,806.65 777.5,808.5C 766.599,810.533 755.599,811.533 744.5,811.5C 725.062,811.324 707.396,805.824 691.5,795C 675.106,780.617 669.94,762.783 676,741.5C 680.751,726.843 683.084,711.843 683,696.5C 680.978,686.788 676.145,678.788 668.5,672.5C 667.571,671.311 667.238,669.978 667.5,668.5C 693.007,667.674 705.007,680.007 703.5,705.5C 702.332,724.836 701.499,744.17 701,763.5C 700.949,777.583 707.115,787.75 719.5,794C 720.944,794.781 722.277,794.614 723.5,793.5C 712.395,777.349 706.562,759.349 706,739.5C 705.5,729.172 705.334,718.839 705.5,708.5C 706.657,700.344 706.823,692.01 706,683.5C 705.707,679.132 704.54,675.132 702.5,671.5C 700.428,665.256 696.928,659.922 692,655.5C 691.517,654.552 691.351,653.552 691.5,652.5C 699.459,652.518 707.292,653.518 715,655.5C 717.561,650.837 719.561,645.837 721,640.5C 722.978,637.355 725.478,634.688 728.5,632.5C 731.512,636.538 734.512,640.538 737.5,644.5C 742.5,639.833 747.5,635.167 752.5,630.5C 757.167,634.833 761.833,639.167 766.5,643.5C 769.082,638.667 771.915,634 775,629.5C 783.314,636.931 786.814,646.265 785.5,657.5C 794.249,653.149 803.582,651.149 813.5,651.5C 812.855,655.678 810.688,659.011 807,661.5C 800.855,670.935 798.188,681.268 799,692.5C 805.395,673.867 818.562,665.7 838.5,668C 839.517,669.049 839.684,670.216 839,671.5C 831.078,676.717 825.578,683.717 822.5,692.5 Z"/></g>
<g><path style="opacity:1" fill="#7c7978" d="M 823.5,744.5 C 824.979,748.909 825.646,753.576 825.5,758.5C 825.498,761.686 825.165,764.686 824.5,767.5C 824.477,759.817 824.143,752.15 823.5,744.5 Z"/></g>
<g><path style="opacity:1" fill="#e7e7e7" d="M 877.5,672.5 C 878.675,672.281 879.675,672.614 880.5,673.5C 882.75,677.668 885.25,681.668 888,685.5C 889.309,687.747 889.975,690.08 890,692.5C 883.664,687.659 877.497,682.659 871.5,677.5C 873.544,675.781 875.544,674.114 877.5,672.5 Z"/></g>
<g><path style="opacity:1" fill="#efefef" d="M 734.5,706.5 C 735.563,696.339 735.563,686.339 734.5,676.5C 734.116,672.396 732.616,668.729 730,665.5C 726.494,662.193 722.994,659.026 719.5,656C 720.267,649.349 722.601,643.349 726.5,638C 727.5,637.333 728.5,637.333 729.5,638C 732.302,641.088 733.802,644.588 734,648.5C 732.145,650.355 730.312,652.188 728.5,654C 739.743,670.215 743.577,688.048 740,707.5C 737.507,716.653 735.674,716.32 734.5,706.5 Z"/></g>
<g><path style="opacity:1" fill="#f8f8f8" d="M 767.5,734.5 C 767.664,741.202 767.331,747.869 766.5,754.5C 764.036,764.724 760.87,774.724 757,784.5C 756.324,789.871 756.491,795.204 757.5,800.5C 766.888,795.27 773.721,787.603 778,777.5C 780.971,767.01 781.971,756.344 781,745.5C 778.642,729.072 775.809,712.739 772.5,696.5C 772.336,689.798 772.669,683.131 773.5,676.5C 779.169,664.307 788.835,657.474 802.5,656C 804.167,655.333 805.833,655.333 807.5,656C 802.817,660.201 799.817,665.368 798.5,671.5C 796.868,674.558 795.701,677.891 795,681.5C 794.5,698.497 794.333,715.497 794.5,732.5C 793.902,748.103 790.735,763.103 785,777.5C 780.866,784.772 777.032,792.105 773.5,799.5C 789.221,799.888 799.387,792.555 804,777.5C 805.938,771.838 806.771,766.005 806.5,760C 804.18,742.065 802.513,724.065 801.5,706C 799.962,685.879 809.129,674.379 829,671.5C 830.167,671.833 831.333,672.167 832.5,672.5C 819.824,682.863 814.657,696.196 817,712.5C 819.105,723.194 821.272,733.86 823.5,744.5C 824.143,752.15 824.477,759.817 824.5,767.5C 822.951,776.756 818.618,784.589 811.5,791C 797.314,800.469 781.647,805.802 764.5,807C 743.695,810.036 723.695,807.37 704.5,799C 692.918,793.086 684.418,784.253 679,772.5C 677.603,765.548 677.27,758.548 678,751.5C 680.534,739.164 683.201,726.831 686,714.5C 689.354,698.076 685.187,684.076 673.5,672.5C 685.854,672.246 694.354,677.913 699,689.5C 701.071,704.213 700.737,718.88 698,733.5C 697.333,745.833 697.333,758.167 698,770.5C 701.094,787.095 710.927,796.761 727.5,799.5C 728.833,799.167 730.167,798.833 731.5,798.5C 719.372,783.578 712.205,766.578 710,747.5C 709.667,725.167 709.333,702.833 709,680.5C 707.165,671.468 703.331,663.468 697.5,656.5C 706.265,656.694 714.599,658.861 722.5,663C 731.097,671.025 733.93,680.859 731,692.5C 728.079,706.119 725.579,719.786 723.5,733.5C 722.057,739.1 721.39,744.933 721.5,751C 721.501,754.683 721.835,758.183 722.5,761.5C 724.449,777.401 731.616,790.401 744,800.5C 746.4,795.804 747.066,790.804 746,785.5C 743.154,775.483 739.487,765.816 735,756.5C 734.333,748.5 734.333,740.5 735,732.5C 738.29,722.921 741.29,713.254 744,703.5C 744.667,695.5 744.667,687.5 744,679.5C 741.031,670.901 737.531,662.568 733.5,654.5C 739.291,648.208 745.291,642.041 751.5,636C 758.809,641.129 765.476,647.296 771.5,654.5C 760.906,669.875 756.406,686.875 758,705.5C 762.324,714.808 765.49,724.474 767.5,734.5 Z"/></g>
<g><path style="opacity:1" fill="#767371" d="M 723.5,733.5 C 722.768,742.815 722.434,752.148 722.5,761.5C 721.835,758.183 721.501,754.683 721.5,751C 721.39,744.933 722.057,739.1 723.5,733.5 Z"/></g>
<g><path style="opacity:1" fill="#ce241c" d="M 798.5,725.5 C 802.208,740.812 803.375,756.478 802,772.5C 799.871,784.628 792.871,792.295 781,795.5C 780.5,795.167 780,794.833 779.5,794.5C 792.215,773.313 798.548,750.313 798.5,725.5 Z"/></g>
<g><path style="opacity:1" fill="#767371" d="M 767.5,734.5 C 768.164,737.146 768.498,739.979 768.5,743C 768.714,747.133 768.048,750.966 766.5,754.5C 767.331,747.869 767.664,741.202 767.5,734.5 Z"/></g>
<g><path style="opacity:1" fill="#cd241c" d="M 731.5,710.5 C 732.117,710.611 732.617,710.944 733,711.5C 733.446,714.343 733.946,717.176 734.5,720C 731.269,730.616 730.102,741.449 731,752.5C 734.129,762.747 737.796,772.747 742,782.5C 742.825,786.211 742.659,789.878 741.5,793.5C 733.149,784.798 727.982,774.465 726,762.5C 724.805,744.807 726.638,727.474 731.5,710.5 Z"/></g>
<g><path style="opacity:1" fill="#ce241c" d="M 768.5,703.5 C 769.649,703.791 770.316,704.624 770.5,706C 772.666,717.156 774.832,728.322 777,739.5C 777.667,748.833 777.667,758.167 777,767.5C 774.969,778.579 769.635,787.579 761,794.5C 760.333,790.5 760.333,786.5 761,782.5C 764.917,772.003 768.251,761.336 771,750.5C 771.667,744.833 771.667,739.167 771,733.5C 769.089,727.768 767.589,721.935 766.5,716C 767.234,711.833 767.9,707.667 768.5,703.5 Z"/></g>
<g><path style="opacity:1" fill="#6c1e19" d="M 702.5,671.5 C 704.54,675.132 705.707,679.132 706,683.5C 706.823,692.01 706.657,700.344 705.5,708.5C 706.088,696.005 705.088,683.671 702.5,671.5 Z"/></g>
<g><path style="opacity:1" fill="#afadac" d="M 734.5,676.5 C 735.563,686.339 735.563,696.339 734.5,706.5C 734.036,696.679 734.036,686.679 734.5,676.5 Z"/></g>
<g><path style="opacity:1" fill="#6f6b6a" d="M 798.5,671.5 C 797.362,676.091 796.529,680.757 796,685.5C 795.831,701.339 795.331,717.005 794.5,732.5C 794.333,715.497 794.5,698.497 795,681.5C 795.701,677.891 796.868,674.558 798.5,671.5 Z"/></g>
<g><path style="opacity:1" fill="#807d7b" d="M 773.5,676.5 C 772.669,683.131 772.336,689.798 772.5,696.5C 771.836,693.854 771.502,691.021 771.5,688C 771.286,683.867 771.952,680.034 773.5,676.5 Z"/></g>
<g><path style="opacity:1" fill="#edecec" d="M 774.5,633.5 C 776.988,634.74 778.821,636.74 780,639.5C 782.216,646.012 783.216,652.679 783,659.5C 775.65,663.87 770.984,670.203 769,678.5C 769.229,690.095 767.729,701.429 764.5,712.5C 763.515,710.228 762.681,707.895 762,705.5C 760.188,693.256 761.855,681.589 767,670.5C 769.713,664.906 772.547,659.406 775.5,654C 773.286,651.291 771.286,648.458 769.5,645.5C 771.176,641.484 772.843,637.484 774.5,633.5 Z"/></g>
<g><path style="opacity:1" fill="#f6f5f5" d="M 762.5,596.5 C 758.012,595.834 753.346,595.501 748.5,595.5C 741.27,595.333 734.27,595.999 727.5,597.5C 702.904,601.131 680.571,610.297 660.5,625C 637.352,642.798 619.019,664.631 605.5,690.5C 604.277,691.614 602.944,691.781 601.5,691C 593.072,685.568 584.405,680.568 575.5,676C 574.426,675.261 573.759,674.261 573.5,673C 598.854,626.641 635.854,593.308 684.5,573C 741.172,554.734 795.172,560.734 846.5,591C 880.56,611.559 906.893,639.392 925.5,674.5C 915.367,680.646 905.201,686.646 895,692.5C 881.231,665.816 862.397,643.316 838.5,625C 815.626,609.096 790.293,599.596 762.5,596.5 Z"/></g>
<g><path style="opacity:1" fill="#e7e7e6" d="M 618.5,673.5 C 622.226,673.899 625.226,675.566 627.5,678.5C 621.5,682.833 615.5,687.167 609.5,691.5C 609.167,691.167 608.833,690.833 608.5,690.5C 611.861,684.816 615.194,679.149 618.5,673.5 Z"/></g>
<g><path style="opacity:1" fill="#2d2826" d="M 595.5,663.5 C 599.853,663.765 604.187,664.265 608.5,665C 603.287,666.888 600.62,670.721 600.5,676.5C 598.667,673.5 596.833,670.5 595,667.5C 594.421,666.072 594.588,664.738 595.5,663.5 Z"/></g>
<g><path style="opacity:1" fill="#d1d0cf" d="M 598.5,666.5 C 601.957,666.667 602.29,667.667 599.5,669.5C 598.614,668.675 598.281,667.675 598.5,666.5 Z"/></g>
<g><path style="opacity:1" fill="#3f3b39" d="M 893.5,659.5 C 896.187,659.336 898.854,659.503 901.5,660C 902.022,660.561 902.355,661.228 902.5,662C 900.633,665.565 898.633,669.065 896.5,672.5C 895.772,669.788 894.939,667.121 894,664.5C 887.11,662.79 886.943,661.123 893.5,659.5 Z"/></g>
<g><path style="opacity:1" fill="#35302e" d="M 886.5,642.5 C 887.995,642.415 888.995,643.081 889.5,644.5C 887.985,645.591 887.152,646.924 887,648.5C 888.881,651.754 891.047,652.088 893.5,649.5C 894.5,649.833 895.167,650.5 895.5,651.5C 893.149,654.425 890.315,656.758 887,658.5C 886.5,658.167 886,657.833 885.5,657.5C 889.618,654.372 889.285,651.706 884.5,649.5C 883.032,651.333 881.365,651.666 879.5,650.5C 881.907,647.769 884.241,645.102 886.5,642.5 Z"/></g>
<g><path style="opacity:1" fill="#36312e" d="M 606.5,647.5 C 611.123,647.13 614.123,649.13 615.5,653.5C 614.286,657.043 612.286,660.043 609.5,662.5C 606.158,660.673 603.492,658.173 601.5,655C 603.295,652.574 604.962,650.074 606.5,647.5 Z"/></g>
<g><path style="opacity:1" fill="#edecec" d="M 607.5,650.5 C 612.982,651.764 613.815,654.431 610,658.5C 604.071,657.031 603.238,654.364 607.5,650.5 Z"/></g>
<g><path style="opacity:1" fill="#2e2927" d="M 617.5,633.5 C 621.08,635.408 624.08,638.074 626.5,641.5C 624.635,642.666 622.968,642.333 621.5,640.5C 620.186,641.313 619.019,642.313 618,643.5C 618.763,645.391 619.597,647.391 620.5,649.5C 616.488,648.33 613.488,645.83 611.5,642C 611.833,641.5 612.167,641 612.5,640.5C 615.137,643.416 617.303,643.083 619,639.5C 618.405,637.65 617.905,635.65 617.5,633.5 Z"/></g>
<g><path style="opacity:1" fill="#34302e" d="M 875.5,630.5 C 878.355,631.834 880.855,633.834 883,636.5C 884.258,642.868 881.758,645.702 875.5,645C 873.316,642.984 871.316,640.817 869.5,638.5C 871.934,636.079 873.934,633.412 875.5,630.5 Z"/></g>
<g><path style="opacity:1" fill="#ececec" d="M 876.5,634.5 C 879.955,635.128 881.122,637.128 880,640.5C 877.099,643.318 874.599,642.984 872.5,639.5C 873.857,637.814 875.19,636.148 876.5,634.5 Z"/></g>
<g><path style="opacity:1" fill="#342f2d" d="M 622.5,628.5 C 625.435,631.093 628.435,633.76 631.5,636.5C 630.965,638.101 629.965,638.601 628.5,638C 626.333,635.833 624.167,633.667 622,631.5C 621.53,630.423 621.697,629.423 622.5,628.5 Z"/></g>
<g><path style="opacity:1" fill="#312d2a" d="M 632.5,618.5 C 633.376,618.369 634.043,618.702 634.5,619.5C 633.833,620.5 633.167,621.5 632.5,622.5C 634.555,624.555 636.221,626.888 637.5,629.5C 637.192,630.308 636.692,630.975 636,631.5C 633.81,629.612 631.977,627.445 630.5,625C 629.004,624.493 627.837,624.993 627,626.5C 626.833,626.167 626.667,625.833 626.5,625.5C 628.523,623.147 630.523,620.814 632.5,618.5 Z"/></g>
<g><path style="opacity:1" fill="#342f2d" d="M 860.5,620.5 C 868.01,619.852 871.843,623.186 872,630.5C 868.075,634.41 864.075,634.41 860,630.5C 857.872,626.975 858.039,623.642 860.5,620.5 Z"/></g>
<g><path style="opacity:1" fill="#e8e7e7" d="M 863.5,622.5 C 869.293,623.421 870.626,626.255 867.5,631C 862.504,631.664 860.67,629.498 862,624.5C 862.717,623.956 863.217,623.289 863.5,622.5 Z"/></g>
<g><path style="opacity:1" fill="#312c29" d="M 851.5,609.5 C 853.308,610.918 853.975,612.918 853.5,615.5C 855.401,615.567 857.234,615.233 859,614.5C 860.28,614.613 861.113,615.28 861.5,616.5C 859.234,617.314 856.9,617.814 854.5,618C 853.047,620.705 851.047,621.539 848.5,620.5C 851.192,617.387 852.192,613.721 851.5,609.5 Z"/></g>
<g><path style="opacity:1" fill="#2b2724" d="M 643.5,609.5 C 645.22,611.658 646.053,614.325 646,617.5C 648.168,618.629 648.668,620.129 647.5,622C 645.813,621.807 644.479,620.807 643.5,619C 632.89,616.548 632.89,615.715 643.5,616.5C 643.5,614.167 643.5,611.833 643.5,609.5 Z"/></g>
<g><path style="opacity:1" fill="#393431" d="M 836.5,599.5 C 837.583,599.539 838.583,599.873 839.5,600.5C 840.833,605.167 840.833,609.833 839.5,614.5C 838.209,612.104 836.542,609.937 834.5,608C 832.765,607.349 831.098,607.515 829.5,608.5C 828.5,608.167 827.833,607.5 827.5,606.5C 830.75,604.388 833.75,602.055 836.5,599.5 Z"/></g>
<g><path style="opacity:1" fill="#3b3634" d="M 651.5,603.5 C 655.69,605 659.69,607 663.5,609.5C 662.462,611.764 660.962,612.098 659,610.5C 655.307,611.427 653.14,613.761 652.5,617.5C 651.121,612.797 650.788,608.13 651.5,603.5 Z"/></g>
<g><path style="opacity:1" fill="#cccbca" d="M 835.5,603.5 C 837.048,603.821 837.715,604.821 837.5,606.5C 834.752,606.598 834.086,605.598 835.5,603.5 Z"/></g>
<g><path style="opacity:1" fill="#312d2b" d="M 820.5,590.5 C 821.496,590.414 822.329,590.748 823,591.5C 823.333,594.5 823.667,597.5 824,600.5C 825.5,599 827,597.5 828.5,596C 829.944,595.219 831.277,595.386 832.5,596.5C 829.468,599.368 826.302,602.035 823,604.5C 822.228,604.355 821.561,604.022 821,603.5C 820.501,599.179 820.334,594.846 820.5,590.5 Z"/></g>
<g><path style="opacity:1" fill="#332f2c" d="M 673.5,590.5 C 674.239,590.369 674.906,590.536 675.5,591C 674.424,592.726 674.257,594.559 675,596.5C 677.185,597.67 679.351,598.836 681.5,600C 678.23,601.942 675.23,601.442 672.5,598.5C 671.833,600.833 671.167,603.167 670.5,605.5C 668.563,602.624 666.896,599.624 665.5,596.5C 665.833,595.833 666.167,595.167 666.5,594.5C 667.719,595.263 668.719,596.263 669.5,597.5C 670.588,594.986 671.922,592.652 673.5,590.5 Z"/></g>
<g><path style="opacity:1" fill="#797674" d="M 762.5,596.5 C 750.815,596.365 739.148,596.698 727.5,597.5C 734.27,595.999 741.27,595.333 748.5,595.5C 753.346,595.501 758.012,595.834 762.5,596.5 Z"/></g>
<g><path style="opacity:1" fill="#37322f" d="M 807.5,585.5 C 811.248,586.538 814.915,587.871 818.5,589.5C 816.955,590.452 815.288,590.785 813.5,590.5C 813.306,593.33 812.639,595.996 811.5,598.5C 810.5,598.5 809.5,598.5 808.5,598.5C 809.207,594.752 810.207,591.086 811.5,587.5C 809.517,587.843 808.183,587.176 807.5,585.5 Z"/></g>
<g><path style="opacity:1" fill="#3b3633" d="M 684.5,585.5 C 685.552,585.351 686.552,585.517 687.5,586C 690.042,588.711 692.709,591.211 695.5,593.5C 692.262,593.324 688.928,593.657 685.5,594.5C 685.884,596.665 685.217,598.332 683.5,599.5C 681.988,594.562 682.321,589.896 684.5,585.5 Z"/></g>
<g><path style="opacity:1" fill="#d6d5d5" d="M 685.5,589.5 C 688.861,590.203 689.194,591.537 686.5,593.5C 685.571,592.311 685.238,590.978 685.5,589.5 Z"/></g>
<g><path style="opacity:1" fill="#383431" d="M 798.5,582.5 C 799.833,582.5 801.167,582.5 802.5,582.5C 803.007,586.86 803.673,591.193 804.5,595.5C 803.5,595.5 802.5,595.5 801.5,595.5C 801.321,592.23 799.488,590.563 796,590.5C 794.739,590.759 793.739,591.426 793,592.5C 792.308,591.975 791.808,591.308 791.5,590.5C 793.856,587.814 796.189,585.147 798.5,582.5 Z"/></g>
<g><path style="opacity:1" fill="#3d3836" d="M 700.5,579.5 C 707.19,578.331 708.857,580.497 705.5,586C 707.305,586.972 708.972,588.139 710.5,589.5C 709.833,589.833 709.167,590.167 708.5,590.5C 706.313,589.242 703.98,588.242 701.5,587.5C 700.833,587.833 700.167,588.167 699.5,588.5C 700.246,589.736 700.579,591.07 700.5,592.5C 699.5,592.5 698.5,592.5 697.5,592.5C 697.538,589.193 696.872,586.026 695.5,583C 696.921,581.377 698.588,580.21 700.5,579.5 Z"/></g>
<g><path style="opacity:1" fill="#322d2b" d="M 718.5,575.5 C 719.675,575.281 720.675,575.614 721.5,576.5C 718.885,580.04 717.885,584.04 718.5,588.5C 717.5,588.5 716.5,588.5 715.5,588.5C 715.66,586.801 715.494,585.134 715,583.5C 712.842,582.174 711.008,580.507 709.5,578.5C 710,578.167 710.5,577.833 711,577.5C 712.626,578.289 714.126,579.289 715.5,580.5C 717.262,579.312 718.262,577.645 718.5,575.5 Z"/></g>
<g><path style="opacity:1" fill="#3c3835" d="M 778.5,577.5 C 779.5,577.5 780.5,577.5 781.5,577.5C 781.5,579.167 781.5,580.833 781.5,582.5C 783.5,582.5 785.5,582.5 787.5,582.5C 787.5,581.167 787.5,579.833 787.5,578.5C 789.948,578.085 791.281,579.085 791.5,581.5C 790.414,584.42 789.748,587.42 789.5,590.5C 788.5,590.5 787.5,590.5 786.5,590.5C 786.5,588.5 786.5,586.5 786.5,584.5C 784.5,584.5 782.5,584.5 780.5,584.5C 780.5,585.833 780.5,587.167 780.5,588.5C 779.5,588.5 778.5,588.5 777.5,588.5C 778.244,584.881 778.577,581.215 778.5,577.5 Z"/></g>
<g><path style="opacity:1" fill="#dbdad9" d="M 701.5,581.5 C 702.5,581.5 703.5,581.5 704.5,581.5C 704.5,582.5 704.5,583.5 704.5,584.5C 702.5,584.833 700.5,585.167 698.5,585.5C 698.5,584.5 698.5,583.5 698.5,582.5C 699.791,582.737 700.791,582.404 701.5,581.5 Z"/></g>
<g><path style="opacity:1" fill="#332f2c" d="M 767.5,574.5 C 768.822,574.33 769.989,574.663 771,575.5C 772.045,579.344 773.545,583.01 775.5,586.5C 774.311,587.429 772.978,587.762 771.5,587.5C 771.845,584.512 770.512,583.179 767.5,583.5C 765.306,583.954 763.473,584.954 762,586.5C 761.5,586.167 761,585.833 760.5,585.5C 763.094,581.974 765.427,578.308 767.5,574.5 Z"/></g>
<g><path style="opacity:1" fill="#adabaa" d="M 767.5,578.5 C 769.121,578.787 770.121,579.787 770.5,581.5C 769.167,582.833 767.833,582.833 766.5,581.5C 767.127,580.583 767.461,579.583 767.5,578.5 Z"/></g>
<g><path style="opacity:1" fill="#302c29" d="M 754.5,574.5 C 755.833,574.5 757.167,574.5 758.5,574.5C 758.5,578.167 758.5,581.833 758.5,585.5C 756.938,583.628 755.938,581.295 755.5,578.5C 754.365,580.707 753.699,583.04 753.5,585.5C 752.167,585.5 750.833,585.5 749.5,585.5C 748.37,576.365 747.703,576.365 747.5,585.5C 746.5,585.5 745.5,585.5 744.5,585.5C 744.5,581.5 744.5,577.5 744.5,573.5C 746.167,573.5 747.833,573.5 749.5,573.5C 750.59,581.993 752.256,582.326 754.5,574.5 Z"/></g>
<g><path style="opacity:1" fill="#373330" d="M 726.5,574.5 C 727.873,574.343 729.207,574.51 730.5,575C 733.093,577.766 735.093,580.933 736.5,584.5C 736,584.833 735.5,585.167 735,585.5C 732.405,583.854 729.572,583.187 726.5,583.5C 726.5,584.5 726.5,585.5 726.5,586.5C 725.5,586.5 724.5,586.5 723.5,586.5C 724.5,582.5 725.5,578.5 726.5,574.5 Z"/></g>
<g><path style="opacity:1" fill="#73706e" d="M 754.5,574.5 C 755.919,573.549 757.585,573.216 759.5,573.5C 759.817,577.702 759.483,581.702 758.5,585.5C 758.5,581.833 758.5,578.167 758.5,574.5C 757.167,574.5 755.833,574.5 754.5,574.5 Z"/></g>
<g><path style="opacity:1" fill="#6f1e18" d="M 758.5,560.5 C 746.15,560.382 733.817,560.715 721.5,561.5C 728.605,559.988 735.938,559.321 743.5,559.5C 748.678,559.501 753.678,559.834 758.5,560.5 Z"/></g>
<g><path style="opacity:1" fill="#89820f" d="M 773.5,541.5 C 778.536,541.588 783.536,542.088 788.5,543C 789.416,543.278 790.082,543.778 790.5,544.5C 784.651,543.804 778.984,542.804 773.5,541.5 Z"/></g>
<g><path style="opacity:1" fill="#6e6712" d="M 508.5,873.5 C 510.072,876.215 511.072,879.215 511.5,882.5C 509.528,879.916 508.528,876.916 508.5,873.5 Z"/></g>
<g><path style="opacity:1" fill="#362824" d="M 777.5,949.5 C 764.228,951.139 750.895,951.805 737.5,951.5C 694.927,949.489 658.093,934.155 627,905.5C 623.097,898.507 622.597,891.34 625.5,884C 616.325,877.913 607.325,871.579 598.5,865C 590.328,857.821 584.828,848.987 582,838.5C 580.622,824.897 577.955,811.563 574,798.5C 571.411,793.881 567.577,792.047 562.5,793C 562,793.5 561.5,794 561,794.5C 560.827,799.584 560.161,804.584 559,809.5C 557.612,810.554 556.112,810.72 554.5,810C 547.057,800.104 548.057,791.104 557.5,783C 564.887,779.339 571.887,780.006 578.5,785C 583.083,788.912 586.917,793.412 590,798.5C 593.21,808.344 596.877,818.01 601,827.5C 610.86,840.006 623.027,849.506 637.5,856C 650.275,859.147 662.608,863.48 674.5,869C 683.405,877.168 683.739,885.668 675.5,894.5C 675.977,895.478 676.643,896.311 677.5,897C 714.719,915.272 753.386,918.605 793.5,907C 803.291,903.353 812.625,898.853 821.5,893.5C 812.938,883.953 813.605,875.119 823.5,867C 834.361,861.781 845.694,857.781 857.5,855C 869.267,849.699 879.767,842.532 889,833.5C 893.375,827.403 897.208,821.07 900.5,814.5C 902.402,799.527 909.736,788.027 922.5,780C 932.793,778.396 940.293,782.23 945,791.5C 946.588,798.162 945.088,803.995 940.5,809C 939.167,809.667 937.833,809.667 936.5,809C 935.032,803.601 933.865,798.101 933,792.5C 929.76,790.964 926.76,791.297 924,793.5C 921.196,797.443 919.196,801.777 918,806.5C 916.594,816.157 915.26,825.824 914,835.5C 911.529,847.64 905.362,857.474 895.5,865C 886.929,871.536 878.095,877.703 869,883.5C 870.432,890.01 870.766,896.676 870,903.5C 844.21,928.747 813.376,944.08 777.5,949.5 Z"/></g>
<g><path style="opacity:1" fill="#f3f2f2" d="M 721.5,914.5 C 728.772,916.017 736.272,916.684 744,916.5C 749.344,916.499 754.511,916.166 759.5,915.5C 793.948,913.438 823.281,900.271 847.5,876C 864.114,876.987 870.614,885.821 867,902.5C 832.847,934.02 792.347,949.687 745.5,949.5C 704.29,948.545 667.623,935.379 635.5,910C 626.441,903.553 623.941,895.053 628,884.5C 631.96,877.772 637.793,874.605 645.5,875C 666.204,896.854 691.538,910.021 721.5,914.5 Z"/></g>
<g><path style="opacity:1" fill="#2b2624" d="M 827.5,901.5 C 829.017,901.511 830.184,902.177 831,903.5C 833.167,907.167 835.333,910.833 837.5,914.5C 836.562,915.553 835.395,916.22 834,916.5C 830.24,915.852 826.74,914.518 823.5,912.5C 823.167,912.833 822.833,913.167 822.5,913.5C 824.412,915.657 826.079,917.991 827.5,920.5C 827.167,921.5 826.5,922.167 825.5,922.5C 822.143,918.465 819.143,914.132 816.5,909.5C 817.328,908.585 818.328,907.919 819.5,907.5C 823.506,908.792 827.339,910.458 831,912.5C 830.303,909.246 828.803,906.246 826.5,903.5C 826.863,902.817 827.196,902.15 827.5,901.5 Z"/></g>
<g><path style="opacity:1" fill="#2b2724" d="M 664.5,903.5 C 665.822,903.33 666.989,903.663 668,904.5C 668.965,910.657 668.465,916.657 666.5,922.5C 665.264,919.769 663.597,917.269 661.5,915C 658.118,914.364 654.785,913.697 651.5,913C 655.901,909.812 660.234,906.645 664.5,903.5 Z"/></g>
<g><path style="opacity:1" fill="#cac9c8" d="M 664.5,907.5 C 665.793,909.364 665.793,911.364 664.5,913.5C 659.541,911.734 659.541,909.734 664.5,907.5 Z"/></g>
<g><path style="opacity:1" fill="#2c2725" d="M 835.5,894.5 C 841.824,895.775 847.824,897.941 853.5,901C 851.038,902.216 848.371,902.882 845.5,903C 842.424,904.663 841.424,906.996 842.5,910C 842.07,911.434 841.236,912.601 840,913.5C 838.292,907.963 836.459,902.463 834.5,897C 834.743,896.098 835.077,895.265 835.5,894.5 Z"/></g>
<g><path style="opacity:1" fill="#d2d1d0" d="M 838.5,898.5 C 840.842,898.504 842.842,899.337 844.5,901C 841.071,904.464 839.071,903.63 838.5,898.5 Z"/></g>
<g><path style="opacity:1" fill="#2b2724" d="M 647.5,889.5 C 649.346,889.222 650.68,889.889 651.5,891.5C 650.352,893.149 649.019,894.649 647.5,896C 651.167,896.333 654.833,896.667 658.5,897C 659.5,898 660.5,899 661.5,900C 658.183,900.498 654.85,900.665 651.5,900.5C 651.823,904.226 651.489,907.893 650.5,911.5C 648.616,910.885 647.616,909.552 647.5,907.5C 648.095,904.86 648.428,902.193 648.5,899.5C 645.487,899.372 642.987,900.372 641,902.5C 639.72,902.387 638.887,901.72 638.5,900.5C 641.902,897.105 644.902,893.438 647.5,889.5 Z"/></g>
<g><path style="opacity:1" fill="#ecebeb" d="M 648.5,873.5 C 653.725,873.297 658.392,874.797 662.5,878C 667.16,881.996 672.16,885.496 677.5,888.5C 676.533,892.323 674.199,893.823 670.5,893C 662.01,887.669 654.676,881.169 648.5,873.5 Z"/></g>
<g><path style="opacity:1" fill="#eaeae9" d="M 842.5,872.5 C 843.978,872.238 845.311,872.571 846.5,873.5C 839.971,880.196 832.971,886.363 825.5,892C 824.216,892.684 823.049,892.517 822,891.5C 821.028,889.695 819.861,888.028 818.5,886.5C 820.078,885.702 821.744,885.202 823.5,885C 829.292,879.787 835.625,875.62 842.5,872.5 Z"/></g>
<g><path style="opacity:1" fill="#312420" d="M 830.5,822.5 C 828.696,821.838 826.696,821.505 824.5,821.5C 821.186,821.343 818.186,822.009 815.5,823.5C 810.316,825.26 805.983,828.26 802.5,832.5C 811.841,832.122 821.174,832.622 830.5,834C 843.273,838.082 844.606,844.416 834.5,853C 827.897,859.387 820.064,862.887 811,863.5C 806.875,863.729 803.042,862.896 799.5,861C 791.977,855.136 784.81,848.969 778,842.5C 776.056,843.439 774.389,844.773 773,846.5C 771.138,850.419 769.471,854.419 768,858.5C 757.617,849.837 747.117,849.504 736.5,857.5C 734.963,853.421 733.129,849.421 731,845.5C 729.136,842.793 726.636,841.959 723.5,843C 718.448,847.783 714.115,853.117 710.5,859C 696.434,865.882 683.101,864.549 670.5,855C 668,852.5 665.5,850 663,847.5C 661.357,842.572 662.857,839.072 667.5,837C 669.5,836.333 671.5,835.667 673.5,835C 682.45,833.82 691.45,833.153 700.5,833C 692.555,823.685 682.555,820.352 670.5,823C 663.135,825.436 655.968,828.269 649,831.5C 634.324,827.342 621.991,819.676 612,808.5C 607.456,799.979 608.956,792.812 616.5,787C 627.869,780.074 639.869,778.741 652.5,783C 674.076,797.454 697.409,808.12 722.5,815C 762.172,822.766 799.172,816.099 833.5,795C 839.918,790.242 846.584,785.909 853.5,782C 869.705,778.763 883.539,782.929 895,794.5C 895.667,797.833 895.667,801.167 895,804.5C 893.224,807.941 891.057,811.108 888.5,814C 878.571,821.132 867.904,826.965 856.5,831.5C 848.226,827.298 839.559,824.298 830.5,822.5 Z"/></g>
<g><path style="opacity:1" fill="#9c9998" d="M 683.5,858.5 C 689.346,860.155 695.346,860.822 701.5,860.5C 697.354,861.647 693.02,861.814 688.5,861C 686.509,860.626 684.842,859.793 683.5,858.5 Z"/></g>
<g><path style="opacity:1" fill="#605c5a" d="M 704.5,834.5 C 705.043,834.56 705.376,834.893 705.5,835.5C 694.456,836.168 683.456,837.168 672.5,838.5C 674.877,837.113 677.543,836.279 680.5,836C 688.677,835.829 696.677,835.329 704.5,834.5 Z"/></g>
<g><path style="opacity:1" fill="#fafafa" d="M 701.5,860.5 C 695.346,860.822 689.346,860.155 683.5,858.5C 677.377,856.214 671.877,852.881 667,848.5C 663.843,842.497 665.677,839.164 672.5,838.5C 683.456,837.168 694.456,836.168 705.5,835.5C 705.376,834.893 705.043,834.56 704.5,834.5C 699.649,826.727 692.649,821.894 683.5,820C 677.796,819.47 672.129,819.803 666.5,821C 660.35,823.245 654.35,825.745 648.5,828.5C 638.947,825.057 629.947,820.557 621.5,815C 615.128,810.342 611.961,804.175 612,796.5C 616.63,789.434 623.13,785.267 631.5,784C 637.882,783.311 644.215,783.645 650.5,785C 668.915,797.04 688.582,806.707 709.5,814C 753.194,826.996 794.528,821.663 833.5,798C 840.951,792.278 848.951,787.612 857.5,784C 870.072,782.528 881.238,785.694 891,793.5C 894.333,797.833 894.333,802.167 891,806.5C 889.207,809.295 887.04,811.795 884.5,814C 876.607,819.114 868.274,823.447 859.5,827C 854,827.762 849,826.428 844.5,823C 835.687,820.169 826.687,819.169 817.5,820C 810.532,821.569 804.699,825.069 800,830.5C 798.126,832.569 797.126,834.902 797,837.5C 807.387,835.672 817.887,835.172 828.5,836C 831.244,836.803 833.911,837.803 836.5,839C 838.187,840.913 838.687,843.08 838,845.5C 831.95,852.216 824.784,857.383 816.5,861C 809.709,861.961 803.376,860.628 797.5,857C 792.135,851.301 786.469,845.967 780.5,841C 778.5,840.333 776.5,840.333 774.5,841C 771.026,844.797 768.193,848.964 766,853.5C 757.809,849.422 749.309,848.589 740.5,851C 739.646,852.022 738.646,852.855 737.5,853.5C 735.952,846.8 732.119,842.133 726,839.5C 724.373,839.625 722.873,840.125 721.5,841C 716.356,846.298 711.689,851.965 707.5,858C 705.372,858.655 703.372,859.489 701.5,860.5 Z"/></g>
<g><path style="opacity:1" fill="#7f1f19" d="M 830.5,822.5 C 825.463,822.413 820.463,822.746 815.5,823.5C 818.186,822.009 821.186,821.343 824.5,821.5C 826.696,821.505 828.696,821.838 830.5,822.5 Z"/></g>
<g><path style="opacity:1" fill="#a0221a" d="M 777.5,808.5 C 766.718,812.192 755.718,813.192 744.5,811.5C 755.599,811.533 766.599,810.533 777.5,808.5 Z"/></g>
<g><path style="opacity:1" fill="#f8f8f8" d="M 561.5,782.5 C 570.355,781.512 577.522,784.512 583,791.5C 589.434,799.372 593.434,808.372 595,818.5C 598.924,828.416 605.091,836.583 613.5,843C 619.313,848.075 625.646,852.408 632.5,856C 645.731,859.838 658.731,864.172 671.5,869C 677.981,872.621 680.315,877.954 678.5,885C 677.167,885.667 675.833,885.667 674.5,885C 669.111,880.611 663.444,876.611 657.5,873C 649.785,872.238 642.119,872.571 634.5,874C 631.349,876.151 628.516,878.651 626,881.5C 611.601,874.106 599.267,864.106 589,851.5C 587.059,847.952 585.393,844.286 584,840.5C 582.667,831.17 581.334,821.836 580,812.5C 578.993,806.478 576.993,800.811 574,795.5C 569.141,789.575 564.141,789.241 559,794.5C 558.501,799.155 558.334,803.821 558.5,808.5C 556.019,808.677 554.186,807.677 553,805.5C 548.753,795.034 551.586,787.367 561.5,782.5 Z"/></g>
<g><path style="opacity:1" fill="#f8f8f8" d="M 900.5,814.5 C 902.949,805.932 906.782,797.932 912,790.5C 920.821,779.815 930.488,778.815 941,787.5C 944.696,794.369 944.196,800.869 939.5,807C 938.552,807.483 937.552,807.649 936.5,807.5C 936.666,802.821 936.499,798.155 936,793.5C 930.694,788.021 925.694,788.355 921,794.5C 919.107,797.618 917.774,800.951 917,804.5C 914.836,816.477 912.836,828.477 911,840.5C 908.155,849.011 903.321,856.178 896.5,862C 887.591,869.371 878.091,875.871 868,881.5C 861.513,875.84 854.013,872.174 845.5,870.5C 842.362,870.868 839.362,871.701 836.5,873C 831.266,877.238 825.766,881.071 820,884.5C 819.228,884.355 818.561,884.022 818,883.5C 816.959,875.1 820.459,869.266 828.5,866C 840.473,862.009 852.473,858.009 864.5,854C 879.23,846.604 890.73,835.771 899,821.5C 899.977,819.26 900.477,816.927 900.5,814.5 Z"/></g>
<g><path style="opacity:1" fill="#676361" d="M 721.5,914.5 C 734.149,915.322 746.815,915.655 759.5,915.5C 754.511,916.166 749.344,916.499 744,916.5C 736.272,916.684 728.772,916.017 721.5,914.5 Z"/></g>
<g><path style="opacity:1" fill="#282421" d="M 674.5,910.5 C 679.559,911.28 684.059,913.28 688,916.5C 688.698,920.651 686.865,922.984 682.5,923.5C 683.577,925.729 684.244,928.063 684.5,930.5C 683.178,930.67 682.011,930.337 681,929.5C 680.941,926.178 679.774,923.344 677.5,921C 674.507,920.743 673.174,922.243 673.5,925.5C 671.365,925.853 670.032,925.02 669.5,923C 671.595,918.981 673.261,914.814 674.5,910.5 Z"/></g>
<g><path style="opacity:1" fill="#e0dfde" d="M 677.5,914.5 C 679.564,914.687 681.564,915.187 683.5,916C 684.337,917.011 684.67,918.178 684.5,919.5C 681.794,919.425 679.127,919.092 676.5,918.5C 676.433,917.041 676.766,915.708 677.5,914.5 Z"/></g>
<g><path style="opacity:1" fill="#2a2523" d="M 789.5,919.5 C 792.518,919.335 795.518,919.502 798.5,920C 801.318,922.901 800.984,925.401 797.5,927.5C 799.54,929.177 801.54,930.844 803.5,932.5C 802.833,932.833 802.167,933.167 801.5,933.5C 798.146,931.324 794.479,929.99 790.5,929.5C 791.092,932.127 791.425,934.794 791.5,937.5C 790.167,937.5 788.833,937.5 787.5,937.5C 786.977,932.408 785.977,927.408 784.5,922.5C 785.947,921.065 787.614,920.065 789.5,919.5 Z"/></g>
<g><path style="opacity:1" fill="#e2e1e1" d="M 792.5,921.5 C 795.5,921.167 796.833,922.5 796.5,925.5C 794.063,925.756 791.729,926.423 789.5,927.5C 788.548,925.955 788.215,924.288 788.5,922.5C 790.099,922.768 791.432,922.434 792.5,921.5 Z"/></g>
<g><path style="opacity:1" fill="#2f2a27" d="M 771.5,924.5 C 773.199,924.34 774.866,924.506 776.5,925C 779.377,929.255 782.377,933.422 785.5,937.5C 783.693,938.799 782.027,938.632 780.5,937C 777.833,936.333 775.167,936.333 772.5,937C 771.62,938.356 771.286,939.856 771.5,941.5C 770.167,941.5 768.833,941.5 767.5,941.5C 768.675,935.799 770.009,930.132 771.5,924.5 Z"/></g>
<g><path style="opacity:1" fill="#2c2725" d="M 812.5,910.5 C 813.496,910.414 814.329,910.748 815,911.5C 815.725,913.949 816.725,916.283 818,918.5C 819.371,925.317 816.537,929.317 809.5,930.5C 807.617,930.124 806.117,929.124 805,927.5C 803.403,924.209 801.903,920.875 800.5,917.5C 801.035,915.899 802.035,915.399 803.5,916C 805.248,919.499 807.248,922.832 809.5,926C 812.581,926.628 814.581,925.461 815.5,922.5C 814.307,919.281 812.974,916.114 811.5,913C 811.743,912.098 812.077,911.265 812.5,910.5 Z"/></g>
<g><path style="opacity:1" fill="#3a3533" d="M 754.5,925.5 C 758.833,925.5 763.167,925.5 767.5,925.5C 767.5,926.5 767.5,927.5 767.5,928.5C 765.833,928.5 764.167,928.5 762.5,928.5C 762.54,933.193 762.873,937.859 763.5,942.5C 761.833,942.5 760.167,942.5 758.5,942.5C 758.5,938.167 758.5,933.833 758.5,929.5C 756.5,929.5 754.5,929.5 752.5,929.5C 752.527,927.801 753.194,926.467 754.5,925.5 Z"/></g>
<g><path style="opacity:1" fill="#302c29" d="M 697.5,919.5 C 699.467,919.261 701.301,919.594 703,920.5C 703.904,926.135 704.404,931.802 704.5,937.5C 703.167,937.5 701.833,937.5 700.5,937.5C 700.859,935.234 700.192,933.401 698.5,932C 696.782,931.654 695.115,931.154 693.5,930.5C 691.724,932.447 689.724,932.78 687.5,931.5C 690.48,927.189 693.813,923.189 697.5,919.5 Z"/></g>
<g><path style="opacity:1" fill="#dedddd" d="M 697.5,924.5 C 698.649,924.791 699.316,925.624 699.5,927C 698.83,929.897 697.497,930.064 695.5,927.5C 696.193,926.482 696.859,925.482 697.5,924.5 Z"/></g>
<g><path style="opacity:1" fill="#e2e2e1" d="M 773.5,928.5 C 775.257,929.292 776.591,930.625 777.5,932.5C 776.311,933.429 774.978,933.762 773.5,933.5C 773.5,931.833 773.5,930.167 773.5,928.5 Z"/></g>
<g><path style="opacity:1" fill="#2e2927" d="M 709.5,922.5 C 711.144,922.286 712.644,922.62 714,923.5C 715.139,927.112 716.806,930.446 719,933.5C 720.136,930.904 720.969,928.237 721.5,925.5C 722.5,925.5 723.5,925.5 724.5,925.5C 723.444,930.781 722.777,936.114 722.5,941.5C 720.61,941.703 719.11,941.037 718,939.5C 715.957,936.288 714.123,932.955 712.5,929.5C 711.322,932.391 710.655,935.391 710.5,938.5C 709.5,938.5 708.5,938.5 707.5,938.5C 708.296,933.184 708.963,927.851 709.5,922.5 Z"/></g>
<g><path style="opacity:1" fill="#282321" d="M 732.5,925.5 C 737.839,924.911 741.506,926.911 743.5,931.5C 740.657,930.995 737.99,929.995 735.5,928.5C 730.747,929.643 729.247,932.643 731,937.5C 731.374,938.416 731.874,939.25 732.5,940C 735.192,940.43 737.859,940.263 740.5,939.5C 740.5,938.5 740.5,937.5 740.5,936.5C 739.022,936.762 737.689,936.429 736.5,935.5C 738.743,934.526 741.076,934.192 743.5,934.5C 743.768,937.119 743.435,939.619 742.5,942C 738.5,942.667 734.5,942.667 730.5,942C 724.725,935.701 725.392,930.201 732.5,925.5 Z"/></g>
<g><path style="opacity:1" fill="#96201a" d="M 777.5,949.5 C 777.082,950.222 776.416,950.722 775.5,951C 762.69,952.604 750.024,952.771 737.5,951.5C 750.895,951.805 764.228,951.139 777.5,949.5 Z"/></g>
<g><path style="opacity:1" fill="#676111" d="M 693.5,964.5 C 696.152,964.41 698.485,965.076 700.5,966.5C 697.848,966.59 695.515,965.924 693.5,964.5 Z"/></g>
<g><path style="opacity:1" fill="#524c14" d="M 712.5,968.5 C 719.098,968.625 725.431,969.625 731.5,971.5C 724.889,971.453 718.556,970.453 712.5,968.5 Z"/></g>
<g><path style="opacity:1" fill="#726b10" d="M 567.5,977.5 C 568.924,979.515 569.59,981.848 569.5,984.5C 568.076,982.485 567.41,980.152 567.5,977.5 Z"/></g>
<g><path style="opacity:1" fill="#6f6810" d="M 938.5,983.5 C 938.5,988.167 938.5,992.833 938.5,997.5C 935.215,997.072 932.215,996.072 929.5,994.5C 932.199,994.466 934.699,995.133 937,996.5C 937.175,991.981 937.675,987.647 938.5,983.5 Z"/></g>
<g><path style="opacity:1" fill="#afa70c" d="M 906.5,993.5 C 913.321,992.345 920.321,992.179 927.5,993C 928.056,993.383 928.389,993.883 928.5,994.5C 921.201,993.65 913.868,993.317 906.5,993.5 Z"/></g>
<g><path style="opacity:1" fill="#79710f" d="M 580.5,995.5 C 578.485,996.924 576.152,997.59 573.5,997.5C 575.515,996.076 577.848,995.41 580.5,995.5 Z"/></g>
<g><path style="opacity:1" fill="#b1afae" d="M 928.5,997.5 C 918.179,996.306 907.845,996.306 897.5,997.5C 902.569,995.943 907.902,995.276 913.5,995.5C 917.5,995.667 921.5,995.833 925.5,996C 926.737,996.232 927.737,996.732 928.5,997.5 Z"/></g>
<g><path style="opacity:1" fill="#b3b1b0" d="M 678.5,1033.5 C 687.815,1034.23 697.148,1034.57 706.5,1034.5C 702.849,1035.17 699.015,1035.5 695,1035.5C 689.248,1035.69 683.748,1035.02 678.5,1033.5 Z"/></g>
<g><path style="opacity:1" fill="#fcfcfd" d="M 520.5,1056.5 C 542.038,1066.6 563.038,1077.77 583.5,1090C 595.101,1101.15 596.601,1113.65 588,1127.5C 582.764,1137.2 574.597,1141.87 563.5,1141.5C 562.76,1152.17 562.26,1162.84 562,1173.5C 564.682,1176.35 567.516,1179.02 570.5,1181.5C 568.34,1186.49 565.673,1191.16 562.5,1195.5C 553.326,1193 545.492,1188.33 539,1181.5C 536.613,1177.67 535.446,1173.51 535.5,1169C 537.121,1158.87 537.954,1148.71 538,1138.5C 537.215,1136.71 536.049,1135.21 534.5,1134C 530.323,1131.82 526.157,1129.65 522,1127.5C 518.76,1132.31 515.76,1137.31 513,1142.5C 511.503,1147.17 513.003,1150.5 517.5,1152.5C 514.906,1157.36 512.073,1162.03 509,1166.5C 496.611,1160.39 484.444,1153.89 472.5,1147C 474.967,1141.89 477.8,1137.06 481,1132.5C 485.028,1135.49 488.361,1134.83 491,1130.5C 500,1113.17 509,1095.83 518,1078.5C 518.667,1077.17 518.667,1075.83 518,1074.5C 516.478,1072.98 514.978,1071.48 513.5,1070C 515.456,1065.25 517.789,1060.75 520.5,1056.5 Z"/></g>
<g><path style="opacity:1" fill="#fcfcfd" d="M 938.5,1085.5 C 943.511,1085.33 948.511,1085.5 953.5,1086C 956.357,1092.23 959.024,1098.57 961.5,1105C 957.125,1108.25 952.291,1110.75 947,1112.5C 940.661,1105.5 933.494,1104.67 925.5,1110C 922.567,1112.26 920.4,1115.1 919,1118.5C 918.357,1124.63 919.024,1130.63 921,1136.5C 932.427,1123.87 946.593,1118.71 963.5,1121C 978.533,1129.04 986.199,1141.71 986.5,1159C 986.523,1168.95 982.523,1176.95 974.5,1183C 964.735,1189.38 954.068,1193.22 942.5,1194.5C 928.898,1193.41 918.398,1187.08 911,1175.5C 901.295,1160.72 895.795,1144.55 894.5,1127C 893.558,1117.22 896.558,1108.89 903.5,1102C 913.962,1093.77 925.629,1088.27 938.5,1085.5 Z"/></g>
<g><path style="opacity:1" fill="#43517a" d="M 541.5,1088.5 C 548.589,1091.74 555.589,1095.24 562.5,1099C 569.391,1106.82 568.724,1114.15 560.5,1121C 557.167,1121.67 553.833,1121.67 550.5,1121C 543.761,1117.88 537.261,1114.38 531,1110.5C 534.166,1103.16 537.666,1095.83 541.5,1088.5 Z"/></g>
<g><path style="opacity:1" fill="#fbfbfc" d="M 611.5,1106.5 C 625.858,1108.71 640.192,1111.04 654.5,1113.5C 654.014,1118.93 653.014,1124.26 651.5,1129.5C 648.973,1130.21 646.473,1130.88 644,1131.5C 643.88,1145.5 644.213,1159.5 645,1173.5C 653.501,1154.5 662.501,1135.83 672,1117.5C 678.829,1118.9 685.662,1120.23 692.5,1121.5C 693.061,1142.18 693.894,1162.84 695,1183.5C 700.778,1170.95 706.278,1158.28 711.5,1145.5C 710.461,1143.47 708.795,1142.14 706.5,1141.5C 705.505,1136.12 705.839,1130.78 707.5,1125.5C 719.608,1126.86 731.608,1128.86 743.5,1131.5C 743.014,1136.93 742.014,1142.26 740.5,1147.5C 734.382,1146.98 729.882,1149.31 727,1154.5C 715.268,1178.63 704.101,1202.96 693.5,1227.5C 686.35,1226.77 679.517,1225.11 673,1222.5C 672.173,1201.16 671.173,1179.82 670,1158.5C 661,1177.83 652,1197.17 643,1216.5C 642.275,1217.06 641.442,1217.39 640.5,1217.5C 634.587,1216.35 628.754,1215.02 623,1213.5C 621.471,1185.84 620.138,1158.18 619,1130.5C 617.421,1125.7 614.088,1123.04 609,1122.5C 609.243,1117.11 610.077,1111.78 611.5,1106.5 Z"/></g>
<g><path style="opacity:1" fill="#fbfcfc" d="M 833.5,1117.5 C 856.447,1114.72 871.28,1124.39 878,1146.5C 882.788,1160.8 884.788,1175.47 884,1190.5C 880.503,1210.99 868.337,1222.16 847.5,1224C 827.988,1225.49 814.821,1216.99 808,1198.5C 802.166,1182 799.833,1165 801,1147.5C 805.29,1130.38 816.123,1120.38 833.5,1117.5 Z"/></g>
<g><path style="opacity:0.047" fill="#a4835d" d="M 374.5,1142.5 C 368.224,1137.89 362.557,1132.56 357.5,1126.5C 363.499,1130.81 369.165,1136.14 374.5,1142.5 Z"/></g>
<g><path style="opacity:1" fill="#425079" d="M 834.5,1137.5 C 838.869,1136.92 842.869,1137.76 846.5,1140C 849.902,1143.97 852.402,1148.47 854,1153.5C 856.864,1163.82 858.698,1174.32 859.5,1185C 860.538,1198.97 854.204,1204.97 840.5,1203C 838.714,1202.22 837.214,1201.05 836,1199.5C 828.253,1182.69 824.92,1165.02 826,1146.5C 827.688,1142.31 830.521,1139.31 834.5,1137.5 Z"/></g>
<g><path style="opacity:1" fill="#43517a" d="M 941.5,1142.5 C 951.859,1140.26 958.359,1144.26 961,1154.5C 963.799,1168.7 957.965,1174.87 943.5,1173C 935.55,1168.23 930.717,1161.4 929,1152.5C 932.465,1148.19 936.631,1144.86 941.5,1142.5 Z"/></g>
<g><path style="opacity:1" fill="#9b7a5e" d="M 712.5,1291.5 C 737.167,1291.5 761.833,1291.5 786.5,1291.5C 761.833,1294.17 737.167,1294.17 712.5,1291.5 Z"/></g>
</svg>
