<?xml version="1.0" encoding="UTF-8"?>
<!DOCTYPE svg PUBLIC "-//W3C//DTD SVG 1.1//EN" "http://www.w3.org/Graphics/SVG/1.1/DTD/svg11.dtd">
<svg xmlns="http://www.w3.org/2000/svg" version="1.1" width="1092px" height="1092px" style="shape-rendering:geometricPrecision; text-rendering:geometricPrecision; image-rendering:optimizeQuality; fill-rule:evenodd; clip-rule:evenodd" xmlns:xlink="http://www.w3.org/1999/xlink">
<g><path style="opacity:1" fill="#f1b359" d="M 598.5,3.5 C 603.25,5.03084 608.25,5.69751 613.5,5.5C 759.473,25.8104 878.639,92.8104 971,206.5C 1073.85,341.701 1108.85,493.035 1076,660.5C 1046.86,786.517 982.36,890.017 882.5,971C 762.422,1063.28 626.755,1100.95 475.5,1084C 307.252,1058.91 176.752,975.747 84,834.5C 7.45623,708.578 -16.2104,573.245 13,428.5C 42.4827,302.134 107.316,198.301 207.5,117C 322.723,28.552 453.056,-9.28129 598.5,3.5 Z"/></g>
<g><path style="opacity:0.808" fill="#cdb69b" d="M 598.5,3.5 C 603.71,3.60844 608.71,4.2751 613.5,5.5C 608.25,5.69751 603.25,5.03084 598.5,3.5 Z"/></g>
<g><path style="opacity:1" fill="#414f79" d="M 515.5,13.5 C 684.552,8.53363 826.385,67.5336 941,190.5C 1058.78,328.609 1099.11,486.943 1062,665.5C 1025.66,810.097 944.493,921.597 818.5,1000C 690.482,1074.07 554.482,1093.74 410.5,1059C 252.263,1014.41 136.763,918.577 64,771.5C 3.56684,637.728 -2.7665,501.395 45,362.5C 104.167,210 210,104.167 362.5,45C 412.145,27.1759 463.145,16.6759 515.5,13.5 Z"/></g>
<g><path style="opacity:1" fill="#fbfbfc" d="M 580.5,52.5 C 606.48,56.7191 632.48,60.7191 658.5,64.5C 656.833,75.1708 655.166,85.8375 653.5,96.5C 649.077,96.3739 644.744,95.7072 640.5,94.5C 640.799,90.1351 640.299,85.8017 639,81.5C 635.761,79.648 632.261,78.648 628.5,78.5C 625.287,96.4466 622.287,114.447 619.5,132.5C 619.308,136.823 621.308,138.823 625.5,138.5C 625.249,143.507 624.916,148.507 624.5,153.5C 611.735,152.581 599.068,150.915 586.5,148.5C 586.517,143.732 587.184,139.066 588.5,134.5C 591.257,133.971 593.757,132.971 596,131.5C 599.122,112.814 602.288,94.1471 605.5,75.5C 604.975,74.8076 604.308,74.3076 603.5,74C 600.5,73.3333 597.5,73.3333 594.5,74C 591.756,77.731 590.089,81.8977 589.5,86.5C 584.798,86.0496 580.132,85.383 575.5,84.5C 576.952,73.7888 578.619,63.1221 580.5,52.5 Z"/></g>
<g><path style="opacity:1" fill="#fbfbfc" d="M 474.5,55.5 C 484.903,54.5307 494.903,56.0307 504.5,60C 506.958,66.9065 508.291,74.0732 508.5,81.5C 503.5,82.3365 498.5,82.8365 493.5,83C 489.832,76.0791 483.999,72.9125 476,73.5C 458.892,73.6102 450.059,82.1102 449.5,99C 449.545,108.678 451.711,117.845 456,126.5C 460.242,132.54 466.075,135.873 473.5,136.5C 480.126,135.927 486.46,134.26 492.5,131.5C 492.833,130.167 493.167,128.833 493.5,127.5C 492.614,122.186 491.947,116.853 491.5,111.5C 485.186,112.608 478.853,113.608 472.5,114.5C 471.725,108.847 471.058,103.18 470.5,97.5C 484.093,94.9566 497.76,92.9566 511.5,91.5C 513.399,105.561 515.732,119.561 518.5,133.5C 515.669,138.496 511.669,142.329 506.5,145C 491.964,152.068 476.631,154.735 460.5,153C 443.628,148.46 433.128,137.627 429,120.5C 426.354,109.205 426.021,97.8721 428,86.5C 432.874,73.2935 442.041,64.4601 455.5,60C 461.89,58.1601 468.224,56.6601 474.5,55.5 Z"/></g>
<g><path style="opacity:1" fill="#fcfcfc" d="M 388.5,75.5 C 389.822,75.33 390.989,75.6634 392,76.5C 393.559,80.6194 395.393,84.6194 397.5,88.5C 392.277,90.7338 391.11,94.4005 394,99.5C 403.5,120.5 413,141.5 422.5,162.5C 416.635,166.578 410.302,169.911 403.5,172.5C 383.584,160.959 363.751,149.293 344,137.5C 348.493,148.838 353.327,160.171 358.5,171.5C 359.559,172.696 360.893,173.363 362.5,173.5C 364.258,172.554 365.925,172.554 367.5,173.5C 369.443,177.053 371.11,180.719 372.5,184.5C 372.392,185.442 372.059,186.275 371.5,187C 364.167,190.333 356.833,193.667 349.5,197C 346.911,198.314 344.244,198.981 341.5,199C 339.644,194.788 337.644,190.621 335.5,186.5C 336.914,185.376 338.414,184.376 340,183.5C 340.667,181.5 340.667,179.5 340,177.5C 332.473,161.25 325.139,144.917 318,128.5C 317.261,127.426 316.261,126.759 315,126.5C 313.202,127.504 311.368,128.004 309.5,128C 307.407,123.894 305.407,119.727 303.5,115.5C 311.822,110.672 320.489,106.339 329.5,102.5C 349.197,114.508 369.197,125.674 389.5,136C 384.812,125.456 379.978,114.956 375,104.5C 374.167,103.667 373.333,102.833 372.5,102C 370.064,102.053 367.731,101.887 365.5,101.5C 363.542,97.7905 361.875,93.9572 360.5,90C 369.71,84.8953 379.043,80.062 388.5,75.5 Z"/></g>
<g><path style="opacity:1" fill="#fbfbfc" d="M 700.5,77.5 C 713.614,83.3907 726.948,88.7241 740.5,93.5C 738.321,118.345 735.988,143.179 733.5,168C 733.565,170.591 734.065,173.091 735,175.5C 737.2,176.836 739.033,178.502 740.5,180.5C 739.268,185.201 737.268,189.534 734.5,193.5C 722.5,188.5 710.5,183.5 698.5,178.5C 698.167,177.833 697.833,177.167 697.5,176.5C 698.9,172.467 700.4,168.467 702,164.5C 704.624,164.53 707.291,164.197 710,163.5C 711.309,158.934 711.809,154.267 711.5,149.5C 704.859,147 698.193,144.833 691.5,143C 689.333,145.833 687.167,148.667 685,151.5C 684.333,152.833 684.333,154.167 685,155.5C 686.757,156.119 687.924,157.286 688.5,159C 687.139,162.889 685.639,166.722 684,170.5C 683.439,171.022 682.772,171.355 682,171.5C 670.652,167.242 659.486,162.576 648.5,157.5C 650.572,152.95 652.238,148.283 653.5,143.5C 655.747,143.915 657.914,144.582 660,145.5C 661.627,145.375 663.127,144.875 664.5,144C 678.098,128.627 691.098,112.793 703.5,96.5C 700.591,94.6439 697.591,92.9773 694.5,91.5C 696.515,86.8075 698.515,82.1408 700.5,77.5 Z"/></g>
<g><path style="opacity:1" fill="#48557e" d="M 715.5,111.5 C 716.152,112.449 716.486,113.615 716.5,115C 715.347,122.217 714.014,129.383 712.5,136.5C 708.381,134.941 704.381,133.107 700.5,131C 705.715,124.624 710.715,118.124 715.5,111.5 Z"/></g>
<g><path style="opacity:1" fill="#fbfcfc" d="M 796.5,121.5 C 815.12,134.406 832.953,148.406 850,163.5C 856.882,175.451 855.549,186.451 846,196.5C 839.974,203.608 832.474,206.274 823.5,204.5C 820.382,214.298 818.548,224.298 818,234.5C 820.222,236.385 822.056,238.551 823.5,241C 821.056,245.277 818.056,249.11 814.5,252.5C 807.962,249.13 802.128,244.797 797,239.5C 793.967,234.894 792.967,229.894 794,224.5C 797.6,215.441 799.6,206.108 800,196.5C 796.533,192.669 792.7,189.169 788.5,186C 787.668,185.312 787.002,185.479 786.5,186.5C 783.14,190.693 779.973,195.026 777,199.5C 776.333,201.167 776.333,202.833 777,204.5C 778.236,205.399 779.07,206.566 779.5,208C 777.067,212.104 774.233,215.937 771,219.5C 760.856,212.184 751.023,204.518 741.5,196.5C 744.088,192.324 746.921,188.324 750,184.5C 751.677,185.516 753.343,186.516 755,187.5C 757.281,186.224 759.281,184.557 761,182.5C 769.615,170.217 778.615,158.217 788,146.5C 792.243,142.192 792.41,137.859 788.5,133.5C 791.177,129.471 793.844,125.471 796.5,121.5 Z"/></g>
<g><path style="opacity:1" fill="#fcfcfd" d="M 251.5,151.5 C 271.346,165.17 291.346,178.67 311.5,192C 316.886,196.816 322.053,196.649 327,191.5C 330.357,195.356 333.524,199.356 336.5,203.5C 326.123,212.545 315.457,221.212 304.5,229.5C 301.509,226.339 298.675,223.005 296,219.5C 296.667,216.833 297.333,214.167 298,211.5C 294.587,208.038 290.754,205.538 286.5,204C 281.299,208.372 276.299,212.872 271.5,217.5C 272.997,221.162 274.497,224.828 276,228.5C 276.725,229.059 277.558,229.392 278.5,229.5C 280.51,228.638 282.51,228.138 284.5,228C 287.358,231.358 290.025,234.858 292.5,238.5C 283.464,247.034 273.964,255.034 264,262.5C 260.714,258.759 257.547,254.925 254.5,251C 259.605,247.147 260.771,242.314 258,236.5C 251.048,218.969 243.715,201.636 236,184.5C 233.356,186.31 230.856,188.31 228.5,190.5C 225.009,186.84 221.676,183.006 218.5,179C 229.69,169.969 240.69,160.802 251.5,151.5 Z"/></g>
<g><path style="opacity:1" fill="#44517b" d="M 810.5,154.5 C 818.603,158.09 825.436,163.424 831,170.5C 832.119,176.809 829.953,181.643 824.5,185C 821.833,185.667 819.167,185.667 816.5,185C 809.815,180.991 803.482,176.491 797.5,171.5C 802.085,165.983 806.418,160.317 810.5,154.5 Z"/></g>
<g><path style="opacity:1" fill="#47547d" d="M 255.5,180.5 C 261.842,185.336 268.342,190.002 275,194.5C 275.667,195.167 275.667,195.833 275,196.5C 272.78,199.021 270.28,201.188 267.5,203C 266.551,203.617 265.718,203.451 265,202.5C 261.546,195.262 258.379,187.928 255.5,180.5 Z"/></g>
<g><path style="opacity:1" fill="#f4b455" d="M 527.5,194.5 C 652.24,192.294 752.407,240.294 828,338.5C 895.886,436.83 911.886,543.164 876,657.5C 837.167,764.333 764.333,837.167 657.5,876C 541.193,912.336 433.526,895.336 334.5,825C 236.609,747.128 190.109,645.294 195,519.5C 205.31,412.007 253.144,325.841 338.5,261C 395.086,220.638 458.086,198.471 527.5,194.5 Z"/></g>
<g><path style="opacity:1" fill="#fcfcfc" d="M 889.5,197.5 C 892.044,198.468 894.211,200.135 896,202.5C 901.975,210.643 908.142,218.643 914.5,226.5C 911.339,229.491 908.005,232.325 904.5,235C 903.5,235.667 902.5,235.667 901.5,235C 899.192,232.093 896.525,231.759 893.5,234C 882.333,243.167 871.167,252.333 860,261.5C 854.326,273.705 857.493,283.205 869.5,290C 874.257,290.81 878.924,290.476 883.5,289C 894.167,280.667 904.833,272.333 915.5,264C 917.584,262.499 918.917,260.499 919.5,258C 917.971,256.418 917.471,254.585 918,252.5C 921.169,249.588 924.502,246.921 928,244.5C 935.857,252.516 943.024,261.183 949.5,270.5C 946.017,273.739 942.35,276.739 938.5,279.5C 936.067,276.758 933.067,275.925 929.5,277C 917.5,286.667 905.5,296.333 893.5,306C 880.061,314.081 867.394,313.081 855.5,303C 845.767,294.362 838.933,283.862 835,271.5C 832.833,259.332 836.667,249.499 846.5,242C 858.288,233.214 869.788,224.047 881,214.5C 881.725,211.623 881.225,208.957 879.5,206.5C 882.906,203.483 886.24,200.483 889.5,197.5 Z"/></g>
<g><path style="opacity:1" fill="#fdfdfd" d="M 746.5,811.5 C 744.638,796.045 747.138,781.378 754,767.5C 765.554,749.281 777.888,731.614 791,714.5C 798.525,702.781 803.858,690.114 807,676.5C 808.857,658.428 804.69,641.928 794.5,627C 806.098,620.091 816.598,611.591 826,601.5C 834.183,590.965 838.849,578.965 840,565.5C 840.443,546.998 840.276,528.498 839.5,510C 837.122,486.647 843.122,465.813 857.5,447.5C 839.575,439.085 824.408,427.085 812,411.5C 801,397.167 790,382.833 779,368.5C 767.903,354.724 754.07,344.891 737.5,339C 729.542,337.61 721.542,337.277 713.5,338C 707.046,339.694 700.712,341.527 694.5,343.5C 694.303,309.487 678.303,286.653 646.5,275C 623.14,267.991 600.14,259.991 577.5,251C 564.216,243.619 552.382,234.453 542,223.5C 537.905,228.271 533.738,233.105 529.5,238C 519.797,245.7 509.131,251.7 497.5,256C 478.428,261.802 459.428,267.802 440.5,274C 409.687,285.976 394.02,308.476 393.5,341.5C 359.932,331.637 332.432,340.303 311,367.5C 302.609,378.892 294.609,390.559 287,402.5C 277.245,417.535 264.745,429.702 249.5,439C 243.504,441.003 237.837,443.503 232.5,446.5C 240.63,456.43 245.797,467.763 248,480.5C 249.234,506.143 249.9,531.81 250,557.5C 252.3,591.61 269.467,614.277 301.5,625.5C 287.505,642.665 283.339,661.999 289,683.5C 292.102,691.708 295.769,699.708 300,707.5C 310.842,723.851 322.175,739.851 334,755.5C 342.172,767.845 348.172,781.178 352,795.5C 352.499,801.157 352.666,806.824 352.5,812.5C 357.441,810.91 362.441,809.41 367.5,808C 376.833,807.333 386.167,807.333 395.5,808C 404.495,810.331 413.495,812.665 422.5,815C 437.244,820.357 451.911,825.69 466.5,831C 499.691,839.102 527.358,830.268 549.5,804.5C 573.14,833.872 602.807,842.039 638.5,829C 656.865,822.544 675.199,815.877 693.5,809C 699.244,808.418 704.911,807.418 710.5,806C 722.803,804.171 734.47,806.004 745.5,811.5C 705.196,842.474 659.863,862.974 609.5,873C 482.696,893.847 376.196,857.013 290,762.5C 219.271,676.242 195.271,578.242 218,468.5C 242.048,373.506 296.214,301.339 380.5,252C 465.044,206.269 553.378,197.269 645.5,225C 747.889,260.055 819.056,327.889 859,428.5C 895.389,535.874 883.056,637.207 822,732.5C 801.122,762.88 775.955,789.213 746.5,811.5 Z"/></g>
<g><path style="opacity:1" fill="#fcfcfd" d="M 179.5,226.5 C 194.406,225.536 205.573,231.536 213,244.5C 213.499,249.155 213.666,253.821 213.5,258.5C 222.303,259.301 230.97,260.968 239.5,263.5C 240.5,263.333 241.5,263.167 242.5,263C 245.113,260.912 247.613,258.746 250,256.5C 254.104,258.933 257.937,261.767 261.5,265C 257.827,274.024 251.827,281.024 243.5,286C 240.167,286.667 236.833,286.667 233.5,286C 225.388,283.629 217.221,281.463 209,279.5C 203.826,281.333 199.826,284.667 197,289.5C 196.535,290.931 195.701,292.097 194.5,293C 199.5,296.667 204.5,300.333 209.5,304C 210.5,304.667 211.5,304.667 212.5,304C 213.685,302.647 215.019,301.48 216.5,300.5C 220.896,303.025 224.896,306.025 228.5,309.5C 221.243,319.679 213.743,329.679 206,339.5C 202.333,336.833 198.667,334.167 195,331.5C 194.709,329.217 195.209,327.05 196.5,325C 195.561,323.056 194.227,321.389 192.5,320C 178.656,310.244 164.989,300.244 151.5,290C 147.933,288.925 144.933,289.758 142.5,292.5C 138.639,289.472 134.639,286.639 130.5,284C 143.107,266.126 156.44,248.792 170.5,232C 173.596,230.128 176.596,228.295 179.5,226.5 Z"/></g>
<g><path style="opacity:1" fill="#43517a" d="M 178.5,249.5 C 191.24,248.726 196.074,254.393 193,266.5C 189.064,272.053 184.897,277.387 180.5,282.5C 174.342,278.496 168.675,273.996 163.5,269C 167.936,262.065 172.936,255.565 178.5,249.5 Z"/></g>
<g><path style="opacity:1" fill="#fcfcfd" d="M 963.5,297.5 C 964.675,297.281 965.675,297.614 966.5,298.5C 970.444,306.721 974.111,315.054 977.5,323.5C 966.479,343.707 954.813,363.54 942.5,383C 953.504,378.674 964.504,374.007 975.5,369C 976.333,368.167 977.167,367.333 978,366.5C 977.947,364.064 978.113,361.731 978.5,359.5C 982.375,357.931 986.208,356.264 990,354.5C 990.772,354.645 991.439,354.978 992,355.5C 996.167,365.167 1000.33,374.833 1004.5,384.5C 1000.55,387.386 996.216,389.719 991.5,391.5C 989.674,387.482 986.674,385.982 982.5,387C 960.382,396.559 938.382,406.392 916.5,416.5C 912.756,409.745 909.923,402.745 908,395.5C 919.708,375.917 931.541,356.417 943.5,337C 931.795,341.58 920.128,346.58 908.5,352C 907.196,352.804 906.529,353.971 906.5,355.5C 907.228,357.155 907.395,358.821 907,360.5C 902.788,362.356 898.621,364.356 894.5,366.5C 889.713,356.424 885.046,346.257 880.5,336C 884.135,332.932 888.302,330.765 893,329.5C 894.82,330.604 896.32,332.104 897.5,334C 898.833,334.667 900.167,334.667 901.5,334C 918.75,326.139 936.083,318.472 953.5,311C 953.645,308.145 953.645,305.311 953.5,302.5C 957.173,301.33 960.507,299.663 963.5,297.5 Z"/></g>
<g><path style="opacity:1" fill="#fbfcfc" d="M 188.5,339.5 C 193.594,340.882 198.261,343.049 202.5,346C 197.562,358.704 192.229,371.204 186.5,383.5C 182.5,381.833 178.5,380.167 174.5,378.5C 174.102,375.976 173.768,373.476 173.5,371C 168.89,369.71 164.223,369.376 159.5,370C 156.68,375.623 154.347,381.456 152.5,387.5C 152.529,389.029 153.196,390.196 154.5,391C 156.833,392.667 159.167,394.333 161.5,396C 162.944,396.781 164.277,396.614 165.5,395.5C 166.083,393.998 166.916,392.665 168,391.5C 172.326,393.664 176.826,395.331 181.5,396.5C 177.363,408.244 173.03,419.911 168.5,431.5C 162.89,430.856 157.89,428.856 153.5,425.5C 155.818,422.584 155.984,419.584 154,416.5C 138.592,403.547 123.092,390.714 107.5,378C 106.551,377.383 105.718,377.549 105,378.5C 104.145,381.601 102.645,384.268 100.5,386.5C 95.8289,384.831 91.4956,382.664 87.5,380C 92.5979,367.54 97.5979,355.04 102.5,342.5C 104.5,342.167 106.5,341.833 108.5,341.5C 130.898,342.793 153.231,344.793 175.5,347.5C 182.223,348.501 186.556,345.835 188.5,339.5 Z"/></g>
<g><path style="opacity:1" fill="#2e2926" d="M 746.5,811.5 C 746.167,811.5 745.833,811.5 745.5,811.5C 734.47,806.004 722.803,804.171 710.5,806C 704.911,807.418 699.244,808.418 693.5,809C 675.199,815.877 656.865,822.544 638.5,829C 602.807,842.039 573.14,833.872 549.5,804.5C 527.358,830.268 499.691,839.102 466.5,831C 451.911,825.69 437.244,820.357 422.5,815C 413.495,812.665 404.495,810.331 395.5,808C 386.167,807.333 376.833,807.333 367.5,808C 362.441,809.41 357.441,810.91 352.5,812.5C 352.666,806.824 352.499,801.157 352,795.5C 348.172,781.178 342.172,767.845 334,755.5C 322.175,739.851 310.842,723.851 300,707.5C 295.769,699.708 292.102,691.708 289,683.5C 283.339,661.999 287.505,642.665 301.5,625.5C 269.467,614.277 252.3,591.61 250,557.5C 249.9,531.81 249.234,506.143 248,480.5C 245.797,467.763 240.63,456.43 232.5,446.5C 237.837,443.503 243.504,441.003 249.5,439C 264.745,429.702 277.245,417.535 287,402.5C 294.609,390.559 302.609,378.892 311,367.5C 332.432,340.303 359.932,331.637 393.5,341.5C 394.02,308.476 409.687,285.976 440.5,274C 459.428,267.802 478.428,261.802 497.5,256C 509.131,251.7 519.797,245.7 529.5,238C 533.738,233.105 537.905,228.271 542,223.5C 552.382,234.453 564.216,243.619 577.5,251C 600.14,259.991 623.14,267.991 646.5,275C 678.303,286.653 694.303,309.487 694.5,343.5C 700.712,341.527 707.046,339.694 713.5,338C 721.542,337.277 729.542,337.61 737.5,339C 754.07,344.891 767.903,354.724 779,368.5C 790,382.833 801,397.167 812,411.5C 824.408,427.085 839.575,439.085 857.5,447.5C 843.122,465.813 837.122,486.647 839.5,510C 840.276,528.498 840.443,546.998 840,565.5C 838.849,578.965 834.183,590.965 826,601.5C 816.598,611.591 806.098,620.091 794.5,627C 804.69,641.928 808.857,658.428 807,676.5C 803.858,690.114 798.525,702.781 791,714.5C 777.888,731.614 765.554,749.281 754,767.5C 747.138,781.378 744.638,796.045 746.5,811.5 Z"/></g>
<g><path style="opacity:1" fill="#a5a3a1" d="M 375.5,342.5 C 364.956,341.825 354.623,342.825 344.5,345.5C 347.282,344.067 350.282,342.9 353.5,342C 361.012,341.178 368.345,341.345 375.5,342.5 Z"/></g>
<g><path style="opacity:1" fill="#f5f5f5" d="M 837.5,483.5 C 836.698,484.952 836.198,486.618 836,488.5C 835.175,499.341 835.341,510.008 836.5,520.5C 837.222,533.829 837.389,547.163 837,560.5C 835.543,580.915 827.043,597.748 811.5,611C 803.988,615.701 796.654,620.534 789.5,625.5C 807.94,653.319 808.106,681.319 790,709.5C 775.886,728.283 762.553,747.616 750,767.5C 747.657,774.181 745.324,780.847 743,787.5C 742.831,793.859 742.331,800.193 741.5,806.5C 721.271,800.636 701.271,801.469 681.5,809C 660.32,817.727 638.654,825.06 616.5,831C 595.157,833.996 576.823,827.996 561.5,813C 557.657,808.326 553.657,803.826 549.5,799.5C 539.349,811.578 527.016,820.745 512.5,827C 508.986,828.562 505.319,829.395 501.5,829.5C 492.148,829.566 482.815,829.232 473.5,828.5C 469.494,827.778 465.494,826.945 461.5,826C 442.746,818.448 423.746,811.781 404.5,806C 396.359,804.885 388.193,804.051 380,803.5C 371.625,803.701 363.459,805.035 355.5,807.5C 355.964,794.358 353.13,782.025 347,770.5C 334.654,750.471 321.321,731.137 307,712.5C 299.01,700.538 293.344,687.538 290,673.5C 288.788,654.635 294.621,638.301 307.5,624.5C 271.879,613.211 253.879,588.877 253.5,551.5C 253.667,530.831 253.5,510.164 253,489.5C 252.814,486.964 252.314,484.631 251.5,482.5C 250.304,469.906 245.971,458.572 238.5,448.5C 244.342,445.079 250.342,441.912 256.5,439C 268.097,430.349 278.263,420.183 287,408.5C 296.841,393.483 307.175,378.816 318,364.5C 325.337,355.984 334.171,349.65 344.5,345.5C 354.623,342.825 364.956,341.825 375.5,342.5C 382.552,343.577 389.552,344.91 396.5,346.5C 396.224,310.285 413.224,286.452 447.5,275C 467.73,269.209 487.73,262.876 507.5,256C 521.502,249.682 533.168,240.516 542.5,228.5C 555.211,241.366 569.878,251.533 586.5,259C 607.325,266.243 628.325,273.243 649.5,280C 679.093,292.979 693.093,315.813 691.5,348.5C 715.834,337.265 738.834,339.432 760.5,355C 766.709,360.509 772.543,366.342 778,372.5C 790.284,389.119 802.951,405.453 816,421.5C 826.223,432.436 837.89,441.436 851,448.5C 848.088,454.323 845.088,460.323 842,466.5C 840.185,472.106 838.685,477.773 837.5,483.5 Z"/></g>
<g><path style="opacity:1" fill="#7a7675" d="M 364.5,348.5 C 367.817,347.835 371.317,347.501 375,347.5C 380.421,347.326 385.587,347.993 390.5,349.5C 381.858,348.701 373.191,348.368 364.5,348.5 Z"/></g>
<g><path style="opacity:1" fill="#45537c" d="M 121.5,365.5 C 121.735,364.903 122.235,364.57 123,364.5C 130.467,365.756 137.967,366.756 145.5,367.5C 144.307,371.911 142.807,376.244 141,380.5C 134.624,375.285 128.124,370.285 121.5,365.5 Z"/></g>
<g><path style="opacity:1" fill="#fbfbfc" d="M 928.5,424.5 C 930.833,424.5 933.167,424.5 935.5,424.5C 935.035,429.321 937.035,432.487 941.5,434C 961.065,437.295 980.731,439.795 1000.5,441.5C 1000.18,438.102 1000.51,434.768 1001.5,431.5C 1006.07,430.184 1010.73,429.517 1015.5,429.5C 1017.5,442.49 1019.5,455.49 1021.5,468.5C 1021.17,469.833 1020.83,471.167 1020.5,472.5C 996.453,483.606 972.953,495.606 950,508.5C 949.502,511.482 949.335,514.482 949.5,517.5C 944.708,517.349 940.041,518.016 935.5,519.5C 932.092,505.72 929.759,491.72 928.5,477.5C 933.482,476.947 938.482,476.613 943.5,476.5C 943.403,479.314 944.569,481.314 947,482.5C 950.561,480.97 954.061,479.303 957.5,477.5C 957.833,476 958.167,474.5 958.5,473C 957.559,467.191 956.893,461.358 956.5,455.5C 951.478,455.218 946.478,455.051 941.5,455C 940.577,457.041 940.244,459.208 940.5,461.5C 935.548,462.492 930.548,463.158 925.5,463.5C 923.824,451.111 921.824,438.778 919.5,426.5C 922.689,426.142 925.689,425.475 928.5,424.5 Z"/></g>
<g><path style="opacity:1" fill="#fbfbfc" d="M 72.5,427.5 C 77.4246,428.685 82.4246,429.351 87.5,429.5C 86.6276,434.447 87.9609,438.613 91.5,442C 98.3793,446.521 105.546,450.354 113,453.5C 124.703,451.427 136.203,448.593 147.5,445C 149.655,441.888 150.655,438.388 150.5,434.5C 155.807,435.33 161.141,435.997 166.5,436.5C 164.969,446.807 163.636,457.14 162.5,467.5C 148.564,470.484 134.564,473.15 120.5,475.5C 120.08,481.863 119.413,488.196 118.5,494.5C 126.097,496.05 133.764,496.55 141.5,496C 143.155,494.556 143.822,492.722 143.5,490.5C 148.805,491.194 154.138,491.528 159.5,491.5C 157.67,504.138 156.004,516.805 154.5,529.5C 149.527,528.836 144.527,528.503 139.5,528.5C 139.663,526.143 139.497,523.81 139,521.5C 137.933,520.809 136.766,520.309 135.5,520C 121.12,518.279 106.787,516.279 92.5,514C 87.8333,513.333 83.1667,513.333 78.5,514C 77.7402,515.441 77.0736,516.941 76.5,518.5C 75.1667,518.833 73.8333,519.167 72.5,519.5C 68.8548,518.884 65.1881,518.55 61.5,518.5C 62.8923,505.854 64.2256,493.187 65.5,480.5C 70.813,481.098 76.1463,481.431 81.5,481.5C 81.2317,484.119 81.565,486.619 82.5,489C 88.6537,491 94.9871,491.833 101.5,491.5C 102.417,485.175 102.917,478.841 103,472.5C 97.6342,468.983 91.9676,465.983 86,463.5C 85.228,463.645 84.5613,463.978 84,464.5C 83.5065,466.134 83.3398,467.801 83.5,469.5C 78.1408,468.997 72.8075,468.33 67.5,467.5C 69.1705,454.157 70.8372,440.823 72.5,427.5 Z"/></g>
<g><path style="opacity:1" fill="#43517a" d="M 969.5,457.5 C 977.503,458.501 985.503,459.667 993.5,461C 986.142,464.119 978.976,467.619 972,471.5C 971.118,466.821 970.285,462.154 969.5,457.5 Z"/></g>
<g><path style="opacity:1" fill="#5b5755" d="M 837.5,483.5 C 836.685,495.815 836.351,508.148 836.5,520.5C 835.341,510.008 835.175,499.341 836,488.5C 836.198,486.618 836.698,484.952 837.5,483.5 Z"/></g>
<g><path style="opacity:1" fill="#706d6b" d="M 251.5,482.5 C 252.314,484.631 252.814,486.964 253,489.5C 253.5,510.164 253.667,530.831 253.5,551.5C 252.747,528.658 252.08,505.658 251.5,482.5 Z"/></g>
<g><path style="opacity:1" fill="#f3b353" d="M 103.5,545.5 C 104.495,556.999 105.328,568.666 106,580.5C 109.5,592 117,599.5 128.5,603C 139.821,603.866 151.155,604.533 162.5,605C 151.155,605.467 139.821,606.134 128.5,607C 117,610.5 109.5,618 106,629.5C 105.134,640.821 104.467,652.155 104,663.5C 103.533,652.155 102.866,640.821 102,629.5C 98.5,618 91,610.5 79.5,607C 67.8429,606.167 56.1763,605.5 44.5,605C 56.1763,604.5 67.8429,603.833 79.5,603C 91,599.5 98.5,592 102,580.5C 102.938,568.85 103.438,557.183 103.5,545.5 Z"/></g>
<g><path style="opacity:1" fill="#f3b253" d="M 973.5,551.5 C 974.331,561.346 975.164,571.346 976,581.5C 979.276,593.11 986.776,600.277 998.5,603C 1009.82,603.866 1021.15,604.533 1032.5,605C 1021.15,605.467 1009.82,606.134 998.5,607C 986.776,609.723 979.276,616.89 976,628.5C 974.935,637.802 974.268,647.135 974,656.5C 973.07,646.815 972.07,637.149 971,627.5C 967.32,616.488 959.82,609.654 948.5,607C 937.175,606.193 925.842,605.527 914.5,605C 925.842,604.473 937.175,603.807 948.5,603C 959.82,600.346 967.32,593.512 971,582.5C 972.265,572.215 973.098,561.881 973.5,551.5 Z"/></g>
<g><path style="opacity:1" fill="#322c21" d="M 723.5,792.5 C 722.737,791.732 721.737,791.232 720.5,791C 716.5,790.833 712.5,790.667 708.5,790.5C 702.902,790.276 697.569,790.943 692.5,792.5C 672.01,797.912 652.01,804.746 632.5,813C 599.085,824.911 571.418,817.078 549.5,789.5C 540.444,799.061 530.11,806.895 518.5,813C 501.954,818.625 485.287,818.958 468.5,814C 453.647,809.05 438.98,803.717 424.5,798C 408.87,792.911 392.87,791.244 376.5,793C 372.465,794.067 368.465,795.234 364.5,796.5C 363.641,782.727 360.141,769.727 354,757.5C 341.741,737.979 328.741,718.979 315,700.5C 309.844,691.855 305.51,682.855 302,673.5C 296.901,653.15 301.401,635.317 315.5,620C 282.268,608.409 265.768,584.909 266,549.5C 265.933,527.464 265.266,505.464 264,483.5C 262.031,471.57 257.364,460.903 250,451.5C 249.517,450.552 249.351,449.552 249.5,448.5C 259.485,446.508 268.485,442.342 276.5,436C 283.032,429.802 289.199,423.302 295,416.5C 304,403.5 313,390.5 322,377.5C 329.247,368.251 337.747,360.417 347.5,354C 353.007,351.575 358.674,349.741 364.5,348.5C 373.191,348.368 381.858,348.701 390.5,349.5C 394.14,350.273 397.807,350.94 401.5,351.5C 402.238,318.932 417.904,297.099 448.5,286C 469.789,279.793 490.789,272.793 511.5,265C 518.34,261.75 524.673,257.75 530.5,253C 534.627,248.553 538.627,244.053 542.5,239.5C 557.043,254.942 574.376,266.108 594.5,273C 611.879,278.675 629.213,284.341 646.5,290C 673.868,302.22 686.868,323.386 685.5,353.5C 706.17,344.433 726.17,345.6 745.5,357C 752.931,362.427 759.764,368.593 766,375.5C 778.952,392.787 792.285,409.787 806,426.5C 811.031,431.922 816.531,436.755 822.5,441C 828.562,444.691 834.562,448.358 840.5,452C 831.613,463.672 826.113,476.839 824,491.5C 823.432,509.858 823.932,528.191 825.5,546.5C 827.02,571.129 818.686,591.629 800.5,608C 794.148,612.36 787.815,616.693 781.5,621C 797.501,647.111 797.334,673.278 781,699.5C 770.667,713.833 760.333,728.167 750,742.5C 743.685,752.101 739.018,762.435 736,773.5C 735.5,780.826 735.334,788.159 735.5,795.5C 731.596,794.191 727.596,793.191 723.5,792.5 Z"/></g>
<g><path style="opacity:1" fill="#cdc706" d="M 304.5,646.5 C 304.5,653.833 304.5,661.167 304.5,668.5C 304.167,668.5 303.833,668.5 303.5,668.5C 301.857,660.937 302.191,653.603 304.5,646.5 Z"/></g>
<g><path style="opacity:1" fill="#807b0e" d="M 824.5,478.5 C 824.59,481.152 823.924,483.485 822.5,485.5C 822.41,482.848 823.076,480.515 824.5,478.5 Z"/></g>
<g><path style="opacity:1" fill="#827c0e" d="M 264.5,475.5 C 265.924,477.515 266.59,479.848 266.5,482.5C 265.076,480.485 264.41,478.152 264.5,475.5 Z"/></g>
<g><path style="opacity:1" fill="#afaa0a" d="M 681.5,335.5 C 682.302,336.952 682.802,338.618 683,340.5C 683.499,345.823 683.666,351.156 683.5,356.5C 685.216,356.371 686.883,356.038 688.5,355.5C 687.01,357.28 685.01,357.946 682.5,357.5C 682.451,350.151 682.118,342.817 681.5,335.5 Z"/></g>
<g><path style="opacity:1" fill="#948f0c" d="M 407.5,330.5 C 407.59,333.152 406.924,335.485 405.5,337.5C 405.41,334.848 406.076,332.515 407.5,330.5 Z"/></g>
<g><path style="opacity:1" fill="#6f6913" d="M 619.5,283.5 C 626.698,284.675 633.365,287.009 639.5,290.5C 632.608,288.537 625.941,286.204 619.5,283.5 Z"/></g>
<g><path style="opacity:1" fill="#5d5713" d="M 603.5,278.5 C 606.152,278.41 608.485,279.076 610.5,280.5C 607.848,280.59 605.515,279.924 603.5,278.5 Z"/></g>
<g><path style="opacity:1" fill="#fdf300" d="M 603.5,278.5 C 605.515,279.924 607.848,280.59 610.5,280.5C 613.421,281.696 616.421,282.696 619.5,283.5C 625.941,286.204 632.608,288.537 639.5,290.5C 662.462,297.129 676.462,312.129 681.5,335.5C 682.118,342.817 682.451,350.151 682.5,357.5C 685.01,357.946 687.01,357.28 688.5,355.5C 713.473,345.305 735.806,349.471 755.5,368C 770.713,386.211 785.546,404.711 800,423.5C 810.739,435.254 822.906,445.087 836.5,453C 830.756,460.655 826.756,469.155 824.5,478.5C 823.076,480.515 822.41,482.848 822.5,485.5C 822.078,511.81 821.912,538.144 822,564.5C 818.921,583.851 809.421,599.018 793.5,610C 788.332,613.419 782.998,616.585 777.5,619.5C 795.126,647.507 794.626,675.173 776,702.5C 764.945,717.222 754.278,732.222 744,747.5C 737.796,756.946 734.296,767.279 733.5,778.5C 732.675,782.647 732.175,786.981 732,791.5C 729.699,790.133 727.199,789.466 724.5,789.5C 724.167,789.5 723.833,789.5 723.5,789.5C 723.389,788.883 723.056,788.383 722.5,788C 715.321,787.179 708.321,787.345 701.5,788.5C 694.794,789.341 688.127,790.507 681.5,792C 662.023,799.382 642.356,806.382 622.5,813C 618.187,813.735 613.853,814.235 609.5,814.5C 601.132,814.194 592.799,813.527 584.5,812.5C 577.795,810.648 571.795,807.481 566.5,803C 560.679,797.345 555.013,791.512 549.5,785.5C 538.783,798.369 525.45,807.536 509.5,813C 496.76,815.228 484.093,814.895 471.5,812C 452.954,805.362 434.287,799.029 415.5,793C 402.294,789.762 388.96,788.929 375.5,790.5C 372.848,790.41 370.515,791.076 368.5,792.5C 367.85,792.804 367.183,793.137 366.5,793.5C 365.653,788.846 364.987,784.179 364.5,779.5C 364.59,776.848 363.924,774.515 362.5,772.5C 360.177,764.849 357.011,757.516 353,750.5C 340,731.833 327,713.167 314,694.5C 311.485,688.807 308.985,683.141 306.5,677.5C 305.833,674.5 305.167,671.5 304.5,668.5C 304.5,661.167 304.5,653.833 304.5,646.5C 307.382,636.071 312.382,626.738 319.5,618.5C 288.21,609.577 271.377,588.911 269,556.5C 268.667,535.167 268.333,513.833 268,492.5C 266.595,489.381 266.095,486.048 266.5,482.5C 266.59,479.848 265.924,477.515 264.5,475.5C 262.628,466.686 258.962,458.686 253.5,451.5C 268.581,445.862 281.415,436.862 292,424.5C 305.223,405.222 319.056,386.389 333.5,368C 342.249,359.459 352.582,353.792 364.5,351C 377.871,349.484 390.871,350.984 403.5,355.5C 404.167,349.346 404.833,343.346 405.5,337.5C 406.924,335.485 407.59,333.152 407.5,330.5C 411.759,314.733 421.092,302.9 435.5,295C 440.38,292.393 445.38,290.06 450.5,288C 468.539,282.459 486.539,276.792 504.5,271C 512.819,267.175 520.819,262.842 528.5,258C 533.376,253.292 538.043,248.459 542.5,243.5C 559.95,260.062 580.283,271.729 603.5,278.5 Z"/></g>
<g><path style="opacity:1" fill="#291f17" d="M 568.5,336.5 C 573.984,337.804 579.651,338.804 585.5,339.5C 590.891,340.245 596.224,341.245 601.5,342.5C 604.505,344.277 607.838,345.277 611.5,345.5C 681.575,370.016 728.575,417.349 752.5,487.5C 752.41,490.152 753.076,492.485 754.5,494.5C 756.562,500.005 757.895,505.672 758.5,511.5C 758.958,518.38 759.958,525.047 761.5,531.5C 762.144,536.755 762.477,542.088 762.5,547.5C 762.271,558.203 761.604,568.87 760.5,579.5C 758.437,586.238 757.103,593.238 756.5,600.5C 733.565,683.602 680.565,737.102 597.5,761C 573.942,766.492 550.276,768.326 526.5,766.5C 520.431,764.625 514.098,763.625 507.5,763.5C 503.236,763.656 499.236,762.989 495.5,761.5C 493.485,760.076 491.152,759.41 488.5,759.5C 420.227,739.738 372.06,697.071 344,631.5C 339.584,619.754 336.084,607.754 333.5,595.5C 333.59,592.848 332.924,590.515 331.5,588.5C 331.5,587.833 331.5,587.167 331.5,586.5C 331.72,581.9 331.054,577.567 329.5,573.5C 326.982,548.824 328.649,524.491 334.5,500.5C 335.924,498.485 336.59,496.152 336.5,493.5C 360.888,415.612 412.222,365.112 490.5,342C 516.168,335.69 542.168,333.856 568.5,336.5 Z"/></g>
<g><path style="opacity:1" fill="#857d0f" d="M 331.5,588.5 C 332.924,590.515 333.59,592.848 333.5,595.5C 332.076,593.485 331.41,591.152 331.5,588.5 Z"/></g>
<g><path style="opacity:1" fill="#aca50d" d="M 760.5,579.5 C 760.427,586.862 759.093,593.862 756.5,600.5C 757.103,593.238 758.437,586.238 760.5,579.5 Z"/></g>
<g><path style="opacity:1" fill="#9f970d" d="M 329.5,573.5 C 331.054,577.567 331.72,581.9 331.5,586.5C 329.946,582.433 329.28,578.1 329.5,573.5 Z"/></g>
<g><path style="opacity:1" fill="#918a0f" d="M 758.5,511.5 C 760.561,517.879 761.561,524.546 761.5,531.5C 759.958,525.047 758.958,518.38 758.5,511.5 Z"/></g>
<g><path style="opacity:1" fill="#767010" d="M 336.5,493.5 C 336.59,496.152 335.924,498.485 334.5,500.5C 334.41,497.848 335.076,495.515 336.5,493.5 Z"/></g>
<g><path style="opacity:1" fill="#635d13" d="M 752.5,487.5 C 753.924,489.515 754.59,491.848 754.5,494.5C 753.076,492.485 752.41,490.152 752.5,487.5 Z"/></g>
<g><path style="opacity:1" fill="#978f0e" d="M 601.5,342.5 C 605.162,342.723 608.495,343.723 611.5,345.5C 607.838,345.277 604.505,344.277 601.5,342.5 Z"/></g>
<g><path style="opacity:1" fill="#d7241c" d="M 556.5,340.5 C 642.266,347.784 703.766,390.118 741,467.5C 760.788,517.037 762.788,567.371 747,618.5C 717.618,696.202 662.118,743.369 580.5,760C 488.926,771.117 417.092,738.95 365,663.5C 329.334,602.172 323.667,538.172 348,471.5C 380.28,399.113 435.446,356.113 513.5,342.5C 527.793,341.206 542.127,340.539 556.5,340.5 Z"/></g>
<g><path style="opacity:1" fill="#2e2420" d="M 553.5,355.5 C 624.36,363.502 678.86,397.502 717,457.5C 719.557,461.446 721.723,465.613 723.5,470C 720.015,472.652 716.682,475.485 713.5,478.5C 715.412,482.66 717.579,486.66 720,490.5C 722.09,491.152 724.257,491.319 726.5,491C 735.958,498.571 737.958,507.738 732.5,518.5C 720.545,525.319 707.711,529.652 694,531.5C 687.861,529.692 683.194,526.026 680,520.5C 674.877,509.131 670.544,497.464 667,485.5C 665.287,481.905 663.453,478.405 661.5,475C 664.344,470.656 668.011,467.156 672.5,464.5C 641.417,419.038 598.251,395.371 543,393.5C 488.972,396.259 446.805,419.925 416.5,464.5C 420.671,467.838 424.337,471.671 427.5,476C 421.451,486.801 416.951,498.301 414,510.5C 410.521,520.833 403.854,528.167 394,532.5C 380.82,530.67 368.32,526.837 356.5,521C 350.232,510.278 351.565,500.611 360.5,492C 363.095,492.131 365.595,491.964 368,491.5C 370.388,486.557 372.888,481.724 375.5,477C 371.796,474.487 368.13,471.987 364.5,469.5C 389.051,423.448 425.051,389.615 472.5,368C 486.624,362.145 501.29,358.311 516.5,356.5C 528.817,355.715 541.15,355.382 553.5,355.5 Z"/></g>
<g><path style="opacity:1" fill="#821f19" d="M 617.5,487.5 C 615.899,493.711 615.232,500.044 615.5,506.5C 613.826,499.942 614.492,493.609 617.5,487.5 Z"/></g>
<g><path style="opacity:1" fill="#f6f6f5" d="M 361.5,494.5 C 370.646,497.438 379.646,500.771 388.5,504.5C 382.911,512.433 383.245,520.1 389.5,527.5C 387.579,528.641 385.579,528.808 383.5,528C 378.228,526.131 372.894,524.465 367.5,523C 357.109,520.497 352.942,513.997 355,503.5C 356.686,500.117 358.853,497.117 361.5,494.5 Z"/></g>
<g><path style="opacity:1" fill="#f7f7f7" d="M 721.5,493.5 C 723.199,493.34 724.866,493.506 726.5,494C 732.777,500.578 734.111,508.078 730.5,516.5C 723.189,520.417 715.522,523.584 707.5,526C 704.806,527.19 702.139,527.356 699.5,526.5C 704.728,518.738 704.728,511.071 699.5,503.5C 706.964,500.35 714.297,497.017 721.5,493.5 Z"/></g>
<g><path style="opacity:1" fill="#f7f6f6" d="M 665.5,476.5 C 666.552,476.351 667.552,476.517 668.5,477C 673.167,481 677.833,485 682.5,489C 684.588,490.03 686.755,490.863 689,491.5C 695.674,486.994 702.674,482.994 710,479.5C 710.772,479.645 711.439,479.978 712,480.5C 713.948,484.863 715.782,489.196 717.5,493.5C 710.38,496.263 703.213,498.929 696,501.5C 697.332,504.48 698.999,507.48 701,510.5C 702.135,518.227 699.468,524.227 693,528.5C 687.346,525.513 683.013,521.179 680,515.5C 675.314,502.407 670.481,489.407 665.5,476.5 Z"/></g>
<g><path style="opacity:1" fill="#f7f7f7" d="M 419.5,477.5 C 420.873,477.343 422.207,477.51 423.5,478C 422.333,479.833 421.167,481.667 420,483.5C 416.625,496.899 411.625,509.566 405,521.5C 397.24,531.563 391.24,530.563 387,518.5C 386.333,516.167 386.333,513.833 387,511.5C 388.586,508.659 390.42,505.993 392.5,503.5C 385.326,500.109 377.992,497.109 370.5,494.5C 372.138,489.054 374.472,483.887 377.5,479C 378.5,478.333 379.5,478.333 380.5,479C 387.003,483.086 393.67,486.919 400.5,490.5C 408.227,488.091 414.56,483.758 419.5,477.5 Z"/></g>
<g><path style="opacity:1" fill="#2a211e" d="M 586.5,450.5 C 592.371,449.529 598.037,448.196 603.5,446.5C 605.167,446.5 606.833,446.5 608.5,446.5C 607.855,450.678 605.688,454.011 602,456.5C 595.855,465.935 593.188,476.268 594,487.5C 600.395,468.867 613.562,460.7 633.5,463C 634.517,464.049 634.684,465.216 634,466.5C 626.078,471.717 620.578,478.717 617.5,487.5C 614.492,493.609 613.826,499.942 615.5,506.5C 617.549,518.909 620.049,531.243 623,543.5C 627.063,569.221 617.23,587.055 593.5,597C 586.553,599.483 579.553,601.65 572.5,603.5C 561.599,605.533 550.599,606.533 539.5,606.5C 520.062,606.324 502.396,600.824 486.5,590C 470.106,575.617 464.94,557.783 471,536.5C 475.751,521.843 478.084,506.843 478,491.5C 475.978,481.788 471.145,473.788 463.5,467.5C 462.571,466.311 462.238,464.978 462.5,463.5C 477.679,461.672 488.846,467.338 496,480.5C 497.562,484.014 498.395,487.681 498.5,491.5C 498.601,501.852 498.267,512.185 497.5,522.5C 494.885,538.547 495.052,554.547 498,570.5C 500.678,579.178 506.178,585.345 514.5,589C 515.944,589.781 517.277,589.614 518.5,588.5C 506.914,571.402 500.914,552.402 500.5,531.5C 500.5,524.5 500.5,517.5 500.5,510.5C 500.5,508.167 500.5,505.833 500.5,503.5C 501.657,495.344 501.823,487.01 501,478.5C 500.707,474.132 499.54,470.132 497.5,466.5C 495.428,460.256 491.928,454.922 487,450.5C 486.517,449.552 486.351,448.552 486.5,447.5C 494.459,447.518 502.292,448.518 510,450.5C 512.561,445.837 514.561,440.837 516,435.5C 517.978,432.355 520.478,429.688 523.5,427.5C 526.512,431.538 529.512,435.538 532.5,439.5C 537.5,434.833 542.5,430.167 547.5,425.5C 552.167,429.833 556.833,434.167 561.5,438.5C 564.082,433.667 566.915,429 570,424.5C 578.314,431.931 581.814,441.265 580.5,452.5C 582.685,452.296 584.685,451.63 586.5,450.5 Z"/></g>
<g><path style="opacity:1" fill="#7c7978" d="M 618.5,539.5 C 619.979,543.909 620.646,548.576 620.5,553.5C 620.498,556.686 620.165,559.686 619.5,562.5C 619.477,554.817 619.143,547.15 618.5,539.5 Z"/></g>
<g><path style="opacity:1" fill="#e7e7e7" d="M 672.5,467.5 C 673.675,467.281 674.675,467.614 675.5,468.5C 677.75,472.668 680.25,476.668 683,480.5C 684.309,482.747 684.975,485.08 685,487.5C 678.664,482.659 672.497,477.659 666.5,472.5C 668.544,470.781 670.544,469.114 672.5,467.5 Z"/></g>
<g><path style="opacity:1" fill="#efefef" d="M 529.5,501.5 C 530.563,491.339 530.563,481.339 529.5,471.5C 529.116,467.396 527.616,463.729 525,460.5C 521.494,457.193 517.994,454.026 514.5,451C 515.267,444.349 517.601,438.349 521.5,433C 522.5,432.333 523.5,432.333 524.5,433C 527.302,436.088 528.802,439.588 529,443.5C 527.145,445.355 525.312,447.188 523.5,449C 534.743,465.215 538.577,483.048 535,502.5C 532.507,511.653 530.674,511.32 529.5,501.5 Z"/></g>
<g><path style="opacity:1" fill="#f8f8f8" d="M 562.5,529.5 C 562.664,536.202 562.331,542.869 561.5,549.5C 559.036,559.724 555.87,569.724 552,579.5C 551.324,584.871 551.491,590.204 552.5,595.5C 561.888,590.27 568.721,582.603 573,572.5C 575.971,562.01 576.971,551.344 576,540.5C 573.642,524.072 570.809,507.739 567.5,491.5C 567.336,484.798 567.669,478.131 568.5,471.5C 574.169,459.307 583.835,452.474 597.5,451C 599.167,450.333 600.833,450.333 602.5,451C 597.817,455.201 594.817,460.368 593.5,466.5C 591.868,469.558 590.701,472.891 590,476.5C 589.5,493.497 589.333,510.497 589.5,527.5C 588.902,543.103 585.735,558.103 580,572.5C 575.866,579.772 572.032,587.105 568.5,594.5C 584.221,594.888 594.387,587.555 599,572.5C 600.938,566.838 601.771,561.005 601.5,555C 599.18,537.065 597.513,519.065 596.5,501C 594.962,480.879 604.129,469.379 624,466.5C 625.167,466.833 626.333,467.167 627.5,467.5C 614.824,477.863 609.657,491.196 612,507.5C 614.105,518.194 616.272,528.86 618.5,539.5C 619.143,547.15 619.477,554.817 619.5,562.5C 617.951,571.756 613.618,579.589 606.5,586C 592.314,595.469 576.647,600.802 559.5,602C 537.903,605.078 517.237,602.078 497.5,593C 478.628,583.088 470.461,567.588 473,546.5C 475.534,534.164 478.201,521.831 481,509.5C 484.354,493.076 480.187,479.076 468.5,467.5C 469.723,466.386 471.056,466.219 472.5,467C 483.352,468.362 490.352,474.196 493.5,484.5C 494.245,494.148 494.578,503.815 494.5,513.5C 492.605,530.774 492.105,548.107 493,565.5C 495.54,580.372 504.04,589.872 518.5,594C 521.227,594.818 523.894,594.652 526.5,593.5C 514.372,578.578 507.205,561.578 505,542.5C 504.667,520.167 504.333,497.833 504,475.5C 502.165,466.468 498.331,458.468 492.5,451.5C 521.642,452.184 532.475,466.851 525,495.5C 522.321,506.434 520.154,517.434 518.5,528.5C 517.057,534.1 516.39,539.933 516.5,546C 516.501,549.683 516.835,553.183 517.5,556.5C 519.449,572.401 526.616,585.401 539,595.5C 541.4,590.804 542.066,585.804 541,580.5C 538.154,570.483 534.487,560.816 530,551.5C 529.333,543.5 529.333,535.5 530,527.5C 533.29,517.921 536.29,508.254 539,498.5C 539.499,493.177 539.666,487.844 539.5,482.5C 539.776,476.354 538.443,470.688 535.5,465.5C 533.709,459.919 531.375,454.585 528.5,449.5C 534.291,443.208 540.291,437.041 546.5,431C 553.809,436.129 560.476,442.296 566.5,449.5C 555.906,464.875 551.406,481.875 553,500.5C 557.324,509.808 560.49,519.474 562.5,529.5 Z"/></g>
<g><path style="opacity:1" fill="#767371" d="M 518.5,528.5 C 517.768,537.815 517.434,547.148 517.5,556.5C 516.835,553.183 516.501,549.683 516.5,546C 516.39,539.933 517.057,534.1 518.5,528.5 Z"/></g>
<g><path style="opacity:1" fill="#d4241c" d="M 596.5,567.5 C 594.633,580.702 587.299,588.035 574.5,589.5C 582.338,576.822 587.671,563.155 590.5,548.5C 591.802,546.328 592.968,543.994 594,541.5C 596.308,549.957 597.142,558.623 596.5,567.5 Z"/></g>
<g><path style="opacity:1" fill="#cd241c" d="M 500.5,531.5 C 500.914,552.402 506.914,571.402 518.5,588.5C 517.277,589.614 515.944,589.781 514.5,589C 506.178,585.345 500.678,579.178 498,570.5C 495.052,554.547 494.885,538.547 497.5,522.5C 498.302,521.048 498.802,519.382 499,517.5C 499.174,522.351 499.674,527.018 500.5,531.5 Z"/></g>
<g><path style="opacity:1" fill="#767371" d="M 562.5,529.5 C 563.164,532.146 563.498,534.979 563.5,538C 563.714,542.133 563.048,545.966 561.5,549.5C 562.331,542.869 562.664,536.202 562.5,529.5 Z"/></g>
<g><path style="opacity:1" fill="#cd241c" d="M 526.5,505.5 C 527.117,505.611 527.617,505.944 528,506.5C 528.446,509.343 528.946,512.176 529.5,515C 526.269,525.616 525.102,536.449 526,547.5C 529.129,557.747 532.796,567.747 537,577.5C 537.825,581.211 537.659,584.878 536.5,588.5C 528.149,579.798 522.982,569.465 521,557.5C 519.805,539.807 521.638,522.474 526.5,505.5 Z"/></g>
<g><path style="opacity:1" fill="#b0231b" d="M 596.5,567.5 C 597.142,558.623 596.308,549.957 594,541.5C 592.968,543.994 591.802,546.328 590.5,548.5C 591.775,539.191 592.942,529.857 594,520.5C 597.379,536.175 598.212,551.841 596.5,567.5 Z"/></g>
<g><path style="opacity:1" fill="#ce241c" d="M 563.5,498.5 C 564.649,498.791 565.316,499.624 565.5,501C 567.666,512.156 569.832,523.322 572,534.5C 572.667,543.833 572.667,553.167 572,562.5C 569.969,573.579 564.635,582.579 556,589.5C 555.333,585.5 555.333,581.5 556,577.5C 559.917,567.003 563.251,556.336 566,545.5C 566.667,539.833 566.667,534.167 566,528.5C 564.089,522.768 562.589,516.935 561.5,511C 562.234,506.833 562.9,502.667 563.5,498.5 Z"/></g>
<g><path style="opacity:1" fill="#9a211a" d="M 498.5,491.5 C 499.167,497.833 499.833,504.167 500.5,510.5C 500.5,517.5 500.5,524.5 500.5,531.5C 499.674,527.018 499.174,522.351 499,517.5C 498.802,519.382 498.302,521.048 497.5,522.5C 498.267,512.185 498.601,501.852 498.5,491.5 Z"/></g>
<g><path style="opacity:1" fill="#bab9b8" d="M 493.5,484.5 C 494.993,490.092 495.659,495.926 495.5,502C 495.499,506.015 495.165,509.849 494.5,513.5C 494.578,503.815 494.245,494.148 493.5,484.5 Z"/></g>
<g><path style="opacity:1" fill="#6c1e19" d="M 497.5,466.5 C 499.54,470.132 500.707,474.132 501,478.5C 501.823,487.01 501.657,495.344 500.5,503.5C 501.088,491.005 500.088,478.671 497.5,466.5 Z"/></g>
<g><path style="opacity:1" fill="#afadac" d="M 529.5,471.5 C 530.563,481.339 530.563,491.339 529.5,501.5C 529.036,491.679 529.036,481.679 529.5,471.5 Z"/></g>
<g><path style="opacity:1" fill="#6f6b6a" d="M 593.5,466.5 C 592.362,471.091 591.529,475.757 591,480.5C 590.831,496.339 590.331,512.005 589.5,527.5C 589.333,510.497 589.5,493.497 590,476.5C 590.701,472.891 591.868,469.558 593.5,466.5 Z"/></g>
<g><path style="opacity:1" fill="#807d7b" d="M 568.5,471.5 C 567.669,478.131 567.336,484.798 567.5,491.5C 566.836,488.854 566.502,486.021 566.5,483C 566.286,478.867 566.952,475.034 568.5,471.5 Z"/></g>
<g><path style="opacity:1" fill="#edecec" d="M 569.5,428.5 C 571.988,429.74 573.821,431.74 575,434.5C 577.216,441.012 578.216,447.679 578,454.5C 570.65,458.87 565.984,465.203 564,473.5C 564.229,485.095 562.729,496.429 559.5,507.5C 558.515,505.228 557.681,502.895 557,500.5C 555.188,488.256 556.855,476.589 562,465.5C 564.713,459.906 567.547,454.406 570.5,449C 568.286,446.291 566.286,443.458 564.5,440.5C 566.176,436.484 567.843,432.484 569.5,428.5 Z"/></g>
<g><path style="opacity:1" fill="#f6f5f5" d="M 557.5,391.5 C 553.012,390.834 548.346,390.501 543.5,390.5C 536.27,390.333 529.27,390.999 522.5,392.5C 497.904,396.131 475.571,405.297 455.5,420C 432.352,437.798 414.019,459.631 400.5,485.5C 399.277,486.614 397.944,486.781 396.5,486C 388.072,480.568 379.405,475.568 370.5,471C 369.426,470.261 368.759,469.261 368.5,468C 393.854,421.641 430.854,388.308 479.5,368C 536.172,349.734 590.172,355.734 641.5,386C 675.56,406.559 701.893,434.392 720.5,469.5C 710.367,475.646 700.201,481.646 690,487.5C 676.231,460.816 657.397,438.316 633.5,420C 610.626,404.096 585.293,394.596 557.5,391.5 Z"/></g>
<g><path style="opacity:1" fill="#e7e7e6" d="M 413.5,468.5 C 417.226,468.899 420.226,470.566 422.5,473.5C 416.5,477.833 410.5,482.167 404.5,486.5C 404.167,486.167 403.833,485.833 403.5,485.5C 406.861,479.816 410.194,474.149 413.5,468.5 Z"/></g>
<g><path style="opacity:1" fill="#666260" d="M 535.5,465.5 C 538.443,470.688 539.776,476.354 539.5,482.5C 538.213,476.941 536.88,471.274 535.5,465.5 Z"/></g>
<g><path style="opacity:1" fill="#2d2826" d="M 390.5,458.5 C 394.853,458.765 399.187,459.265 403.5,460C 398.287,461.888 395.62,465.721 395.5,471.5C 393.667,468.5 391.833,465.5 390,462.5C 389.421,461.072 389.588,459.738 390.5,458.5 Z"/></g>
<g><path style="opacity:1" fill="#d1d0cf" d="M 393.5,461.5 C 396.957,461.667 397.29,462.667 394.5,464.5C 393.614,463.675 393.281,462.675 393.5,461.5 Z"/></g>
<g><path style="opacity:1" fill="#3f3b39" d="M 688.5,454.5 C 691.187,454.336 693.854,454.503 696.5,455C 697.022,455.561 697.355,456.228 697.5,457C 695.633,460.565 693.633,464.065 691.5,467.5C 690.772,464.788 689.939,462.121 689,459.5C 682.11,457.79 681.943,456.123 688.5,454.5 Z"/></g>
<g><path style="opacity:1" fill="#611f18" d="M 603.5,446.5 C 598.037,448.196 592.371,449.529 586.5,450.5C 591.775,448.002 597.442,446.669 603.5,446.5 Z"/></g>
<g><path style="opacity:1" fill="#35302e" d="M 681.5,437.5 C 682.995,437.415 683.995,438.081 684.5,439.5C 682.985,440.591 682.152,441.924 682,443.5C 683.881,446.754 686.047,447.088 688.5,444.5C 689.5,444.833 690.167,445.5 690.5,446.5C 688.149,449.425 685.315,451.758 682,453.5C 681.5,453.167 681,452.833 680.5,452.5C 684.618,449.372 684.285,446.706 679.5,444.5C 678.032,446.333 676.365,446.666 674.5,445.5C 676.907,442.769 679.241,440.102 681.5,437.5 Z"/></g>
<g><path style="opacity:1" fill="#36312e" d="M 401.5,442.5 C 406.123,442.13 409.123,444.13 410.5,448.5C 409.286,452.043 407.286,455.043 404.5,457.5C 401.158,455.673 398.492,453.173 396.5,450C 398.295,447.574 399.962,445.074 401.5,442.5 Z"/></g>
<g><path style="opacity:1" fill="#edecec" d="M 402.5,445.5 C 407.982,446.764 408.815,449.431 405,453.5C 399.071,452.031 398.238,449.364 402.5,445.5 Z"/></g>
<g><path style="opacity:1" fill="#2e2927" d="M 412.5,428.5 C 416.08,430.408 419.08,433.074 421.5,436.5C 419.635,437.666 417.968,437.333 416.5,435.5C 415.186,436.313 414.019,437.313 413,438.5C 413.763,440.391 414.597,442.391 415.5,444.5C 411.488,443.33 408.488,440.83 406.5,437C 406.833,436.5 407.167,436 407.5,435.5C 410.137,438.416 412.303,438.083 414,434.5C 413.405,432.65 412.905,430.65 412.5,428.5 Z"/></g>
<g><path style="opacity:1" fill="#34302e" d="M 670.5,425.5 C 673.355,426.834 675.855,428.834 678,431.5C 679.258,437.868 676.758,440.702 670.5,440C 668.316,437.984 666.316,435.817 664.5,433.5C 666.934,431.079 668.934,428.412 670.5,425.5 Z"/></g>
<g><path style="opacity:1" fill="#ececec" d="M 671.5,429.5 C 674.955,430.128 676.122,432.128 675,435.5C 672.099,438.318 669.599,437.984 667.5,434.5C 668.857,432.814 670.19,431.148 671.5,429.5 Z"/></g>
<g><path style="opacity:1" fill="#342f2d" d="M 417.5,423.5 C 420.435,426.093 423.435,428.76 426.5,431.5C 425.965,433.101 424.965,433.601 423.5,433C 421.333,430.833 419.167,428.667 417,426.5C 416.53,425.423 416.697,424.423 417.5,423.5 Z"/></g>
<g><path style="opacity:1" fill="#312d2a" d="M 427.5,413.5 C 428.376,413.369 429.043,413.702 429.5,414.5C 428.833,415.5 428.167,416.5 427.5,417.5C 429.555,419.555 431.221,421.888 432.5,424.5C 432.192,425.308 431.692,425.975 431,426.5C 428.81,424.612 426.977,422.445 425.5,420C 424.004,419.493 422.837,419.993 422,421.5C 421.833,421.167 421.667,420.833 421.5,420.5C 423.523,418.147 425.523,415.814 427.5,413.5 Z"/></g>
<g><path style="opacity:1" fill="#342f2d" d="M 655.5,415.5 C 663.01,414.852 666.843,418.186 667,425.5C 663.075,429.41 659.075,429.41 655,425.5C 652.872,421.975 653.039,418.642 655.5,415.5 Z"/></g>
<g><path style="opacity:1" fill="#e8e7e7" d="M 658.5,417.5 C 664.293,418.421 665.626,421.255 662.5,426C 657.504,426.664 655.67,424.498 657,419.5C 657.717,418.956 658.217,418.289 658.5,417.5 Z"/></g>
<g><path style="opacity:1" fill="#312c29" d="M 646.5,404.5 C 648.308,405.918 648.975,407.918 648.5,410.5C 650.401,410.567 652.234,410.233 654,409.5C 655.28,409.613 656.113,410.28 656.5,411.5C 654.234,412.314 651.9,412.814 649.5,413C 648.047,415.705 646.047,416.539 643.5,415.5C 646.192,412.387 647.192,408.721 646.5,404.5 Z"/></g>
<g><path style="opacity:1" fill="#2b2724" d="M 438.5,404.5 C 440.22,406.658 441.053,409.325 441,412.5C 443.168,413.629 443.668,415.129 442.5,417C 440.813,416.807 439.479,415.807 438.5,414C 427.89,411.548 427.89,410.715 438.5,411.5C 438.5,409.167 438.5,406.833 438.5,404.5 Z"/></g>
<g><path style="opacity:1" fill="#393431" d="M 631.5,394.5 C 632.583,394.539 633.583,394.873 634.5,395.5C 635.833,400.167 635.833,404.833 634.5,409.5C 633.209,407.104 631.542,404.937 629.5,403C 627.765,402.349 626.098,402.515 624.5,403.5C 623.5,403.167 622.833,402.5 622.5,401.5C 625.75,399.388 628.75,397.055 631.5,394.5 Z"/></g>
<g><path style="opacity:1" fill="#3b3634" d="M 446.5,398.5 C 450.69,400 454.69,402 458.5,404.5C 457.462,406.764 455.962,407.098 454,405.5C 450.307,406.427 448.14,408.761 447.5,412.5C 446.121,407.797 445.788,403.13 446.5,398.5 Z"/></g>
<g><path style="opacity:1" fill="#cccbca" d="M 630.5,398.5 C 632.048,398.821 632.715,399.821 632.5,401.5C 629.752,401.598 629.086,400.598 630.5,398.5 Z"/></g>
<g><path style="opacity:1" fill="#312d2b" d="M 615.5,385.5 C 616.496,385.414 617.329,385.748 618,386.5C 618.333,389.5 618.667,392.5 619,395.5C 620.5,394 622,392.5 623.5,391C 624.944,390.219 626.277,390.386 627.5,391.5C 624.468,394.368 621.302,397.035 618,399.5C 617.228,399.355 616.561,399.022 616,398.5C 615.501,394.179 615.334,389.846 615.5,385.5 Z"/></g>
<g><path style="opacity:1" fill="#332f2c" d="M 468.5,385.5 C 469.239,385.369 469.906,385.536 470.5,386C 469.424,387.726 469.257,389.559 470,391.5C 472.185,392.67 474.351,393.836 476.5,395C 473.23,396.942 470.23,396.442 467.5,393.5C 466.833,395.833 466.167,398.167 465.5,400.5C 463.563,397.624 461.896,394.624 460.5,391.5C 460.833,390.833 461.167,390.167 461.5,389.5C 462.719,390.263 463.719,391.263 464.5,392.5C 465.588,389.986 466.922,387.652 468.5,385.5 Z"/></g>
<g><path style="opacity:1" fill="#797674" d="M 557.5,391.5 C 545.815,391.365 534.148,391.698 522.5,392.5C 529.27,390.999 536.27,390.333 543.5,390.5C 548.346,390.501 553.012,390.834 557.5,391.5 Z"/></g>
<g><path style="opacity:1" fill="#37322f" d="M 602.5,380.5 C 606.248,381.538 609.915,382.871 613.5,384.5C 611.955,385.452 610.288,385.785 608.5,385.5C 608.306,388.33 607.639,390.996 606.5,393.5C 605.5,393.5 604.5,393.5 603.5,393.5C 604.207,389.752 605.207,386.086 606.5,382.5C 604.517,382.843 603.183,382.176 602.5,380.5 Z"/></g>
<g><path style="opacity:1" fill="#3b3633" d="M 479.5,380.5 C 480.552,380.351 481.552,380.517 482.5,381C 485.042,383.711 487.709,386.211 490.5,388.5C 487.262,388.324 483.928,388.657 480.5,389.5C 480.884,391.665 480.217,393.332 478.5,394.5C 476.988,389.562 477.321,384.896 479.5,380.5 Z"/></g>
<g><path style="opacity:1" fill="#d6d5d5" d="M 480.5,384.5 C 483.861,385.203 484.194,386.537 481.5,388.5C 480.571,387.311 480.238,385.978 480.5,384.5 Z"/></g>
<g><path style="opacity:1" fill="#302b29" d="M 593.5,377.5 C 594.833,377.5 596.167,377.5 597.5,377.5C 598.007,381.86 598.673,386.193 599.5,390.5C 598.5,390.5 597.5,390.5 596.5,390.5C 596.321,387.23 594.488,385.563 591,385.5C 589.739,385.759 588.739,386.426 588,387.5C 587.308,386.975 586.808,386.308 586.5,385.5C 588.856,382.814 591.189,380.147 593.5,377.5 Z"/></g>
<g><path style="opacity:1" fill="#c5c3c2" d="M 594.5,380.5 C 595.434,381.568 595.768,382.901 595.5,384.5C 594.325,384.719 593.325,384.386 592.5,383.5C 593.193,382.482 593.859,381.482 594.5,380.5 Z"/></g>
<g><path style="opacity:1" fill="#3d3836" d="M 495.5,374.5 C 502.19,373.331 503.857,375.497 500.5,381C 502.305,381.972 503.972,383.139 505.5,384.5C 504.833,384.833 504.167,385.167 503.5,385.5C 501.313,384.242 498.98,383.242 496.5,382.5C 495.833,382.833 495.167,383.167 494.5,383.5C 495.246,384.736 495.579,386.07 495.5,387.5C 494.5,387.5 493.5,387.5 492.5,387.5C 492.538,384.193 491.872,381.026 490.5,378C 491.921,376.377 493.588,375.21 495.5,374.5 Z"/></g>
<g><path style="opacity:1" fill="#322d2b" d="M 513.5,370.5 C 514.675,370.281 515.675,370.614 516.5,371.5C 513.885,375.04 512.885,379.04 513.5,383.5C 512.5,383.5 511.5,383.5 510.5,383.5C 510.66,381.801 510.494,380.134 510,378.5C 507.842,377.174 506.008,375.507 504.5,373.5C 505,373.167 505.5,372.833 506,372.5C 507.626,373.289 509.126,374.289 510.5,375.5C 512.262,374.312 513.262,372.645 513.5,370.5 Z"/></g>
<g><path style="opacity:1" fill="#3c3835" d="M 573.5,372.5 C 574.5,372.5 575.5,372.5 576.5,372.5C 576.5,374.167 576.5,375.833 576.5,377.5C 578.5,377.5 580.5,377.5 582.5,377.5C 582.5,376.167 582.5,374.833 582.5,373.5C 584.948,373.085 586.281,374.085 586.5,376.5C 585.414,379.42 584.748,382.42 584.5,385.5C 583.5,385.5 582.5,385.5 581.5,385.5C 581.5,383.5 581.5,381.5 581.5,379.5C 579.5,379.5 577.5,379.5 575.5,379.5C 575.5,380.833 575.5,382.167 575.5,383.5C 574.5,383.5 573.5,383.5 572.5,383.5C 573.244,379.881 573.577,376.215 573.5,372.5 Z"/></g>
<g><path style="opacity:1" fill="#dbdad9" d="M 496.5,376.5 C 497.5,376.5 498.5,376.5 499.5,376.5C 499.5,377.5 499.5,378.5 499.5,379.5C 497.5,379.833 495.5,380.167 493.5,380.5C 493.5,379.5 493.5,378.5 493.5,377.5C 494.791,377.737 495.791,377.404 496.5,376.5 Z"/></g>
<g><path style="opacity:1" fill="#332f2c" d="M 562.5,369.5 C 563.822,369.33 564.989,369.663 566,370.5C 567.045,374.344 568.545,378.01 570.5,381.5C 569.311,382.429 567.978,382.762 566.5,382.5C 566.845,379.512 565.512,378.179 562.5,378.5C 560.306,378.954 558.473,379.954 557,381.5C 556.5,381.167 556,380.833 555.5,380.5C 558.094,376.974 560.427,373.308 562.5,369.5 Z"/></g>
<g><path style="opacity:1" fill="#adabaa" d="M 562.5,373.5 C 564.121,373.787 565.121,374.787 565.5,376.5C 564.167,377.833 562.833,377.833 561.5,376.5C 562.127,375.583 562.461,374.583 562.5,373.5 Z"/></g>
<g><path style="opacity:1" fill="#302c29" d="M 549.5,369.5 C 550.833,369.5 552.167,369.5 553.5,369.5C 553.5,373.167 553.5,376.833 553.5,380.5C 551.938,378.628 550.938,376.295 550.5,373.5C 549.365,375.707 548.699,378.04 548.5,380.5C 547.167,380.5 545.833,380.5 544.5,380.5C 543.37,371.365 542.703,371.365 542.5,380.5C 541.5,380.5 540.5,380.5 539.5,380.5C 539.5,376.5 539.5,372.5 539.5,368.5C 541.167,368.5 542.833,368.5 544.5,368.5C 545.59,376.993 547.256,377.326 549.5,369.5 Z"/></g>
<g><path style="opacity:1" fill="#2d2826" d="M 521.5,369.5 C 522.873,369.343 524.207,369.51 525.5,370C 528.093,372.766 530.093,375.933 531.5,379.5C 531,379.833 530.5,380.167 530,380.5C 527.405,378.854 524.572,378.187 521.5,378.5C 521.5,379.5 521.5,380.5 521.5,381.5C 520.5,381.5 519.5,381.5 518.5,381.5C 519.5,377.5 520.5,373.5 521.5,369.5 Z"/></g>
<g><path style="opacity:1" fill="#c0bebd" d="M 523.5,372.5 C 525.104,373.287 525.771,374.62 525.5,376.5C 524.5,376.5 523.5,376.5 522.5,376.5C 522.433,375.041 522.766,373.708 523.5,372.5 Z"/></g>
<g><path style="opacity:1" fill="#73706e" d="M 549.5,369.5 C 550.919,368.549 552.585,368.216 554.5,368.5C 554.817,372.702 554.483,376.702 553.5,380.5C 553.5,376.833 553.5,373.167 553.5,369.5C 552.167,369.5 550.833,369.5 549.5,369.5 Z"/></g>
<g><path style="opacity:1" fill="#6f1e18" d="M 553.5,355.5 C 541.15,355.382 528.817,355.715 516.5,356.5C 523.605,354.988 530.938,354.321 538.5,354.5C 543.678,354.501 548.678,354.834 553.5,355.5 Z"/></g>
<g><path style="opacity:1" fill="#a5221b" d="M 556.5,340.5 C 542.127,340.539 527.793,341.206 513.5,342.5C 517.876,340.862 522.542,340.029 527.5,340C 537.342,339.175 547.009,339.342 556.5,340.5 Z"/></g>
<g><path style="opacity:1" fill="#89820f" d="M 568.5,336.5 C 573.536,336.588 578.536,337.088 583.5,338C 584.416,338.278 585.082,338.778 585.5,339.5C 579.651,338.804 573.984,337.804 568.5,336.5 Z"/></g>
<g><path style="opacity:1" fill="#6e6712" d="M 303.5,668.5 C 303.833,668.5 304.167,668.5 304.5,668.5C 305.167,671.5 305.833,674.5 306.5,677.5C 304.528,674.916 303.528,671.916 303.5,668.5 Z"/></g>
<g><path style="opacity:1" fill="#362824" d="M 572.5,744.5 C 559.228,746.139 545.895,746.805 532.5,746.5C 489.927,744.489 453.093,729.155 422,700.5C 418.097,693.507 417.597,686.34 420.5,679C 411.325,672.913 402.325,666.579 393.5,660C 385.328,652.821 379.828,643.987 377,633.5C 375.622,619.897 372.955,606.563 369,593.5C 366.411,588.881 362.577,587.047 357.5,588C 357,588.5 356.5,589 356,589.5C 355.827,594.584 355.161,599.584 354,604.5C 352.612,605.554 351.112,605.72 349.5,605C 342.057,595.104 343.057,586.104 352.5,578C 359.887,574.339 366.887,575.006 373.5,580C 378.083,583.912 381.917,588.412 385,593.5C 388.21,603.344 391.877,613.01 396,622.5C 405.86,635.006 418.027,644.506 432.5,651C 445.275,654.147 457.608,658.48 469.5,664C 478.405,672.168 478.739,680.668 470.5,689.5C 470.977,690.478 471.643,691.311 472.5,692C 509.719,710.272 548.386,713.605 588.5,702C 598.291,698.353 607.625,693.853 616.5,688.5C 607.938,678.953 608.605,670.119 618.5,662C 629.361,656.781 640.694,652.781 652.5,650C 664.267,644.699 674.767,637.532 684,628.5C 688.375,622.403 692.208,616.07 695.5,609.5C 697.402,594.527 704.736,583.027 717.5,575C 727.793,573.396 735.293,577.23 740,586.5C 741.588,593.162 740.088,598.995 735.5,604C 734.167,604.667 732.833,604.667 731.5,604C 730.032,598.601 728.865,593.101 728,587.5C 724.76,585.964 721.76,586.297 719,588.5C 716.196,592.443 714.196,596.777 713,601.5C 711.594,611.157 710.26,620.824 709,630.5C 706.529,642.64 700.362,652.474 690.5,660C 681.929,666.536 673.095,672.703 664,678.5C 665.432,685.01 665.766,691.676 665,698.5C 639.21,723.747 608.376,739.08 572.5,744.5 Z"/></g>
<g><path style="opacity:1" fill="#f3f2f2" d="M 516.5,709.5 C 523.772,711.017 531.272,711.684 539,711.5C 544.344,711.499 549.511,711.166 554.5,710.5C 588.948,708.438 618.281,695.271 642.5,671C 659.114,671.987 665.614,680.821 662,697.5C 627.847,729.02 587.347,744.687 540.5,744.5C 499.29,743.545 462.623,730.379 430.5,705C 421.441,698.553 418.941,690.053 423,679.5C 426.96,672.772 432.793,669.605 440.5,670C 461.204,691.854 486.538,705.021 516.5,709.5 Z"/></g>
<g><path style="opacity:1" fill="#2b2624" d="M 622.5,696.5 C 624.017,696.511 625.184,697.177 626,698.5C 628.167,702.167 630.333,705.833 632.5,709.5C 631.562,710.553 630.395,711.22 629,711.5C 625.24,710.852 621.74,709.518 618.5,707.5C 618.167,707.833 617.833,708.167 617.5,708.5C 619.412,710.657 621.079,712.991 622.5,715.5C 622.167,716.5 621.5,717.167 620.5,717.5C 617.143,713.465 614.143,709.132 611.5,704.5C 612.328,703.585 613.328,702.919 614.5,702.5C 618.506,703.792 622.339,705.458 626,707.5C 625.303,704.246 623.803,701.246 621.5,698.5C 621.863,697.817 622.196,697.15 622.5,696.5 Z"/></g>
<g><path style="opacity:1" fill="#2b2724" d="M 459.5,698.5 C 460.822,698.33 461.989,698.663 463,699.5C 463.965,705.657 463.465,711.657 461.5,717.5C 460.264,714.769 458.597,712.269 456.5,710C 453.118,709.364 449.785,708.697 446.5,708C 450.901,704.812 455.234,701.645 459.5,698.5 Z"/></g>
<g><path style="opacity:1" fill="#cac9c8" d="M 459.5,702.5 C 460.793,704.364 460.793,706.364 459.5,708.5C 454.541,706.734 454.541,704.734 459.5,702.5 Z"/></g>
<g><path style="opacity:1" fill="#2c2725" d="M 630.5,689.5 C 636.824,690.775 642.824,692.941 648.5,696C 646.038,697.216 643.371,697.882 640.5,698C 637.424,699.663 636.424,701.996 637.5,705C 637.07,706.434 636.236,707.601 635,708.5C 633.292,702.963 631.459,697.463 629.5,692C 629.743,691.098 630.077,690.265 630.5,689.5 Z"/></g>
<g><path style="opacity:1" fill="#d2d1d0" d="M 633.5,693.5 C 635.842,693.504 637.842,694.337 639.5,696C 636.071,699.464 634.071,698.63 633.5,693.5 Z"/></g>
<g><path style="opacity:1" fill="#2b2724" d="M 442.5,684.5 C 444.346,684.222 445.68,684.889 446.5,686.5C 445.352,688.149 444.019,689.649 442.5,691C 446.167,691.333 449.833,691.667 453.5,692C 454.5,693 455.5,694 456.5,695C 453.183,695.498 449.85,695.665 446.5,695.5C 446.823,699.226 446.489,702.893 445.5,706.5C 443.616,705.885 442.616,704.552 442.5,702.5C 443.095,699.86 443.428,697.193 443.5,694.5C 440.487,694.372 437.987,695.372 436,697.5C 434.72,697.387 433.887,696.72 433.5,695.5C 436.902,692.105 439.902,688.438 442.5,684.5 Z"/></g>
<g><path style="opacity:1" fill="#ecebeb" d="M 443.5,668.5 C 448.725,668.297 453.392,669.797 457.5,673C 462.16,676.996 467.16,680.496 472.5,683.5C 471.533,687.323 469.199,688.823 465.5,688C 457.01,682.669 449.676,676.169 443.5,668.5 Z"/></g>
<g><path style="opacity:1" fill="#eaeae9" d="M 637.5,667.5 C 638.978,667.238 640.311,667.571 641.5,668.5C 634.971,675.196 627.971,681.363 620.5,687C 619.216,687.684 618.049,687.517 617,686.5C 616.028,684.695 614.861,683.028 613.5,681.5C 615.078,680.702 616.744,680.202 618.5,680C 624.292,674.787 630.625,670.62 637.5,667.5 Z"/></g>
<g><path style="opacity:1" fill="#312420" d="M 625.5,617.5 C 623.696,616.838 621.696,616.505 619.5,616.5C 616.186,616.343 613.186,617.009 610.5,618.5C 605.316,620.26 600.983,623.26 597.5,627.5C 606.841,627.122 616.174,627.622 625.5,629C 638.273,633.082 639.606,639.416 629.5,648C 622.897,654.387 615.064,657.887 606,658.5C 601.875,658.729 598.042,657.896 594.5,656C 586.977,650.136 579.81,643.969 573,637.5C 571.056,638.439 569.389,639.773 568,641.5C 566.138,645.419 564.471,649.419 563,653.5C 552.617,644.837 542.117,644.504 531.5,652.5C 529.963,648.421 528.129,644.421 526,640.5C 524.136,637.793 521.636,636.959 518.5,638C 513.448,642.783 509.115,648.117 505.5,654C 491.434,660.882 478.101,659.549 465.5,650C 463,647.5 460.5,645 458,642.5C 456.357,637.572 457.857,634.072 462.5,632C 464.5,631.333 466.5,630.667 468.5,630C 477.45,628.82 486.45,628.153 495.5,628C 487.555,618.685 477.555,615.352 465.5,618C 458.135,620.436 450.968,623.269 444,626.5C 429.324,622.342 416.991,614.676 407,603.5C 402.456,594.979 403.956,587.812 411.5,582C 422.869,575.074 434.869,573.741 447.5,578C 469.076,592.454 492.409,603.12 517.5,610C 557.172,617.766 594.172,611.099 628.5,590C 634.918,585.242 641.584,580.909 648.5,577C 664.705,573.763 678.539,577.929 690,589.5C 690.667,592.833 690.667,596.167 690,599.5C 688.224,602.941 686.057,606.108 683.5,609C 673.571,616.132 662.904,621.965 651.5,626.5C 643.226,622.298 634.559,619.298 625.5,617.5 Z"/></g>
<g><path style="opacity:1" fill="#9c9998" d="M 478.5,653.5 C 484.346,655.155 490.346,655.822 496.5,655.5C 492.354,656.647 488.02,656.814 483.5,656C 481.509,655.626 479.842,654.793 478.5,653.5 Z"/></g>
<g><path style="opacity:1" fill="#605c5a" d="M 499.5,629.5 C 500.043,629.56 500.376,629.893 500.5,630.5C 489.456,631.168 478.456,632.168 467.5,633.5C 469.877,632.113 472.543,631.279 475.5,631C 483.677,630.829 491.677,630.329 499.5,629.5 Z"/></g>
<g><path style="opacity:1" fill="#fbfafa" d="M 496.5,655.5 C 490.346,655.822 484.346,655.155 478.5,653.5C 472.377,651.214 466.877,647.881 462,643.5C 458.843,637.497 460.677,634.164 467.5,633.5C 478.456,632.168 489.456,631.168 500.5,630.5C 500.376,629.893 500.043,629.56 499.5,629.5C 494.649,621.727 487.649,616.894 478.5,615C 472.796,614.47 467.129,614.803 461.5,616C 455.35,618.245 449.35,620.745 443.5,623.5C 433.947,620.057 424.947,615.557 416.5,610C 410.128,605.342 406.961,599.175 407,591.5C 411.63,584.434 418.13,580.267 426.5,579C 432.882,578.311 439.215,578.645 445.5,580C 463.915,592.04 483.582,601.707 504.5,609C 548.194,621.996 589.528,616.663 628.5,593C 635.951,587.278 643.951,582.612 652.5,579C 665.072,577.528 676.238,580.694 686,588.5C 689.333,592.833 689.333,597.167 686,601.5C 684.207,604.295 682.04,606.795 679.5,609C 671.607,614.114 663.274,618.447 654.5,622C 649,622.762 644,621.428 639.5,618C 630.687,615.169 621.687,614.169 612.5,615C 605.532,616.569 599.699,620.069 595,625.5C 593.126,627.569 592.126,629.902 592,632.5C 602.387,630.672 612.887,630.172 623.5,631C 635.464,634.197 636.464,639.53 626.5,647C 616.321,656.3 604.987,657.967 592.5,652C 587.5,647 582.5,642 577.5,637C 572.903,634.46 569.07,635.293 566,639.5C 564.696,642.787 563.03,645.787 561,648.5C 552.809,644.422 544.309,643.589 535.5,646C 534.646,647.022 533.646,647.855 532.5,648.5C 530.952,641.8 527.119,637.133 521,634.5C 519.373,634.625 517.873,635.125 516.5,636C 511.356,641.298 506.689,646.965 502.5,653C 500.372,653.655 498.372,654.489 496.5,655.5 Z"/></g>
<g><path style="opacity:1" fill="#7f1f19" d="M 625.5,617.5 C 620.463,617.413 615.463,617.746 610.5,618.5C 613.186,617.009 616.186,616.343 619.5,616.5C 621.696,616.505 623.696,616.838 625.5,617.5 Z"/></g>
<g><path style="opacity:1" fill="#a0221a" d="M 572.5,603.5 C 561.718,607.192 550.718,608.192 539.5,606.5C 550.599,606.533 561.599,605.533 572.5,603.5 Z"/></g>
<g><path style="opacity:1" fill="#f8f8f8" d="M 450.5,667.5 C 448.022,666.836 445.355,666.503 442.5,666.5C 438.531,666.294 434.865,666.961 431.5,668.5C 427.4,670.309 423.9,672.975 421,676.5C 407.907,669.442 396.241,660.442 386,649.5C 383.139,645.112 380.806,640.446 379,635.5C 377.653,623.388 375.653,611.388 373,599.5C 371.72,591.89 367.387,587.224 360,585.5C 357.497,585.99 355.497,587.323 354,589.5C 353.501,594.155 353.334,598.821 353.5,603.5C 349.846,603.249 347.679,601.249 347,597.5C 344.424,588.153 347.59,581.653 356.5,578C 361.403,577.063 366.07,577.73 370.5,580C 381.478,588.443 387.978,599.61 390,613.5C 392.706,620.422 396.54,626.589 401.5,632C 408.167,637.333 414.833,642.667 421.5,648C 434.221,653.129 447.221,657.462 460.5,661C 464.852,662.682 468.686,665.182 472,668.5C 474.245,671.881 474.912,675.548 474,679.5C 473.275,680.059 472.442,680.392 471.5,680.5C 464.754,675.753 457.754,671.42 450.5,667.5 Z"/></g>
<g><path style="opacity:1" fill="#a7a4a3" d="M 450.5,667.5 C 444.131,667.347 437.797,667.68 431.5,668.5C 434.865,666.961 438.531,666.294 442.5,666.5C 445.355,666.503 448.022,666.836 450.5,667.5 Z"/></g>
<g><path style="opacity:1" fill="#f8f8f8" d="M 695.5,609.5 C 697.949,600.932 701.782,592.932 707,585.5C 715.821,574.815 725.488,573.815 736,582.5C 739.696,589.369 739.196,595.869 734.5,602C 733.552,602.483 732.552,602.649 731.5,602.5C 731.666,597.821 731.499,593.155 731,588.5C 725.694,583.021 720.694,583.355 716,589.5C 714.107,592.618 712.774,595.951 712,599.5C 709.836,611.477 707.836,623.477 706,635.5C 703.155,644.011 698.321,651.178 691.5,657C 682.591,664.371 673.091,670.871 663,676.5C 656.513,670.84 649.013,667.174 640.5,665.5C 637.362,665.868 634.362,666.701 631.5,668C 626.266,672.238 620.766,676.071 615,679.5C 614.228,679.355 613.561,679.022 613,678.5C 611.959,670.1 615.459,664.266 623.5,661C 635.473,657.009 647.473,653.009 659.5,649C 674.23,641.604 685.73,630.771 694,616.5C 694.977,614.26 695.477,611.927 695.5,609.5 Z"/></g>
<g><path style="opacity:1" fill="#676361" d="M 516.5,709.5 C 529.149,710.322 541.815,710.655 554.5,710.5C 549.511,711.166 544.344,711.499 539,711.5C 531.272,711.684 523.772,711.017 516.5,709.5 Z"/></g>
<g><path style="opacity:1" fill="#282421" d="M 469.5,705.5 C 474.559,706.28 479.059,708.28 483,711.5C 483.698,715.651 481.865,717.984 477.5,718.5C 478.577,720.729 479.244,723.063 479.5,725.5C 478.178,725.67 477.011,725.337 476,724.5C 475.941,721.178 474.774,718.344 472.5,716C 469.507,715.743 468.174,717.243 468.5,720.5C 466.365,720.853 465.032,720.02 464.5,718C 466.595,713.981 468.261,709.814 469.5,705.5 Z"/></g>
<g><path style="opacity:1" fill="#e0dfde" d="M 472.5,709.5 C 474.564,709.687 476.564,710.187 478.5,711C 479.337,712.011 479.67,713.178 479.5,714.5C 476.794,714.425 474.127,714.092 471.5,713.5C 471.433,712.041 471.766,710.708 472.5,709.5 Z"/></g>
<g><path style="opacity:1" fill="#2a2523" d="M 584.5,714.5 C 587.518,714.335 590.518,714.502 593.5,715C 596.318,717.901 595.984,720.401 592.5,722.5C 594.54,724.177 596.54,725.844 598.5,727.5C 597.833,727.833 597.167,728.167 596.5,728.5C 593.146,726.324 589.479,724.99 585.5,724.5C 586.092,727.127 586.425,729.794 586.5,732.5C 585.167,732.5 583.833,732.5 582.5,732.5C 581.977,727.408 580.977,722.408 579.5,717.5C 580.947,716.065 582.614,715.065 584.5,714.5 Z"/></g>
<g><path style="opacity:1" fill="#e2e1e1" d="M 587.5,716.5 C 590.5,716.167 591.833,717.5 591.5,720.5C 589.063,720.756 586.729,721.423 584.5,722.5C 583.548,720.955 583.215,719.288 583.5,717.5C 585.099,717.768 586.432,717.434 587.5,716.5 Z"/></g>
<g><path style="opacity:1" fill="#2f2a27" d="M 566.5,719.5 C 568.199,719.34 569.866,719.506 571.5,720C 574.377,724.255 577.377,728.422 580.5,732.5C 578.693,733.799 577.027,733.632 575.5,732C 572.833,731.333 570.167,731.333 567.5,732C 566.62,733.356 566.286,734.856 566.5,736.5C 565.167,736.5 563.833,736.5 562.5,736.5C 563.675,730.799 565.009,725.132 566.5,719.5 Z"/></g>
<g><path style="opacity:1" fill="#2c2725" d="M 607.5,705.5 C 608.496,705.414 609.329,705.748 610,706.5C 610.725,708.949 611.725,711.283 613,713.5C 614.371,720.317 611.537,724.317 604.5,725.5C 602.617,725.124 601.117,724.124 600,722.5C 598.403,719.209 596.903,715.875 595.5,712.5C 596.035,710.899 597.035,710.399 598.5,711C 600.248,714.499 602.248,717.832 604.5,721C 607.581,721.628 609.581,720.461 610.5,717.5C 609.307,714.281 607.974,711.114 606.5,708C 606.743,707.098 607.077,706.265 607.5,705.5 Z"/></g>
<g><path style="opacity:1" fill="#3a3533" d="M 549.5,720.5 C 553.833,720.5 558.167,720.5 562.5,720.5C 562.5,721.5 562.5,722.5 562.5,723.5C 560.833,723.5 559.167,723.5 557.5,723.5C 557.54,728.193 557.873,732.859 558.5,737.5C 556.833,737.5 555.167,737.5 553.5,737.5C 553.5,733.167 553.5,728.833 553.5,724.5C 551.5,724.5 549.5,724.5 547.5,724.5C 547.527,722.801 548.194,721.467 549.5,720.5 Z"/></g>
<g><path style="opacity:1" fill="#302c29" d="M 492.5,714.5 C 494.467,714.261 496.301,714.594 498,715.5C 498.904,721.135 499.404,726.802 499.5,732.5C 498.167,732.5 496.833,732.5 495.5,732.5C 495.859,730.234 495.192,728.401 493.5,727C 491.782,726.654 490.115,726.154 488.5,725.5C 486.724,727.447 484.724,727.78 482.5,726.5C 485.48,722.189 488.813,718.189 492.5,714.5 Z"/></g>
<g><path style="opacity:1" fill="#dedddd" d="M 492.5,719.5 C 493.649,719.791 494.316,720.624 494.5,722C 493.83,724.897 492.497,725.064 490.5,722.5C 491.193,721.482 491.859,720.482 492.5,719.5 Z"/></g>
<g><path style="opacity:1" fill="#e2e2e1" d="M 568.5,723.5 C 570.257,724.292 571.591,725.625 572.5,727.5C 571.311,728.429 569.978,728.762 568.5,728.5C 568.5,726.833 568.5,725.167 568.5,723.5 Z"/></g>
<g><path style="opacity:1" fill="#2e2927" d="M 504.5,717.5 C 506.144,717.286 507.644,717.62 509,718.5C 510.139,722.112 511.806,725.446 514,728.5C 515.136,725.904 515.969,723.237 516.5,720.5C 517.5,720.5 518.5,720.5 519.5,720.5C 518.444,725.781 517.777,731.114 517.5,736.5C 515.61,736.703 514.11,736.037 513,734.5C 510.957,731.288 509.123,727.955 507.5,724.5C 506.322,727.391 505.655,730.391 505.5,733.5C 504.5,733.5 503.5,733.5 502.5,733.5C 503.296,728.184 503.963,722.851 504.5,717.5 Z"/></g>
<g><path style="opacity:1" fill="#282321" d="M 527.5,720.5 C 532.839,719.911 536.506,721.911 538.5,726.5C 535.657,725.995 532.99,724.995 530.5,723.5C 525.747,724.643 524.247,727.643 526,732.5C 526.374,733.416 526.874,734.25 527.5,735C 530.192,735.43 532.859,735.263 535.5,734.5C 535.5,733.5 535.5,732.5 535.5,731.5C 534.022,731.762 532.689,731.429 531.5,730.5C 533.743,729.526 536.076,729.192 538.5,729.5C 538.768,732.119 538.435,734.619 537.5,737C 533.5,737.667 529.5,737.667 525.5,737C 519.725,730.701 520.392,725.201 527.5,720.5 Z"/></g>
<g><path style="opacity:1" fill="#96201a" d="M 572.5,744.5 C 572.082,745.222 571.416,745.722 570.5,746C 557.69,747.604 545.024,747.771 532.5,746.5C 545.895,746.805 559.228,746.139 572.5,744.5 Z"/></g>
<g><path style="opacity:1" fill="#676111" d="M 488.5,759.5 C 491.152,759.41 493.485,760.076 495.5,761.5C 492.848,761.59 490.515,760.924 488.5,759.5 Z"/></g>
<g><path style="opacity:1" fill="#524c14" d="M 507.5,763.5 C 514.098,763.625 520.431,764.625 526.5,766.5C 519.889,766.453 513.556,765.453 507.5,763.5 Z"/></g>
<g><path style="opacity:1" fill="#726b10" d="M 362.5,772.5 C 363.924,774.515 364.59,776.848 364.5,779.5C 363.076,777.485 362.41,775.152 362.5,772.5 Z"/></g>
<g><path style="opacity:1" fill="#6f6810" d="M 733.5,778.5 C 733.5,783.167 733.5,787.833 733.5,792.5C 730.215,792.072 727.215,791.072 724.5,789.5C 727.199,789.466 729.699,790.133 732,791.5C 732.175,786.981 732.675,782.647 733.5,778.5 Z"/></g>
<g><path style="opacity:1" fill="#afa70c" d="M 701.5,788.5 C 708.321,787.345 715.321,787.179 722.5,788C 723.056,788.383 723.389,788.883 723.5,789.5C 716.201,788.65 708.868,788.317 701.5,788.5 Z"/></g>
<g><path style="opacity:1" fill="#79710f" d="M 375.5,790.5 C 373.485,791.924 371.152,792.59 368.5,792.5C 370.515,791.076 372.848,790.41 375.5,790.5 Z"/></g>
<g><path style="opacity:1" fill="#b1afae" d="M 723.5,792.5 C 713.179,791.306 702.845,791.306 692.5,792.5C 697.569,790.943 702.902,790.276 708.5,790.5C 712.5,790.667 716.5,790.833 720.5,791C 721.737,791.232 722.737,791.732 723.5,792.5 Z"/></g>
<g><path style="opacity:1" fill="#cfc606" d="M 584.5,812.5 C 592.799,813.527 601.132,814.194 609.5,814.5C 604.684,815.65 599.684,815.816 594.5,815C 590.867,814.851 587.534,814.018 584.5,812.5 Z"/></g>
<g><path style="opacity:1" fill="#b3b1b0" d="M 473.5,828.5 C 482.815,829.232 492.148,829.566 501.5,829.5C 497.849,830.165 494.015,830.499 490,830.5C 484.248,830.689 478.748,830.022 473.5,828.5 Z"/></g>
<g><path style="opacity:1" fill="#fcfcfd" d="M 315.5,851.5 C 337.038,861.603 358.038,872.77 378.5,885C 390.101,896.153 391.601,908.653 383,922.5C 377.764,932.204 369.597,936.87 358.5,936.5C 357.76,947.172 357.26,957.838 357,968.5C 359.682,971.35 362.516,974.016 365.5,976.5C 363.34,981.49 360.673,986.157 357.5,990.5C 348.326,988 340.492,983.333 334,976.5C 331.613,972.672 330.446,968.505 330.5,964C 332.121,953.874 332.954,943.707 333,933.5C 332.215,931.714 331.049,930.214 329.5,929C 325.323,926.816 321.157,924.65 317,922.5C 313.76,927.305 310.76,932.305 308,937.5C 306.503,942.166 308.003,945.5 312.5,947.5C 309.906,952.362 307.073,957.029 304,961.5C 291.611,955.389 279.444,948.889 267.5,942C 269.967,936.892 272.8,932.058 276,927.5C 280.028,930.494 283.361,929.828 286,925.5C 295,908.167 304,890.833 313,873.5C 313.667,872.167 313.667,870.833 313,869.5C 311.478,867.978 309.978,866.478 308.5,865C 310.456,860.253 312.789,855.753 315.5,851.5 Z"/></g>
<g><path style="opacity:1" fill="#fcfcfd" d="M 733.5,880.5 C 738.511,880.334 743.511,880.501 748.5,881C 751.357,887.235 754.024,893.568 756.5,900C 752.125,903.247 747.291,905.747 742,907.5C 735.661,900.501 728.494,899.668 720.5,905C 717.567,907.264 715.4,910.098 714,913.5C 713.357,919.627 714.024,925.627 716,931.5C 727.427,918.872 741.593,913.705 758.5,916C 773.533,924.043 781.199,936.71 781.5,954C 781.523,963.955 777.523,971.955 769.5,978C 759.735,984.384 749.068,988.218 737.5,989.5C 723.898,988.414 713.398,982.081 706,970.5C 696.295,955.718 690.795,939.551 689.5,922C 688.558,912.222 691.558,903.889 698.5,897C 708.962,888.767 720.629,883.267 733.5,880.5 Z"/></g>
<g><path style="opacity:1" fill="#43517a" d="M 336.5,883.5 C 343.589,886.739 350.589,890.239 357.5,894C 364.391,901.818 363.724,909.152 355.5,916C 352.167,916.667 348.833,916.667 345.5,916C 338.761,912.882 332.261,909.382 326,905.5C 329.166,898.163 332.666,890.83 336.5,883.5 Z"/></g>
<g><path style="opacity:1" fill="#fbfbfc" d="M 406.5,901.5 C 420.858,903.705 435.192,906.038 449.5,908.5C 449.014,913.93 448.014,919.263 446.5,924.5C 443.973,925.214 441.473,925.88 439,926.5C 438.88,940.5 439.213,954.5 440,968.5C 448.501,949.5 457.501,930.834 467,912.5C 473.829,913.899 480.662,915.233 487.5,916.5C 488.061,937.175 488.894,957.842 490,978.5C 495.778,965.945 501.278,953.278 506.5,940.5C 505.461,938.469 503.795,937.136 501.5,936.5C 500.505,931.117 500.839,925.784 502.5,920.5C 514.608,921.855 526.608,923.855 538.5,926.5C 538.014,931.93 537.014,937.263 535.5,942.5C 529.382,941.977 524.882,944.31 522,949.5C 510.268,973.627 499.101,997.96 488.5,1022.5C 481.35,1021.77 474.517,1020.11 468,1017.5C 467.173,996.157 466.173,974.824 465,953.5C 456,972.833 447,992.167 438,1011.5C 437.275,1012.06 436.442,1012.39 435.5,1012.5C 429.587,1011.35 423.754,1010.02 418,1008.5C 416.471,980.842 415.138,953.176 414,925.5C 412.421,920.703 409.088,918.036 404,917.5C 404.243,912.11 405.077,906.776 406.5,901.5 Z"/></g>
<g><path style="opacity:1" fill="#fbfcfc" d="M 628.5,912.5 C 651.447,909.723 666.28,919.39 673,941.5C 677.788,955.803 679.788,970.469 679,985.5C 675.503,1005.99 663.337,1017.16 642.5,1019C 622.988,1020.49 609.821,1011.99 603,993.5C 597.166,976.997 594.833,959.997 596,942.5C 600.29,925.376 611.123,915.376 628.5,912.5 Z"/></g>
<g><path style="opacity:1" fill="#425079" d="M 629.5,932.5 C 633.869,931.923 637.869,932.757 641.5,935C 644.902,938.968 647.402,943.468 649,948.5C 651.864,958.822 653.698,969.322 654.5,980C 655.538,993.965 649.204,999.965 635.5,998C 633.714,997.215 632.214,996.049 631,994.5C 623.253,977.69 619.92,960.023 621,941.5C 622.688,937.315 625.521,934.315 629.5,932.5 Z"/></g>
<g><path style="opacity:1" fill="#43517a" d="M 736.5,937.5 C 746.859,935.262 753.359,939.262 756,949.5C 758.799,963.703 752.965,969.87 738.5,968C 730.55,963.233 725.717,956.4 724,947.5C 727.465,943.193 731.631,939.859 736.5,937.5 Z"/></g>
</svg>
